<?xml version="1.0" encoding="utf-8"?>
<!-- Generator: Adobe Illustrator 24.2.3, SVG Export Plug-In . SVG Version: 6.00 Build 0)  -->
<svg version="1.1" id="Layer_1" xmlns="http://www.w3.org/2000/svg" xmlns:xlink="http://www.w3.org/1999/xlink" x="0px" y="0px"
	 viewBox="0 0 873.27 743.95" style="enable-background:new 0 0 873.27 743.95;" xml:space="preserve">
<style type="text/css">
	.st0{fill:url(#SVGID_1_);}
	.st1{fill:#1F1F1F;}
	.st2{fill:#141414;}
	.st3{fill:url(#SVGID_2_);}
	.st4{fill:#656464;}
	.st5{fill:#262626;}
	.st6{fill:#B82025;}
	.st7{fill:#CC2127;}
	.st8{fill:url(#SVGID_3_);}
	.st9{fill:url(#SVGID_4_);}
	.st10{fill:url(#SVGID_5_);}
	.st11{fill:url(#SVGID_6_);}
	.st12{fill:url(#SVGID_7_);}
	.st13{fill:url(#SVGID_8_);}
	.st14{fill:url(#SVGID_9_);}
	.st15{fill:url(#SVGID_10_);}
	.st16{fill:url(#SVGID_11_);}
	.st17{fill:url(#SVGID_12_);}
	.st18{fill:url(#SVGID_13_);}
	.st19{fill:url(#SVGID_14_);}
	.st20{fill:url(#SVGID_15_);}
	.st21{fill:url(#SVGID_16_);}
	.st22{fill:url(#SVGID_17_);}
	.st23{fill:url(#SVGID_18_);}
	.st24{fill:url(#SVGID_19_);}
	.st25{fill:url(#SVGID_20_);}
	.st26{fill:url(#SVGID_21_);}
	.st27{fill:url(#SVGID_22_);}
	.st28{fill:url(#SVGID_23_);}
	.st29{fill:url(#SVGID_24_);}
	.st30{fill:url(#SVGID_25_);}
	.st31{fill:url(#SVGID_26_);}
	.st32{fill:url(#SVGID_27_);}
	.st33{fill:url(#SVGID_28_);}
	.st34{fill:url(#SVGID_29_);}
	.st35{fill:url(#SVGID_30_);}
	.st36{fill:url(#SVGID_31_);}
	.st37{fill:url(#SVGID_32_);}
	.st38{fill:url(#SVGID_33_);}
	.st39{fill:url(#SVGID_34_);}
	.st40{fill:url(#SVGID_35_);}
	.st41{fill:url(#SVGID_36_);}
	.st42{fill:url(#SVGID_37_);}
	.st43{fill:url(#SVGID_38_);}
	.st44{fill:url(#SVGID_39_);}
	.st45{fill:#FFFFFF;}
	.st46{fill:url(#SVGID_40_);}
	.st47{fill:url(#SVGID_41_);}
	.st48{fill:url(#SVGID_42_);}
	.st49{fill:url(#SVGID_43_);}
	.st50{fill:url(#SVGID_44_);}
	.st51{fill:url(#SVGID_45_);}
	.st52{fill:url(#SVGID_46_);}
	.st53{fill:url(#SVGID_47_);}
	.st54{fill:url(#SVGID_48_);}
	.st55{fill:url(#SVGID_49_);}
	.st56{fill:url(#SVGID_50_);}
	.st57{fill:url(#SVGID_51_);}
	.st58{fill:url(#SVGID_52_);}
	.st59{fill:url(#SVGID_53_);}
	.st60{fill:url(#SVGID_54_);}
	.st61{fill:url(#SVGID_55_);}
	.st62{fill:url(#SVGID_56_);}
</style>
<radialGradient id="SVGID_1_" cx="7553.0439" cy="3564.5012" r="256.145" fx="7376.1855" fy="3572.1089" gradientTransform="matrix(-1.5044 0.0204 1.543144e-03 0.1138 11817.2822 -5420.1699)" gradientUnits="userSpaceOnUse">
	<stop  offset="5.650000e-03" style="stop-color:#C3C6C7"/>
	<stop  offset="0.2127" style="stop-color:#D2D4D5"/>
	<stop  offset="0.7205" style="stop-color:#F3F3F4"/>
	<stop  offset="1" style="stop-color:#FFFFFF"/>
</radialGradient>
<path class="st0" d="M70.64-4856.58c0.22,16.08,173.06,26.75,386.07,23.86c213.04-2.89,385.54-18.24,385.32-34.32
	c-0.22-16.09-173.08-26.8-386.11-23.92C242.91-4888.07,70.42-4872.67,70.64-4856.58z"/>
<circle class="st1" cx="-1327.47" cy="-3389.37" r="2.22"/>
<g>
	<path class="st2" d="M-945.38-3958.79c-3.65-1.65-7.46-2.99-11.4-4.05l-32.17-8.62l-261.69-70.12l-0.01,0.03l34.33,62.66
		l158.02,42.34c0,0,0,0,0,0l27.32,7.32l60.84,16.3l0,0c0.54,0.15,1.06,0.29,1.58,0.48c12.05,4.1,19.01,16.9,15.67,29.39
		c-3.5,13.05-16.86,20.76-29.88,17.27l-88.17-23.63v0.01l-5-1.34l-85.02-22.79l-18.2,48.28l79.84,21.39l38.77,10.39l10.02,2.69
		l47.84,12.81c0.01,0.01,0.04,0.01,0.06,0.01c0.47,0.18,0.93,0.35,1.4,0.5c1.66,0.59,3.35,1.09,5.09,1.56
		c2.21,0.59,4.44,1.1,6.66,1.47l0.6,0.16l0.01-0.06c38.16,6.36,75.65-17.23,85.86-55.38
		C-893.19-3906.3-911.83-3943.83-945.38-3958.79z"/>
	<polygon class="st2" points="-1075.94,-3890.74 -1099.32,-3843.85 -1109.44,-3823.54 -1118.21,-3805.91 -1121.61,-3799.1 
		-1155.09,-3731.88 -1188.22,-3665.38 -1121.61,-3646.41 -1281.55,-3466.11 -1291.44,-3454.96 -1293.21,-3452.98 -1303.56,-3441.31 
		-1316.69,-3426.51 -1320.5,-3422.21 -1325.75,-3416.3 -1327.07,-3414.8 -1322.98,-3423.76 -1322.3,-3425.23 -1316.17,-3438.63 
		-1305.52,-3461.92 -1299.24,-3475.62 -1239.14,-3606.95 -1273.15,-3616.06 -1222.63,-3749.98 -1196.53,-3819.18 -1187.05,-3844.32 
		-1179.16,-3865.24 -1160.96,-3913.53 	"/>
	<linearGradient id="SVGID_2_" gradientUnits="userSpaceOnUse" x1="-702.5166" y1="-3711.7102" x2="-1138.246" y2="-3885.5342">
		<stop  offset="0" style="stop-color:#000000"/>
		<stop  offset="0.4296" style="stop-color:#A73029"/>
		<stop  offset="1" style="stop-color:#EA1F27"/>
	</linearGradient>
	<path class="st3" d="M-927.22-4026.6c-3.65-1.3-7.4-2.48-11.22-3.5l0-0.01l-0.29-0.08c0,0-0.01,0-0.01,0c-0.01,0-0.01,0-0.02,0
		l-360.93-96.71l-0.08,0.29l34.6,62.13l205.84,55.16c0,0,0,0,0,0l68.66,18.4l38.66,10.36c50.35,13.52,80.23,65.29,66.75,115.66
		c-12.2,45.49-55.58,74.26-100.95,69.5c-4.84-0.5-9.7-1.38-14.54-2.68c-0.03-0.01-0.06-0.01-0.09-0.02
		c-0.03-0.01-0.06-0.01-0.09-0.02l-34.01-9.11l-34.01-9.11l-21.08-5.65l-0.04-0.01l-7.59,13.74l-2.32,4.22l-14.34,28.7l-3.68,7.36
		l-52.07,95.12l52.22,13.85l55.95-100.28l0.85-1.78l3.34-6.99l0.06-0.13l0,0l0,0l-0.06,0.13l-3.34,6.99l46.46,12.45
		c0.06,0.01,0.12,0.03,0.18,0.05c0.06,0.02,0.12,0.04,0.18,0.05c0.05,0.01,0.1,0.02,0.15,0.04c0.05,0.01,0.1,0.03,0.15,0.04
		l6.9,1.85l0.04-0.18l0,0c14.95,3.21,29.92,3.99,44.46,2.57c58.8-5.65,110.66-46.99,126.86-107.43
		C-815.85-3925.49-856.47-4001.3-927.22-4026.6z"/>
	<g>
		<path class="st4" d="M-1316.52-3400.73l-6.83-4.27v0.01l-1.37,2.16l-2.28,3.66l-0.01,0.01l-5.74,9.19
			c-0.96,1.54-0.49,3.56,1.04,4.5l1.29,0.81c0,0,0.01,0,0.01,0.01l1.87,1.16c1.52,0.97,3.55,0.5,4.5-1.04l5.72-9.21l0.01-0.01
			l2.28-3.65l1.37-2.19L-1316.52-3400.73z"/>
		<path class="st4" d="M-1323.35-3404.99l-1.88-1.18l-1.35,2.18l-2.31,3.65v0.01l-5.74,9.21c-0.96,1.53-0.49,3.55,1.04,4.5
			l1.88,1.16l1.29,0.81c0,0,0.01,0,0.01,0.01c1.52,0.96,3.53,0.49,4.49-1.06l5.74-9.21l2.28-3.66l1.37-2.18L-1323.35-3404.99z
			 M-1330.68-3387.74c-1.04-0.66-1.35-2.02-0.71-3.06c0.65-1.04,2.02-1.37,3.06-0.71c0.03,0.01,0.06,0.04,0.09,0.06
			c0.96,0.68,1.24,1.99,0.62,2.99c-0.28,0.44-0.68,0.75-1.12,0.91C-1329.35-3387.32-1330.07-3387.36-1330.68-3387.74z"/>
	</g>
	<g>
		<path class="st4" d="M-1335.35-3412.47l-3.56-2.22l-3.27-2.04v0.01l-1.37,2.16l-2.28,3.66l-5.75,9.21
			c-0.96,1.54-0.49,3.56,1.06,4.5l1.28,0.81c0,0,0.01,0,0.01,0.01l1.87,1.16c1.53,0.97,3.55,0.5,4.5-1.04l5.75-9.21l2.28-3.66
			l1.35-2.18L-1335.35-3412.47z"/>
		<path class="st4" d="M-1338.91-3414.7l-3.27-2.03l-1.88-1.18l-1.35,2.18l-2.3,3.66l-5.75,9.21c-0.96,1.53-0.49,3.55,1.06,4.52
			l1.88,1.15l1.28,0.81c0,0,0.01,0,0.01,0.01c1.53,0.96,3.53,0.49,4.49-1.06l5.74-9.21l2.28-3.66v-0.01l1.37-2.16L-1338.91-3414.7z
			 M-1349.51-3399.48c-1.03-0.66-1.35-2.02-0.71-3.06s2.02-1.37,3.06-0.71c0.03,0.01,0.06,0.04,0.09,0.06c0.01,0,0.01,0,0.01,0
			c0.96,0.69,1.22,1.99,0.6,2.99c-0.28,0.44-0.68,0.75-1.12,0.91C-1348.18-3399.06-1348.9-3399.1-1349.51-3399.48z"/>
	</g>
	<path class="st5" d="M-1343.28-3428.45c1.97-3.17,6.14-4.13,9.31-2.16l24.6,15.34c3.17,1.97,4.13,6.14,2.16,9.31l-6.31,10.12
		l-36.06-22.49L-1343.28-3428.45z"/>
	<path class="st6" d="M-1343.23-3428.52c1.95-3.13,6.07-4.08,9.19-2.13l9.6,5.98c-3.28-2.05-7.6-1.05-9.65,2.24l-6.18,9.91
		l-9.31-5.81L-1343.23-3428.52z"/>
	<path class="st7" d="M-1352.74-3415.21l37.8,23.57c0.62,0.38,1.42,0.2,1.81-0.42l3.18-5.1c0.38-0.61,0.2-1.42-0.42-1.81
		l-37.8-23.57c-0.61-0.38-1.42-0.2-1.81,0.42l-3.18,5.1C-1353.54-3416.4-1353.36-3415.59-1352.74-3415.21z"/>
	<circle class="st1" cx="-1346.3" cy="-3401.11" r="2.22"/>
	<linearGradient id="SVGID_3_" gradientUnits="userSpaceOnUse" x1="-1142.9633" y1="-3634.6741" x2="-1372.9702" y2="-3728.9202">
		<stop  offset="0" style="stop-color:#000000"/>
		<stop  offset="0.2464" style="stop-color:#7E3026"/>
		<stop  offset="1" style="stop-color:#EA1F27"/>
	</linearGradient>
	<path class="st8" d="M-1185.85-3916c-29.56-1.85-59.94,1.52-89.92,10.77c-132.98,41-207.52,182.04-166.51,315.02
		c16.54,53.64,49.36,97.77,91.37,128.62c7.05,5.19,14.34,10,21.88,14.42l10.33-22.42l5.4-11.71c0.06-0.18,0.15-0.35,0.25-0.52
		l0.96-2.07l36.16-78.44c0,0,0,0,0,0l1.96-4.37l3.29-7.33c-0.09-0.07-0.17-0.15-0.26-0.23c-24.09-21.36-39.28-52.54-39.28-87.26
		c0-47.92,28.92-89.09,70.25-107.01h0l1.23-3.14c0.03-0.01,0.05-0.02,0.08-0.03l3.61-9.34c-0.65,0.09-1.3,0.19-1.94,0.3
		c0.71-0.13,1.43-0.26,2.14-0.38L-1185.85-3916z M-1275.25-3564.59l1.02-2.3c0,0,0,0,0,0L-1275.25-3564.59z"/>
	<linearGradient id="SVGID_4_" gradientUnits="userSpaceOnUse" x1="-540.9564" y1="-3381.5" x2="-1296.4286" y2="-3708.1997">
		<stop  offset="0" style="stop-color:#000000"/>
		<stop  offset="0.0851" style="stop-color:#230D0B"/>
		<stop  offset="0.3045" style="stop-color:#792F26"/>
		<stop  offset="0.3767" style="stop-color:#872D26"/>
		<stop  offset="0.7522" style="stop-color:#CE2327"/>
		<stop  offset="0.9271" style="stop-color:#EA1F27"/>
	</linearGradient>
	<path class="st9" d="M-1008.19-3502.86c1.03-0.49,2-1,2.94-1.56c13.02-7.68,17.45-20.51,17.45-20.51
		c4.52-14.14,20.39-14.37,20.39-14.37l345.53-21.67l-340.02-23.57l-0.65-0.04l-42.06-2.91l44.15-9.97c0.75-0.24,1.44-0.52,2.07-0.84
		c0.4-0.19,0.78-0.4,1.13-0.62c5.97-3.65,6.41-10.24,6.41-10.24l4.63-31.29c-0.59-17.73,18.3-12.5,18.3-12.5l347.62-22.14
		l-365.67-26.07l-6.34-0.46l-29.48-2.09l26.89-12.31c-0.85-4.09-1.82-8.18-2.9-12.27c-3.31,0.28-6.65,0.47-10,0.51
		c-10.83,0.19-21.85-0.87-32.84-3.22c-2.31-0.5-4.62-1.06-6.94-1.68c-0.1-0.01-0.21-0.04-0.31-0.07c-0.12-0.03-0.25-0.07-0.37-0.1
		l-45.37-12.15l-1.88,3.93l-41.33,86.4l-0.07-0.01c-0.38,4.94-1.07,9.81-2.06,14.58c-8.47,41.22-38.34,74.62-77.49,88.12
		l-49.73,56.55l-33.78,38.41l-9.4,10.7l-16.86,19.17c7.58,2.72,15.3,5.08,23.13,7.06c43.28,10.95,90.04,10.53,135.82-3.59
		c23.73-7.31,45.61-17.82,65.28-30.89l311.71-14.61l-268.74-18.51l-2.72-0.19l-31.31-2.15l37.31-10.09
		C-1012.98-3500.83-1010.48-3501.76-1008.19-3502.86z"/>
	<g>
		<linearGradient id="SVGID_5_" gradientUnits="userSpaceOnUse" x1="-1425.8901" y1="-3667.2744" x2="-1304.5771" y2="-3667.2744">
			<stop  offset="0" style="stop-color:#FFFFFF"/>
			<stop  offset="1" style="stop-color:#FFFFFF"/>
		</linearGradient>
		<path class="st10" d="M-1304.58-3864.96c-72.18,38.37-121.31,114.34-121.31,201.77c0,81.61,42.8,153.21,107.19,193.61l5.4-11.71
			c0.06-0.18,0.15-0.35,0.25-0.52l0.96-2.07c-59.67-41.19-98.77-110.04-98.77-188.05
			C-1410.87-3753.15-1368.47-3824.48-1304.58-3864.96z"/>
		<linearGradient id="SVGID_6_" gradientUnits="userSpaceOnUse" x1="-1269.3425" y1="-3452.4978" x2="-1075.4127" y2="-3452.4978">
			<stop  offset="0" style="stop-color:#FFFFFF"/>
			<stop  offset="0.9834" style="stop-color:#FFFFFF"/>
		</linearGradient>
		<path class="st11" d="M-1182.5-3443.56c-27.19,0-53.27-4.75-77.44-13.48l-9.4,10.7c22.58,7.47,46.74,11.52,71.82,11.52
			c44.91,0,86.8-12.96,122.11-35.35C-1107.35-3453.18-1143.79-3443.56-1182.5-3443.56z"/>
	</g>
</g>
<g>
	<linearGradient id="SVGID_7_" gradientUnits="userSpaceOnUse" x1="-350.8987" y1="-3726.4758" x2="2078.866" y2="-3622.8811">
		<stop  offset="1.393105e-03" style="stop-color:#F30000"/>
		<stop  offset="0.4126" style="stop-color:#D70208"/>
		<stop  offset="1" style="stop-color:#A90614"/>
	</linearGradient>
	<path class="st12" d="M-463.18-3583.14v-169.09h253.64c7.63,0,14.24-2.64,19.81-7.93c5.57-5.57,8.37-12.33,8.37-20.26v-28.18
		h-281.82v-56.36H-125v112.73c0,15.85-5.58,29.21-16.73,40.07c-11.16,10.86-24.37,16.29-39.63,16.29h-225.46v112.73H-463.18z"/>
	<linearGradient id="SVGID_8_" gradientUnits="userSpaceOnUse" x1="-350.1329" y1="-3744.4355" x2="2079.6318" y2="-3640.8408">
		<stop  offset="1.393105e-03" style="stop-color:#F30000"/>
		<stop  offset="0.4126" style="stop-color:#D70208"/>
		<stop  offset="1" style="stop-color:#A90614"/>
	</linearGradient>
	<path class="st13" d="M-68.64-3695.87v-169.09h56.37v169.09H-68.64z M-12.27-3583.14c-15.85,0-29.21-5.43-40.07-16.29
		c-10.86-11.15-16.29-24.51-16.29-40.07h338.18c0,15.85-5.58,29.21-16.73,40.07c-11.16,10.86-24.37,16.29-39.63,16.29H-12.27z
		 M213.18-3695.87v-169.09h56.36v169.09H213.18z"/>
	<linearGradient id="SVGID_9_" gradientUnits="userSpaceOnUse" x1="-349.7225" y1="-3754.0615" x2="2080.0422" y2="-3650.4668">
		<stop  offset="1.393105e-03" style="stop-color:#F30000"/>
		<stop  offset="0.4126" style="stop-color:#D70208"/>
		<stop  offset="1" style="stop-color:#A90614"/>
	</linearGradient>
	<path class="st14" d="M325.91-3583.14v-281.82h56.36v225.46h281.82c0,15.85-5.58,29.21-16.73,40.07
		c-11.16,10.86-24.37,16.29-39.63,16.29H325.91z"/>
	<linearGradient id="SVGID_10_" gradientUnits="userSpaceOnUse" x1="-348.7509" y1="-3776.8496" x2="2081.0137" y2="-3673.2549">
		<stop  offset="1.393105e-03" style="stop-color:#F30000"/>
		<stop  offset="0.4126" style="stop-color:#D70208"/>
		<stop  offset="1" style="stop-color:#A90614"/>
	</linearGradient>
	<path class="st15" d="M720.46-3583.14c0-15.56,5.43-28.77,16.29-39.63c11.15-11.15,24.51-16.73,40.07-16.73h225.46v-56.36H720.46
		v-169.09h338.18c0,15.85-5.58,29.21-16.73,40.07c-11.16,10.86-24.37,16.29-39.63,16.29H776.82v56.36h281.82v169.09H720.46z"/>
	<linearGradient id="SVGID_11_" gradientUnits="userSpaceOnUse" x1="-347.9852" y1="-3794.8093" x2="2081.7795" y2="-3691.2146">
		<stop  offset="1.393105e-03" style="stop-color:#F30000"/>
		<stop  offset="0.4126" style="stop-color:#D70208"/>
		<stop  offset="1" style="stop-color:#A90614"/>
	</linearGradient>
	<path class="st16" d="M1171.37-3808.6c-15.85,0-29.21-5.43-40.07-16.29c-10.86-11.15-16.29-24.51-16.29-40.07h338.18
		c0,15.85-5.58,29.21-16.73,40.07c-11.16,10.86-24.37,16.29-39.63,16.29H1171.37z M1171.37-3695.87c-15.85,0-29.21-5.43-40.07-16.29
		c-10.86-11.15-16.29-24.51-16.29-40.07h338.18c0,15.85-5.58,29.21-16.73,40.07c-11.16,10.86-24.37,16.29-39.63,16.29H1171.37z
		 M1171.37-3583.14c-15.85,0-29.21-5.43-40.07-16.29c-10.86-11.15-16.29-24.51-16.29-40.07h338.18c0,15.85-5.58,29.21-16.73,40.07
		c-11.16,10.86-24.37,16.29-39.63,16.29H1171.37z"/>
	<linearGradient id="SVGID_12_" gradientUnits="userSpaceOnUse" x1="-343.9767" y1="-3888.8276" x2="2085.7881" y2="-3785.2332">
		<stop  offset="1.393105e-03" style="stop-color:#F30000"/>
		<stop  offset="0.4126" style="stop-color:#D70208"/>
		<stop  offset="1" style="stop-color:#A90614"/>
	</linearGradient>
	<path class="st17" d="M1509.55-3864.96h56.36v56.36c0,15.85-5.58,29.21-16.73,40.07c-11.16,10.86-24.37,16.29-39.63,16.29V-3864.96
		z"/>
	<linearGradient id="SVGID_13_" gradientUnits="userSpaceOnUse" x1="-347.1146" y1="-3815.2295" x2="2082.6501" y2="-3711.6348">
		<stop  offset="1.393105e-03" style="stop-color:#F30000"/>
		<stop  offset="0.4126" style="stop-color:#D70208"/>
		<stop  offset="1" style="stop-color:#A90614"/>
	</linearGradient>
	<path class="st18" d="M1622.28-3583.14v-169.09h281.82v-56.36h-225.46c-15.56,0-28.92-5.43-40.07-16.29
		c-10.86-10.86-16.29-24.22-16.29-40.07h338.18v169.09h-281.82v56.36h225.46c15.26,0,28.47,5.58,39.63,16.73
		c11.15,10.86,16.73,24.07,16.73,39.63H1622.28z"/>
	<linearGradient id="SVGID_14_" gradientUnits="userSpaceOnUse" x1="-346.6032" y1="-3827.2231" x2="2083.1614" y2="-3723.6284">
		<stop  offset="1.393105e-03" style="stop-color:#F30000"/>
		<stop  offset="0.4126" style="stop-color:#D70208"/>
		<stop  offset="1" style="stop-color:#A90614"/>
	</linearGradient>
	<path class="st19" d="M2169.18-3622.78c-10.86-11.15-24.07-16.73-39.63-16.73v-169.09v-1.18v-55.18h-112.73
		c0,15.56,5.43,28.92,16.29,40.07c10.86,10.86,24.22,16.29,40.07,16.29v169.09h-56.36v56.36h169.09
		C2185.92-3598.4,2180.33-3611.61,2169.18-3622.78z"/>
</g>
<g>
	<path d="M-945.38-2915.11c-3.65-1.65-7.46-2.99-11.4-4.05l-32.17-8.62l-261.69-70.12l-0.01,0.03l34.33,62.66l158.02,42.34
		c0,0,0,0,0,0l27.32,7.32l60.84,16.3l0-0.01c0.54,0.15,1.06,0.29,1.58,0.48c12.05,4.1,19.01,16.9,15.67,29.39
		c-3.5,13.05-16.86,20.76-29.88,17.27l-88.17-23.63v0.01l-5-1.34l-85.02-22.79l-18.2,48.28l79.84,21.39l38.77,10.39l10.02,2.69
		l47.84,12.81c0.01,0.01,0.04,0.01,0.06,0.01c0.47,0.18,0.93,0.35,1.4,0.5c1.66,0.59,3.35,1.09,5.09,1.56
		c2.21,0.59,4.44,1.1,6.66,1.47l0.6,0.16l0.01-0.06c38.16,6.36,75.65-17.23,85.86-55.38
		C-893.19-2862.62-911.83-2900.15-945.38-2915.11z"/>
	<polygon points="-1075.94,-2847.05 -1099.32,-2800.17 -1109.44,-2779.85 -1118.21,-2762.23 -1121.61,-2755.42 -1155.09,-2688.2 
		-1188.22,-2621.7 -1121.61,-2602.72 -1281.55,-2422.43 -1291.44,-2411.28 -1293.21,-2409.29 -1303.56,-2397.63 -1316.69,-2382.83 
		-1320.5,-2378.53 -1325.75,-2372.62 -1327.07,-2371.12 -1322.98,-2380.08 -1322.3,-2381.55 -1316.17,-2394.95 -1305.52,-2418.24 
		-1299.24,-2431.93 -1239.14,-2563.27 -1273.15,-2572.37 -1222.63,-2706.29 -1196.53,-2775.5 -1187.05,-2800.64 -1179.16,-2821.56 
		-1160.96,-2869.84 	"/>
	<linearGradient id="SVGID_15_" gradientUnits="userSpaceOnUse" x1="-702.5166" y1="-2668.0269" x2="-1138.246" y2="-2841.8508">
		<stop  offset="1.393105e-03" style="stop-color:#F30000"/>
		<stop  offset="0.4126" style="stop-color:#D70208"/>
		<stop  offset="1" style="stop-color:#A90614"/>
	</linearGradient>
	<path class="st20" d="M-927.22-2982.92c-3.65-1.3-7.4-2.48-11.22-3.5l0-0.01l-0.29-0.08c0,0-0.01,0-0.01,0c-0.01,0-0.01,0-0.02,0
		l-360.93-96.71l-0.08,0.29l34.6,62.13l205.84,55.16c0,0,0,0,0,0l68.66,18.4l38.66,10.36c50.35,13.52,80.23,65.29,66.75,115.65
		c-12.2,45.49-55.58,74.26-100.95,69.5c-4.84-0.5-9.7-1.38-14.54-2.68c-0.03-0.01-0.06-0.01-0.09-0.02
		c-0.03-0.01-0.06-0.01-0.09-0.02l-34.01-9.11l-34.01-9.11l-21.08-5.65l-0.04-0.01l-7.59,13.74l-2.32,4.22l-14.34,28.7l-3.68,7.36
		l-52.07,95.12l52.22,13.85l55.95-100.28l0.85-1.78l3.34-6.99l0.06-0.13l0,0l0,0l-0.06,0.13l-3.34,6.99l46.46,12.45
		c0.06,0.01,0.12,0.03,0.18,0.05c0.06,0.02,0.12,0.04,0.18,0.05c0.05,0.01,0.1,0.02,0.15,0.04c0.05,0.01,0.1,0.03,0.15,0.04
		l6.9,1.85l0.04-0.18l0,0c14.95,3.21,29.92,3.99,44.46,2.57c58.8-5.65,110.66-46.99,126.86-107.43
		C-815.85-2881.8-856.47-2957.61-927.22-2982.92z"/>
	<g>
		<path class="st4" d="M-1316.52-2357.05l-6.83-4.27v0.01l-1.37,2.16l-2.28,3.66l-0.01,0.01l-5.74,9.19
			c-0.96,1.54-0.49,3.56,1.04,4.5l1.29,0.81c0,0,0.01,0,0.01,0.01l1.87,1.16c1.52,0.97,3.55,0.5,4.5-1.04l5.72-9.21l0.01-0.01
			l2.28-3.65l1.37-2.19L-1316.52-2357.05z"/>
		<path class="st4" d="M-1323.35-2361.3l-1.88-1.18l-1.35,2.18l-2.31,3.65v0.01l-5.74,9.21c-0.96,1.53-0.49,3.55,1.04,4.5l1.88,1.16
			l1.29,0.81c0,0,0.01,0,0.01,0.01c1.52,0.96,3.53,0.49,4.49-1.06l5.74-9.21l2.28-3.66l1.37-2.18L-1323.35-2361.3z
			 M-1330.68-2344.06c-1.04-0.66-1.35-2.02-0.71-3.06c0.65-1.04,2.02-1.37,3.06-0.71c0.03,0.01,0.06,0.04,0.09,0.06
			c0.96,0.68,1.24,1.99,0.62,2.99c-0.28,0.44-0.68,0.75-1.12,0.91C-1329.35-2343.63-1330.07-2343.68-1330.68-2344.06z"/>
	</g>
	<g>
		<path class="st4" d="M-1335.35-2368.79l-3.56-2.22l-3.27-2.04v0.01l-1.37,2.16l-2.28,3.66l-5.75,9.21
			c-0.96,1.54-0.49,3.56,1.06,4.5l1.28,0.81c0,0,0.01,0,0.01,0.01l1.87,1.16c1.53,0.97,3.55,0.5,4.5-1.04l5.75-9.21l2.28-3.66
			l1.35-2.18L-1335.35-2368.79z"/>
		<path class="st4" d="M-1338.91-2371.01l-3.27-2.03l-1.88-1.18l-1.35,2.18l-2.3,3.66l-5.75,9.21c-0.96,1.53-0.49,3.55,1.06,4.52
			l1.88,1.15l1.28,0.81c0,0,0.01,0,0.01,0.01c1.53,0.96,3.53,0.49,4.49-1.06l5.74-9.21l2.28-3.66v-0.01l1.37-2.16L-1338.91-2371.01z
			 M-1349.51-2355.8c-1.03-0.66-1.35-2.02-0.71-3.06c0.65-1.04,2.02-1.37,3.06-0.71c0.03,0.01,0.06,0.04,0.09,0.06
			c0.01,0,0.01,0,0.01,0c0.96,0.69,1.22,1.99,0.6,2.99c-0.28,0.44-0.68,0.75-1.12,0.91
			C-1348.18-2355.37-1348.9-2355.42-1349.51-2355.8z"/>
	</g>
	<path class="st5" d="M-1343.28-2384.77c1.97-3.17,6.14-4.13,9.31-2.16l24.6,15.34c3.17,1.97,4.13,6.14,2.16,9.31l-6.31,10.12
		l-36.06-22.49L-1343.28-2384.77z"/>
	<path class="st6" d="M-1343.23-2384.84c1.95-3.13,6.07-4.08,9.19-2.13l9.6,5.98c-3.28-2.05-7.6-1.05-9.65,2.24l-6.18,9.91
		l-9.31-5.81L-1343.23-2384.84z"/>
	<path class="st7" d="M-1352.74-2371.52l37.8,23.57c0.62,0.38,1.42,0.2,1.81-0.42l3.18-5.1c0.38-0.62,0.2-1.42-0.42-1.81
		l-37.8-23.57c-0.61-0.38-1.42-0.2-1.81,0.42l-3.18,5.1C-1353.54-2372.72-1353.36-2371.91-1352.74-2371.52z"/>
	<circle class="st1" cx="-1346.3" cy="-2357.42" r="2.22"/>
	<linearGradient id="SVGID_16_" gradientUnits="userSpaceOnUse" x1="-1142.9633" y1="-2590.9905" x2="-1372.9702" y2="-2685.2368">
		<stop  offset="1.393105e-03" style="stop-color:#F30000"/>
		<stop  offset="0.4126" style="stop-color:#D70208"/>
		<stop  offset="1" style="stop-color:#A90614"/>
	</linearGradient>
	<path class="st21" d="M-1185.85-2872.31c-29.56-1.85-59.94,1.52-89.92,10.77c-132.98,41-207.52,182.04-166.51,315.02
		c16.54,53.64,49.36,97.77,91.37,128.62c7.05,5.19,14.34,10,21.88,14.42l10.33-22.42l5.4-11.71c0.06-0.18,0.15-0.35,0.25-0.52
		l0.96-2.07l36.16-78.44c0,0,0,0,0,0l1.96-4.37l3.29-7.33c-0.09-0.07-0.17-0.15-0.26-0.23c-24.09-21.36-39.28-52.54-39.28-87.26
		c0-47.92,28.92-89.09,70.25-107.01h0l1.23-3.14c0.03-0.01,0.05-0.02,0.08-0.03l3.61-9.34c-0.65,0.09-1.3,0.19-1.94,0.3
		c0.71-0.13,1.43-0.26,2.14-0.38L-1185.85-2872.31z M-1275.25-2520.9l1.02-2.3c0,0,0,0,0,0L-1275.25-2520.9z"/>
	<linearGradient id="SVGID_17_" gradientUnits="userSpaceOnUse" x1="-540.9564" y1="-2337.8164" x2="-1296.4286" y2="-2664.5161">
		<stop  offset="1.393105e-03" style="stop-color:#F30000"/>
		<stop  offset="0.4126" style="stop-color:#D70208"/>
		<stop  offset="1" style="stop-color:#A90614"/>
	</linearGradient>
	<path class="st22" d="M-1008.19-2459.18c1.03-0.49,2-1,2.94-1.56c13.02-7.68,17.45-20.51,17.45-20.51
		c4.52-14.14,20.39-14.37,20.39-14.37l345.53-21.67l-340.02-23.57l-0.65-0.04l-42.06-2.91l44.15-9.97c0.75-0.24,1.44-0.52,2.07-0.84
		c0.4-0.19,0.78-0.4,1.13-0.62c5.97-3.65,6.41-10.24,6.41-10.24l4.63-31.29c-0.59-17.73,18.3-12.51,18.3-12.51l347.62-22.14
		l-365.67-26.07l-6.34-0.46l-29.48-2.09l26.89-12.31c-0.85-4.09-1.82-8.18-2.9-12.27c-3.31,0.28-6.65,0.47-10,0.51
		c-10.83,0.19-21.85-0.87-32.84-3.22c-2.31-0.5-4.62-1.06-6.94-1.68c-0.1-0.01-0.21-0.04-0.31-0.07c-0.12-0.03-0.25-0.07-0.37-0.1
		l-45.37-12.15l-1.88,3.93l-41.33,86.4l-0.07-0.01c-0.38,4.94-1.07,9.81-2.06,14.58c-8.47,41.22-38.34,74.62-77.49,88.12
		l-49.73,56.55l-33.78,38.41l-9.4,10.7l-16.86,19.17c7.58,2.72,15.3,5.08,23.13,7.06c43.28,10.95,90.04,10.53,135.82-3.59
		c23.73-7.31,45.61-17.82,65.28-30.89l311.71-14.61l-268.74-18.51l-2.72-0.19l-31.31-2.15l37.31-10.09
		C-1012.98-2457.15-1010.48-2458.08-1008.19-2459.18z"/>
	<g>
		<linearGradient id="SVGID_18_" gradientUnits="userSpaceOnUse" x1="-1425.8901" y1="-2623.5911" x2="-1304.5771" y2="-2623.5911">
			<stop  offset="0" style="stop-color:#FFFFFF"/>
			<stop  offset="1" style="stop-color:#FFFFFF"/>
		</linearGradient>
		<path class="st23" d="M-1304.58-2821.28c-72.18,38.37-121.31,114.34-121.31,201.77c0,81.61,42.8,153.21,107.19,193.61l5.4-11.71
			c0.06-0.18,0.15-0.35,0.25-0.52l0.96-2.07c-59.67-41.19-98.77-110.04-98.77-188.05
			C-1410.87-2709.47-1368.47-2780.79-1304.58-2821.28z"/>
		<linearGradient id="SVGID_19_" gradientUnits="userSpaceOnUse" x1="-1269.3425" y1="-2408.8145" x2="-1075.4127" y2="-2408.8145">
			<stop  offset="0" style="stop-color:#FFFFFF"/>
			<stop  offset="0.9834" style="stop-color:#FFFFFF"/>
		</linearGradient>
		<path class="st24" d="M-1182.5-2399.88c-27.19,0-53.27-4.75-77.44-13.48l-9.4,10.7c22.58,7.47,46.74,11.52,71.82,11.52
			c44.91,0,86.8-12.96,122.11-35.35C-1107.35-2409.5-1143.79-2399.88-1182.5-2399.88z"/>
	</g>
</g>
<g>
	<linearGradient id="SVGID_20_" gradientUnits="userSpaceOnUse" x1="-350.8987" y1="-2682.7925" x2="2078.866" y2="-2579.1978">
		<stop  offset="1.393105e-03" style="stop-color:#F30000"/>
		<stop  offset="0.4126" style="stop-color:#D70208"/>
		<stop  offset="1" style="stop-color:#A90614"/>
	</linearGradient>
	<path class="st25" d="M-463.18-2539.46v-169.09h253.64c7.63,0,14.24-2.64,19.81-7.93c5.57-5.57,8.37-12.33,8.37-20.26v-28.18
		h-281.82v-56.36H-125v112.73c0,15.85-5.58,29.21-16.73,40.07c-11.16,10.86-24.37,16.29-39.63,16.29h-225.46v112.73H-463.18z"/>
	<linearGradient id="SVGID_21_" gradientUnits="userSpaceOnUse" x1="-350.1329" y1="-2700.7522" x2="2079.6318" y2="-2597.1575">
		<stop  offset="1.393105e-03" style="stop-color:#F30000"/>
		<stop  offset="0.4126" style="stop-color:#D70208"/>
		<stop  offset="1" style="stop-color:#A90614"/>
	</linearGradient>
	<path class="st26" d="M-68.64-2652.19v-169.09h56.37v169.09H-68.64z M-12.27-2539.46c-15.85,0-29.21-5.43-40.07-16.29
		c-10.86-11.15-16.29-24.51-16.29-40.07h338.18c0,15.85-5.58,29.21-16.73,40.07c-11.16,10.86-24.37,16.29-39.63,16.29H-12.27z
		 M213.18-2652.19v-169.09h56.36v169.09H213.18z"/>
	<linearGradient id="SVGID_22_" gradientUnits="userSpaceOnUse" x1="-349.7225" y1="-2710.3779" x2="2080.0422" y2="-2606.7834">
		<stop  offset="1.393105e-03" style="stop-color:#F30000"/>
		<stop  offset="0.4126" style="stop-color:#D70208"/>
		<stop  offset="1" style="stop-color:#A90614"/>
	</linearGradient>
	<path class="st27" d="M325.91-2539.46v-281.82h56.36v225.46h281.82c0,15.85-5.58,29.21-16.73,40.07
		c-11.16,10.86-24.37,16.29-39.63,16.29H325.91z"/>
	<linearGradient id="SVGID_23_" gradientUnits="userSpaceOnUse" x1="-348.7509" y1="-2733.166" x2="2081.0137" y2="-2629.5715">
		<stop  offset="1.393105e-03" style="stop-color:#F30000"/>
		<stop  offset="0.4126" style="stop-color:#D70208"/>
		<stop  offset="1" style="stop-color:#A90614"/>
	</linearGradient>
	<path class="st28" d="M720.46-2539.46c0-15.56,5.43-28.77,16.29-39.63c11.15-11.15,24.51-16.73,40.07-16.73h225.46v-56.36H720.46
		v-169.09h338.18c0,15.85-5.58,29.21-16.73,40.07c-11.16,10.86-24.37,16.29-39.63,16.29H776.82v56.36h281.82v169.09H720.46z"/>
	<linearGradient id="SVGID_24_" gradientUnits="userSpaceOnUse" x1="-347.9852" y1="-2751.1257" x2="2081.7795" y2="-2647.5313">
		<stop  offset="1.393105e-03" style="stop-color:#F30000"/>
		<stop  offset="0.4126" style="stop-color:#D70208"/>
		<stop  offset="1" style="stop-color:#A90614"/>
	</linearGradient>
	<path class="st29" d="M1171.37-2764.92c-15.85,0-29.21-5.43-40.07-16.29c-10.86-11.15-16.29-24.51-16.29-40.07h338.18
		c0,15.85-5.58,29.21-16.73,40.07c-11.16,10.86-24.37,16.29-39.63,16.29H1171.37z M1171.37-2652.19c-15.85,0-29.21-5.43-40.07-16.29
		c-10.86-11.15-16.29-24.51-16.29-40.07h338.18c0,15.85-5.58,29.21-16.73,40.07c-11.16,10.86-24.37,16.29-39.63,16.29H1171.37z
		 M1171.37-2539.46c-15.85,0-29.21-5.43-40.07-16.29c-10.86-11.15-16.29-24.51-16.29-40.07h338.18c0,15.85-5.58,29.21-16.73,40.07
		c-11.16,10.86-24.37,16.29-39.63,16.29H1171.37z"/>
	<linearGradient id="SVGID_25_" gradientUnits="userSpaceOnUse" x1="-343.9767" y1="-2845.1443" x2="2085.7881" y2="-2741.5496">
		<stop  offset="1.393105e-03" style="stop-color:#F30000"/>
		<stop  offset="0.4126" style="stop-color:#D70208"/>
		<stop  offset="1" style="stop-color:#A90614"/>
	</linearGradient>
	<path class="st30" d="M1509.55-2821.28h56.36v56.36c0,15.85-5.58,29.21-16.73,40.07c-11.16,10.86-24.37,16.29-39.63,16.29V-2821.28
		z"/>
	<linearGradient id="SVGID_26_" gradientUnits="userSpaceOnUse" x1="-347.1146" y1="-2771.5459" x2="2082.6501" y2="-2667.9514">
		<stop  offset="1.393105e-03" style="stop-color:#F30000"/>
		<stop  offset="0.4126" style="stop-color:#D70208"/>
		<stop  offset="1" style="stop-color:#A90614"/>
	</linearGradient>
	<path class="st31" d="M1622.28-2539.46v-169.09h281.82v-56.36h-225.46c-15.56,0-28.92-5.43-40.07-16.29
		c-10.86-10.86-16.29-24.22-16.29-40.07h338.18v169.09h-281.82v56.36h225.46c15.26,0,28.47,5.58,39.63,16.73
		c11.15,10.86,16.73,24.07,16.73,39.63H1622.28z"/>
	<linearGradient id="SVGID_27_" gradientUnits="userSpaceOnUse" x1="-346.6032" y1="-2783.5396" x2="2083.1614" y2="-2679.9451">
		<stop  offset="1.393105e-03" style="stop-color:#F30000"/>
		<stop  offset="0.4126" style="stop-color:#D70208"/>
		<stop  offset="1" style="stop-color:#A90614"/>
	</linearGradient>
	<path class="st32" d="M2169.18-2579.09c-10.86-11.15-24.07-16.73-39.63-16.73v-169.09v-1.18v-55.18h-112.73
		c0,15.56,5.43,28.92,16.29,40.07c10.86,10.86,24.22,16.29,40.07,16.29v169.09h-56.36v56.36h169.09
		C2185.92-2554.72,2180.33-2567.93,2169.18-2579.09z"/>
</g>
<g>
	<path d="M-945.38-2027.96c-3.65-1.65-7.46-2.99-11.4-4.05l-32.17-8.62l-261.69-70.12l-0.01,0.03l34.33,62.66l158.02,42.34
		c0,0,0,0,0,0l27.32,7.32l60.84,16.3l0-0.01c0.54,0.15,1.06,0.29,1.58,0.48c12.05,4.1,19.01,16.9,15.67,29.39
		c-3.5,13.05-16.86,20.76-29.88,17.27l-88.17-23.63v0.01l-5-1.34l-85.02-22.79l-18.2,48.28l79.84,21.39l38.77,10.39l10.02,2.69
		l47.84,12.81c0.01,0.01,0.04,0.01,0.06,0.01c0.47,0.18,0.93,0.35,1.4,0.5c1.66,0.59,3.35,1.09,5.09,1.56
		c2.21,0.59,4.44,1.1,6.66,1.47l0.6,0.16l0.01-0.06c38.16,6.36,75.65-17.23,85.86-55.38C-893.19-1975.47-911.83-2013-945.38-2027.96
		z"/>
	<polygon points="-1075.94,-1959.9 -1099.32,-1913.02 -1109.44,-1892.7 -1118.21,-1875.08 -1121.61,-1868.27 -1155.09,-1801.05 
		-1188.22,-1734.55 -1121.61,-1715.57 -1281.55,-1535.28 -1291.44,-1524.13 -1293.21,-1522.14 -1303.56,-1510.48 -1316.69,-1495.68 
		-1320.5,-1491.38 -1325.75,-1485.47 -1327.07,-1483.97 -1322.98,-1492.93 -1322.3,-1494.4 -1316.17,-1507.8 -1305.52,-1531.09 
		-1299.24,-1544.78 -1239.14,-1676.12 -1273.15,-1685.22 -1222.63,-1819.14 -1196.53,-1888.35 -1187.05,-1913.49 -1179.16,-1934.41 
		-1160.96,-1982.69 	"/>
	<linearGradient id="SVGID_28_" gradientUnits="userSpaceOnUse" x1="-1235.0909" y1="-1986.1272" x2="-705.0184" y2="-1795.0127">
		<stop  offset="1.393105e-03" style="stop-color:#F30000"/>
		<stop  offset="0.4126" style="stop-color:#D70208"/>
		<stop  offset="1" style="stop-color:#A90614"/>
	</linearGradient>
	<path class="st33" d="M-927.22-2095.77c-3.65-1.3-7.4-2.48-11.22-3.5l0-0.01l-0.29-0.08c0,0-0.01,0-0.01,0c-0.01,0-0.01,0-0.02,0
		l-360.93-96.71l-0.08,0.29l34.6,62.13l205.84,55.16c0,0,0,0,0,0l68.66,18.4l38.66,10.36c50.35,13.52,80.23,65.29,66.75,115.65
		c-12.2,45.49-55.58,74.26-100.95,69.5c-4.84-0.5-9.7-1.38-14.54-2.68c-0.03-0.01-0.06-0.01-0.09-0.02
		c-0.03-0.01-0.06-0.01-0.09-0.02l-34.01-9.11l-34.01-9.11l-21.08-5.65l-0.04-0.01l-7.59,13.74l-2.32,4.22l-14.34,28.7l-3.68,7.36
		l-52.07,95.12l52.22,13.85l55.95-100.28l0.85-1.78l3.34-6.99l0.06-0.13l0,0l0,0l-0.06,0.13l-3.34,6.99l46.46,12.45
		c0.06,0.01,0.12,0.03,0.18,0.05c0.06,0.02,0.12,0.04,0.18,0.05c0.05,0.01,0.1,0.02,0.15,0.04c0.05,0.01,0.1,0.03,0.15,0.04
		l6.9,1.85l0.04-0.18l0,0c14.95,3.21,29.92,3.99,44.46,2.57c58.8-5.65,110.66-46.99,126.86-107.43
		C-815.85-1994.65-856.47-2070.46-927.22-2095.77z"/>
	<g>
		<path class="st4" d="M-1316.52-1469.9l-6.83-4.27v0.01l-1.37,2.16l-2.28,3.66l-0.01,0.01l-5.74,9.19
			c-0.96,1.54-0.49,3.56,1.04,4.5l1.29,0.81c0,0,0.01,0,0.01,0.01l1.87,1.16c1.52,0.97,3.55,0.5,4.5-1.04l5.72-9.21l0.01-0.01
			l2.28-3.65l1.37-2.19L-1316.52-1469.9z"/>
		<path class="st4" d="M-1323.35-1474.15l-1.88-1.18l-1.35,2.18l-2.31,3.65v0.01l-5.74,9.21c-0.96,1.53-0.49,3.55,1.04,4.5
			l1.88,1.16l1.29,0.81c0,0,0.01,0,0.01,0.01c1.52,0.96,3.53,0.49,4.49-1.06l5.74-9.21l2.28-3.66l1.37-2.18L-1323.35-1474.15z
			 M-1330.68-1456.91c-1.04-0.66-1.35-2.02-0.71-3.06c0.65-1.04,2.02-1.37,3.06-0.71c0.03,0.01,0.06,0.04,0.09,0.06
			c0.96,0.68,1.24,1.99,0.62,2.99c-0.28,0.44-0.68,0.75-1.12,0.91C-1329.35-1456.48-1330.07-1456.53-1330.68-1456.91z"/>
	</g>
	<g>
		<path class="st4" d="M-1335.35-1481.64l-3.56-2.22l-3.27-2.04v0.01l-1.37,2.16l-2.28,3.66l-5.75,9.21
			c-0.96,1.54-0.49,3.56,1.06,4.5l1.28,0.81c0,0,0.01,0,0.01,0.01l1.87,1.16c1.53,0.97,3.55,0.5,4.5-1.04l5.75-9.21l2.28-3.66
			l1.35-2.18L-1335.35-1481.64z"/>
		<path class="st4" d="M-1338.91-1483.86l-3.27-2.03l-1.88-1.18l-1.35,2.18l-2.3,3.66l-5.75,9.21c-0.96,1.53-0.49,3.55,1.06,4.52
			l1.88,1.15l1.28,0.81c0,0,0.01,0,0.01,0.01c1.53,0.96,3.53,0.49,4.49-1.06l5.74-9.21l2.28-3.66v-0.01l1.37-2.16L-1338.91-1483.86z
			 M-1349.51-1468.65c-1.03-0.66-1.35-2.02-0.71-3.06c0.65-1.04,2.02-1.37,3.06-0.71c0.03,0.01,0.06,0.04,0.09,0.06
			c0.01,0,0.01,0,0.01,0c0.96,0.69,1.22,1.99,0.6,2.99c-0.28,0.44-0.68,0.75-1.12,0.91
			C-1348.18-1468.22-1348.9-1468.27-1349.51-1468.65z"/>
	</g>
	<path class="st5" d="M-1343.28-1497.62c1.97-3.17,6.14-4.13,9.31-2.16l24.6,15.34c3.17,1.97,4.13,6.14,2.16,9.31l-6.31,10.12
		l-36.06-22.49L-1343.28-1497.62z"/>
	<path class="st6" d="M-1343.23-1497.69c1.95-3.13,6.07-4.08,9.19-2.13l9.6,5.98c-3.28-2.05-7.6-1.05-9.65,2.24l-6.18,9.91
		l-9.31-5.81L-1343.23-1497.69z"/>
	<path class="st7" d="M-1352.74-1484.37l37.8,23.57c0.62,0.38,1.42,0.2,1.81-0.42l3.18-5.1c0.38-0.62,0.2-1.42-0.42-1.81
		l-37.8-23.57c-0.61-0.38-1.42-0.2-1.81,0.42l-3.18,5.1C-1353.54-1485.56-1353.36-1484.76-1352.74-1484.37z"/>
	<circle class="st1" cx="-1346.3" cy="-1470.27" r="2.22"/>
	<linearGradient id="SVGID_29_" gradientUnits="userSpaceOnUse" x1="-1465.5546" y1="-1809.7654" x2="-1223.9569" y2="-1741.2527">
		<stop  offset="1.393105e-03" style="stop-color:#F30000"/>
		<stop  offset="0.4126" style="stop-color:#D70208"/>
		<stop  offset="1" style="stop-color:#A90614"/>
	</linearGradient>
	<path class="st34" d="M-1185.85-1985.16c-29.56-1.85-59.94,1.52-89.92,10.77c-132.98,41-207.52,182.04-166.51,315.02
		c16.54,53.64,49.36,97.77,91.37,128.62c7.05,5.19,14.34,10,21.88,14.42l10.33-22.42l5.4-11.71c0.06-0.18,0.15-0.35,0.25-0.52
		l0.96-2.07l36.16-78.44c0,0,0,0,0,0l1.96-4.37l3.29-7.33c-0.09-0.07-0.17-0.15-0.26-0.23c-24.09-21.36-39.28-52.54-39.28-87.26
		c0-47.92,28.92-89.09,70.25-107.01h0l1.23-3.14c0.03-0.01,0.05-0.02,0.08-0.03l3.61-9.34c-0.65,0.09-1.3,0.19-1.94,0.3
		c0.71-0.13,1.43-0.26,2.14-0.38L-1185.85-1985.16z M-1275.25-1633.75l1.02-2.3c0,0,0,0,0,0L-1275.25-1633.75z"/>
	<linearGradient id="SVGID_30_" gradientUnits="userSpaceOnUse" x1="-1265.5768" y1="-1834.1366" x2="-800.411" y2="-1534.844">
		<stop  offset="1.393105e-03" style="stop-color:#F30000"/>
		<stop  offset="0.4126" style="stop-color:#D70208"/>
		<stop  offset="1" style="stop-color:#A90614"/>
	</linearGradient>
	<path class="st35" d="M-1008.19-1572.03c1.03-0.49,2-1,2.94-1.56c13.02-7.68,17.45-20.51,17.45-20.51
		c4.52-14.14,20.39-14.37,20.39-14.37l345.53-21.67l-340.02-23.57l-0.65-0.04l-42.06-2.91l44.15-9.97c0.75-0.24,1.44-0.52,2.07-0.84
		c0.4-0.19,0.78-0.4,1.13-0.62c5.97-3.65,6.41-10.24,6.41-10.24l4.63-31.29c-0.59-17.73,18.3-12.51,18.3-12.51l347.62-22.14
		l-365.67-26.07l-6.34-0.46l-29.48-2.09l26.89-12.31c-0.85-4.09-1.82-8.18-2.9-12.27c-3.31,0.28-6.65,0.47-10,0.51
		c-10.83,0.19-21.85-0.87-32.84-3.22c-2.31-0.5-4.62-1.06-6.94-1.68c-0.1-0.01-0.21-0.04-0.31-0.07c-0.12-0.03-0.25-0.07-0.37-0.1
		l-45.37-12.15l-1.88,3.93l-41.33,86.4l-0.07-0.01c-0.38,4.94-1.07,9.81-2.06,14.58c-8.47,41.22-38.34,74.62-77.49,88.12
		l-49.73,56.55l-33.78,38.41l-9.4,10.7l-16.86,19.17c7.58,2.72,15.3,5.08,23.13,7.06c43.28,10.95,90.04,10.53,135.82-3.59
		c23.73-7.31,45.61-17.82,65.28-30.89l311.71-14.61l-268.74-18.51l-2.72-0.19l-31.31-2.15l37.31-10.09
		C-1012.98-1570-1010.48-1570.93-1008.19-1572.03z"/>
	<g>
		<linearGradient id="SVGID_31_" gradientUnits="userSpaceOnUse" x1="-1425.8901" y1="-1736.441" x2="-1304.5771" y2="-1736.441">
			<stop  offset="0" style="stop-color:#FFFFFF"/>
			<stop  offset="1" style="stop-color:#FFFFFF"/>
		</linearGradient>
		<path class="st36" d="M-1304.58-1934.13c-72.18,38.37-121.31,114.34-121.31,201.77c0,81.61,42.8,153.21,107.19,193.61l5.4-11.71
			c0.06-0.18,0.15-0.35,0.25-0.52l0.96-2.07c-59.67-41.19-98.77-110.04-98.77-188.05
			C-1410.87-1822.32-1368.47-1893.64-1304.58-1934.13z"/>
		<linearGradient id="SVGID_32_" gradientUnits="userSpaceOnUse" x1="-1269.3425" y1="-1521.6643" x2="-1075.4127" y2="-1521.6643">
			<stop  offset="0" style="stop-color:#FFFFFF"/>
			<stop  offset="0.9834" style="stop-color:#FFFFFF"/>
		</linearGradient>
		<path class="st37" d="M-1182.5-1512.73c-27.19,0-53.27-4.75-77.44-13.48l-9.4,10.7c22.58,7.47,46.74,11.52,71.82,11.52
			c44.91,0,86.8-12.96,122.11-35.35C-1107.35-1522.35-1143.79-1512.73-1182.5-1512.73z"/>
	</g>
</g>
<g>
	<linearGradient id="SVGID_33_" gradientUnits="userSpaceOnUse" x1="-350.8987" y1="-1795.6423" x2="2078.866" y2="-1692.0476">
		<stop  offset="1.393105e-03" style="stop-color:#F30000"/>
		<stop  offset="0.4126" style="stop-color:#D70208"/>
		<stop  offset="1" style="stop-color:#A90614"/>
	</linearGradient>
	<path class="st38" d="M-463.18-1652.31v-169.09h253.64c7.63,0,14.24-2.64,19.81-7.93c5.57-5.57,8.37-12.33,8.37-20.26v-28.18
		h-281.82v-56.36H-125v112.73c0,15.85-5.58,29.21-16.73,40.07c-11.16,10.86-24.37,16.29-39.63,16.29h-225.46v112.73H-463.18z"/>
	<linearGradient id="SVGID_34_" gradientUnits="userSpaceOnUse" x1="-350.1329" y1="-1813.6021" x2="2079.6318" y2="-1710.0074">
		<stop  offset="1.393105e-03" style="stop-color:#F30000"/>
		<stop  offset="0.4126" style="stop-color:#D70208"/>
		<stop  offset="1" style="stop-color:#A90614"/>
	</linearGradient>
	<path class="st39" d="M-68.64-1765.04v-169.09h56.37v169.09H-68.64z M-12.27-1652.31c-15.85,0-29.21-5.43-40.07-16.29
		c-10.86-11.15-16.29-24.51-16.29-40.07h338.18c0,15.85-5.58,29.21-16.73,40.07c-11.16,10.86-24.37,16.29-39.63,16.29H-12.27z
		 M213.18-1765.04v-169.09h56.36v169.09H213.18z"/>
	<linearGradient id="SVGID_35_" gradientUnits="userSpaceOnUse" x1="-349.7225" y1="-1823.2279" x2="2080.0422" y2="-1719.6333">
		<stop  offset="1.393105e-03" style="stop-color:#F30000"/>
		<stop  offset="0.4126" style="stop-color:#D70208"/>
		<stop  offset="1" style="stop-color:#A90614"/>
	</linearGradient>
	<path class="st40" d="M325.91-1652.31v-281.82h56.36v225.46h281.82c0,15.85-5.58,29.21-16.73,40.07
		c-11.16,10.86-24.37,16.29-39.63,16.29H325.91z"/>
	<linearGradient id="SVGID_36_" gradientUnits="userSpaceOnUse" x1="-348.7509" y1="-1846.016" x2="2081.0137" y2="-1742.4214">
		<stop  offset="1.393105e-03" style="stop-color:#F30000"/>
		<stop  offset="0.4126" style="stop-color:#D70208"/>
		<stop  offset="1" style="stop-color:#A90614"/>
	</linearGradient>
	<path class="st41" d="M720.46-1652.31c0-15.56,5.43-28.77,16.29-39.63c11.15-11.15,24.51-16.73,40.07-16.73h225.46v-56.36H720.46
		v-169.09h338.18c0,15.85-5.58,29.21-16.73,40.07c-11.16,10.86-24.37,16.29-39.63,16.29H776.82v56.36h281.82v169.09H720.46z"/>
	<linearGradient id="SVGID_37_" gradientUnits="userSpaceOnUse" x1="-347.9852" y1="-1863.9757" x2="2081.7795" y2="-1760.3811">
		<stop  offset="1.393105e-03" style="stop-color:#F30000"/>
		<stop  offset="0.4126" style="stop-color:#D70208"/>
		<stop  offset="1" style="stop-color:#A90614"/>
	</linearGradient>
	<path class="st42" d="M1171.37-1877.77c-15.85,0-29.21-5.43-40.07-16.29c-10.86-11.15-16.29-24.51-16.29-40.07h338.18
		c0,15.85-5.58,29.21-16.73,40.07c-11.16,10.86-24.37,16.29-39.63,16.29H1171.37z M1171.37-1765.04c-15.85,0-29.21-5.43-40.07-16.29
		c-10.86-11.15-16.29-24.51-16.29-40.07h338.18c0,15.85-5.58,29.21-16.73,40.07c-11.16,10.86-24.37,16.29-39.63,16.29H1171.37z
		 M1171.37-1652.31c-15.85,0-29.21-5.43-40.07-16.29c-10.86-11.15-16.29-24.51-16.29-40.07h338.18c0,15.85-5.58,29.21-16.73,40.07
		c-11.16,10.86-24.37,16.29-39.63,16.29H1171.37z"/>
	<path d="M1509.55-1934.13h56.36v56.36c0,15.85-5.58,29.21-16.73,40.07c-11.16,10.86-24.37,16.29-39.63,16.29V-1934.13z"/>
	<linearGradient id="SVGID_38_" gradientUnits="userSpaceOnUse" x1="-347.1146" y1="-1884.3959" x2="2082.6501" y2="-1780.8013">
		<stop  offset="1.393105e-03" style="stop-color:#F30000"/>
		<stop  offset="0.4126" style="stop-color:#D70208"/>
		<stop  offset="1" style="stop-color:#A90614"/>
	</linearGradient>
	<path class="st43" d="M1622.28-1652.31v-169.09h281.82v-56.36h-225.46c-15.56,0-28.92-5.43-40.07-16.29
		c-10.86-10.86-16.29-24.22-16.29-40.07h338.18v169.09h-281.82v56.36h225.46c15.26,0,28.47,5.58,39.63,16.73
		c11.15,10.86,16.73,24.07,16.73,39.63H1622.28z"/>
	<linearGradient id="SVGID_39_" gradientUnits="userSpaceOnUse" x1="-346.6032" y1="-1896.3895" x2="2083.1614" y2="-1792.7949">
		<stop  offset="1.393105e-03" style="stop-color:#F30000"/>
		<stop  offset="0.4126" style="stop-color:#D70208"/>
		<stop  offset="1" style="stop-color:#A90614"/>
	</linearGradient>
	<path class="st44" d="M2169.18-1691.94c-10.86-11.15-24.07-16.73-39.63-16.73v-169.09v-1.18v-55.18h-112.73
		c0,15.56,5.43,28.92,16.29,40.07c10.86,10.86,24.22,16.29,40.07,16.29v169.09h-56.36v56.36h169.09
		C2185.92-1667.57,2180.33-1680.78,2169.18-1691.94z"/>
</g>
<g>
	<g>
		<path class="st45" d="M-945.38-584.26c-3.65-1.65-7.46-2.99-11.4-4.05l-32.17-8.62l-261.69-70.12l-0.01,0.03l34.33,62.66
			l158.02,42.34c0,0,0,0,0,0l27.32,7.32l60.84,16.3l0-0.01c0.54,0.15,1.06,0.29,1.58,0.48c12.05,4.1,19.01,16.9,15.67,29.39
			c-3.5,13.05-16.86,20.76-29.88,17.27l-88.17-23.63v0.01l-5-1.34l-85.02-22.79l-18.2,48.28l79.84,21.39l38.77,10.39l10.02,2.69
			l47.84,12.81c0.01,0.01,0.04,0.01,0.06,0.01c0.47,0.18,0.93,0.35,1.4,0.5c1.66,0.59,3.35,1.09,5.09,1.56
			c2.21,0.59,4.44,1.1,6.66,1.47l0.6,0.16l0.01-0.06c38.16,6.36,75.65-17.23,85.86-55.38C-893.19-531.77-911.83-569.3-945.38-584.26
			z"/>
		<polygon class="st45" points="-1075.94,-516.21 -1099.32,-469.32 -1109.44,-449 -1118.21,-431.38 -1121.61,-424.57 
			-1155.09,-357.35 -1188.22,-290.85 -1121.61,-271.88 -1281.55,-91.58 -1291.44,-80.43 -1293.21,-78.45 -1303.56,-66.78 
			-1316.69,-51.98 -1320.5,-47.68 -1325.75,-41.77 -1327.07,-40.27 -1322.98,-49.23 -1322.3,-50.7 -1316.17,-64.1 -1305.52,-87.39 
			-1299.24,-101.09 -1239.14,-232.42 -1273.15,-241.53 -1222.63,-375.45 -1196.53,-444.65 -1187.05,-469.79 -1179.16,-490.71 
			-1160.96,-539 		"/>
		<linearGradient id="SVGID_40_" gradientUnits="userSpaceOnUse" x1="-1235.0909" y1="-542.4305" x2="-705.0184" y2="-351.3159">
			<stop  offset="1.393105e-03" style="stop-color:#F30000"/>
			<stop  offset="0.4126" style="stop-color:#D70208"/>
			<stop  offset="1" style="stop-color:#A90614"/>
		</linearGradient>
		<path class="st46" d="M-927.22-652.07c-3.65-1.3-7.4-2.48-11.22-3.5l0-0.01l-0.29-0.08c0,0-0.01,0-0.01,0c-0.01,0-0.01,0-0.02,0
			l-360.93-96.71l-0.08,0.29l34.6,62.13l205.84,55.16c0,0,0,0,0,0l68.66,18.4l38.66,10.36c50.35,13.52,80.23,65.29,66.75,115.65
			c-12.2,45.49-55.58,74.26-100.95,69.5c-4.84-0.5-9.7-1.38-14.54-2.68c-0.03-0.01-0.06-0.01-0.09-0.02
			c-0.03-0.01-0.06-0.01-0.09-0.02l-34.01-9.11l-34.01-9.11l-21.08-5.65l-0.04-0.01l-7.59,13.74l-2.32,4.22l-14.34,28.7l-3.68,7.36
			l-52.07,95.12l52.22,13.85l55.95-100.28l0.85-1.78l3.34-6.99l0.06-0.13l0,0l0,0l-0.06,0.13l-3.34,6.99l46.46,12.45
			c0.06,0.01,0.12,0.03,0.18,0.05c0.06,0.02,0.12,0.04,0.18,0.05c0.05,0.01,0.1,0.02,0.15,0.04c0.05,0.01,0.1,0.03,0.15,0.04
			l6.9,1.85l0.04-0.18l0,0c14.95,3.21,29.92,3.99,44.46,2.57c58.8-5.65,110.66-46.99,126.86-107.43
			C-815.85-550.96-856.47-626.77-927.22-652.07z"/>
		<g>
			<path class="st4" d="M-1316.52-26.2l-6.83-4.27v0.01l-1.37,2.16l-2.28,3.66l-0.01,0.01l-5.74,9.19c-0.96,1.54-0.49,3.56,1.04,4.5
				l1.29,0.81c0,0,0.01,0,0.01,0.01l1.87,1.16c1.52,0.97,3.55,0.5,4.5-1.04l5.72-9.21l0.01-0.01l2.28-3.65l1.37-2.19L-1316.52-26.2z
				"/>
			<path class="st4" d="M-1323.35-30.46l-1.88-1.18l-1.35,2.18l-2.31,3.65v0.01l-5.74,9.21c-0.96,1.53-0.49,3.55,1.04,4.5l1.88,1.16
				l1.29,0.81c0,0,0.01,0,0.01,0.01c1.52,0.96,3.53,0.49,4.49-1.06l5.74-9.21l2.28-3.66l1.37-2.18L-1323.35-30.46z M-1330.68-13.21
				c-1.04-0.66-1.35-2.02-0.71-3.06c0.65-1.04,2.02-1.37,3.06-0.71c0.03,0.01,0.06,0.04,0.09,0.06c0.96,0.68,1.24,1.99,0.62,2.99
				c-0.28,0.44-0.68,0.75-1.12,0.91C-1329.35-12.79-1330.07-12.83-1330.68-13.21z"/>
		</g>
		<g>
			<path class="st4" d="M-1335.35-37.94l-3.56-2.22l-3.27-2.04v0.01l-1.37,2.16l-2.28,3.66l-5.75,9.21
				c-0.96,1.54-0.49,3.56,1.06,4.5l1.28,0.81c0,0,0.01,0,0.01,0.01l1.87,1.16c1.53,0.97,3.55,0.5,4.5-1.04l5.75-9.21l2.28-3.66
				l1.35-2.18L-1335.35-37.94z"/>
			<path class="st4" d="M-1338.91-40.17l-3.27-2.03l-1.88-1.18l-1.35,2.18l-2.3,3.66l-5.75,9.21c-0.96,1.53-0.49,3.55,1.06,4.52
				l1.88,1.15l1.28,0.81c0,0,0.01,0,0.01,0.01c1.53,0.96,3.53,0.49,4.49-1.06l5.74-9.21l2.28-3.66v-0.01l1.37-2.16L-1338.91-40.17z
				 M-1349.51-24.95c-1.03-0.66-1.35-2.02-0.71-3.06s2.02-1.37,3.06-0.71c0.03,0.01,0.06,0.04,0.09,0.06c0.01,0,0.01,0,0.01,0
				c0.96,0.69,1.22,1.99,0.6,2.99c-0.28,0.44-0.68,0.75-1.12,0.91C-1348.18-24.53-1348.9-24.57-1349.51-24.95z"/>
		</g>
		<path class="st5" d="M-1343.28-53.92c1.97-3.17,6.14-4.13,9.31-2.16l24.6,15.34c3.17,1.97,4.13,6.14,2.16,9.31l-6.31,10.12
			l-36.06-22.49L-1343.28-53.92z"/>
		<path class="st6" d="M-1343.23-53.99c1.95-3.13,6.07-4.08,9.19-2.13l9.6,5.98c-3.28-2.05-7.6-1.05-9.65,2.24l-6.18,9.91
			l-9.31-5.81L-1343.23-53.99z"/>
		<path class="st7" d="M-1352.74-40.68l37.8,23.57c0.62,0.38,1.42,0.2,1.81-0.42l3.18-5.1c0.38-0.62,0.2-1.42-0.42-1.81l-37.8-23.57
			c-0.61-0.38-1.42-0.2-1.81,0.42l-3.18,5.1C-1353.54-41.87-1353.36-41.06-1352.74-40.68z"/>
		<circle class="st1" cx="-1346.3" cy="-26.58" r="2.22"/>
		<linearGradient id="SVGID_41_" gradientUnits="userSpaceOnUse" x1="-1465.5546" y1="-366.0687" x2="-1223.9569" y2="-297.5559">
			<stop  offset="1.393105e-03" style="stop-color:#F30000"/>
			<stop  offset="0.4126" style="stop-color:#D70208"/>
			<stop  offset="1" style="stop-color:#A90614"/>
		</linearGradient>
		<path class="st47" d="M-1185.85-541.47c-29.56-1.85-59.94,1.52-89.92,10.77c-132.98,41-207.52,182.04-166.51,315.02
			c16.54,53.64,49.36,97.77,91.37,128.62c7.05,5.19,14.34,10,21.88,14.42l10.33-22.42l5.4-11.71c0.06-0.18,0.15-0.35,0.25-0.52
			l0.96-2.07l36.16-78.44c0,0,0,0,0,0l1.96-4.37l3.29-7.33c-0.09-0.07-0.17-0.15-0.26-0.23c-24.09-21.36-39.28-52.54-39.28-87.26
			c0-47.92,28.92-89.09,70.25-107.01h0l1.23-3.14c0.03-0.01,0.05-0.02,0.08-0.03l3.61-9.34c-0.65,0.09-1.3,0.19-1.94,0.3
			c0.71-0.13,1.43-0.26,2.14-0.38L-1185.85-541.47z M-1275.25-190.05l1.02-2.3c0,0,0,0,0,0L-1275.25-190.05z"/>
		<linearGradient id="SVGID_42_" gradientUnits="userSpaceOnUse" x1="-1265.5768" y1="-390.4398" x2="-800.411" y2="-91.1472">
			<stop  offset="1.393105e-03" style="stop-color:#F30000"/>
			<stop  offset="0.4126" style="stop-color:#D70208"/>
			<stop  offset="1" style="stop-color:#A90614"/>
		</linearGradient>
		<path class="st48" d="M-1008.19-128.33c1.03-0.49,2-1,2.94-1.56c13.02-7.68,17.45-20.51,17.45-20.51
			c4.52-14.14,20.39-14.37,20.39-14.37l345.53-21.67l-340.02-23.57l-0.65-0.04l-42.06-2.91l44.15-9.97
			c0.75-0.24,1.44-0.52,2.07-0.84c0.4-0.19,0.78-0.4,1.13-0.62c5.97-3.65,6.41-10.24,6.41-10.24l4.63-31.29
			c-0.59-17.73,18.3-12.5,18.3-12.5l347.62-22.14l-365.67-26.07l-6.34-0.46l-29.48-2.09l26.89-12.31c-0.85-4.09-1.82-8.18-2.9-12.27
			c-3.31,0.28-6.65,0.47-10,0.51c-10.83,0.19-21.85-0.87-32.84-3.22c-2.31-0.5-4.62-1.06-6.94-1.68c-0.1-0.01-0.21-0.04-0.31-0.07
			c-0.12-0.03-0.25-0.07-0.37-0.1l-45.37-12.15l-1.88,3.93l-41.33,86.4l-0.07-0.01c-0.38,4.94-1.07,9.81-2.06,14.58
			c-8.47,41.22-38.34,74.62-77.49,88.12l-49.73,56.55l-33.78,38.41l-9.4,10.7l-16.86,19.17c7.58,2.72,15.3,5.08,23.13,7.06
			c43.28,10.95,90.04,10.53,135.82-3.59c23.73-7.31,45.61-17.82,65.28-30.89l311.71-14.61l-268.74-18.51l-2.72-0.19l-31.31-2.15
			l37.31-10.09C-1012.98-126.3-1010.48-127.23-1008.19-128.33z"/>
		<g>
			<linearGradient id="SVGID_43_" gradientUnits="userSpaceOnUse" x1="-1425.8901" y1="-292.7442" x2="-1304.5771" y2="-292.7442">
				<stop  offset="0" style="stop-color:#FFFFFF"/>
				<stop  offset="1" style="stop-color:#FFFFFF"/>
			</linearGradient>
			<path class="st49" d="M-1304.58-490.43c-72.18,38.37-121.31,114.34-121.31,201.77c0,81.61,42.8,153.21,107.19,193.61l5.4-11.71
				c0.06-0.18,0.15-0.35,0.25-0.52l0.96-2.07c-59.67-41.19-98.77-110.04-98.77-188.05
				C-1410.87-378.62-1368.47-449.95-1304.58-490.43z"/>
			<linearGradient id="SVGID_44_" gradientUnits="userSpaceOnUse" x1="-1269.3425" y1="-77.9676" x2="-1075.4127" y2="-77.9676">
				<stop  offset="0" style="stop-color:#FFFFFF"/>
				<stop  offset="0.9834" style="stop-color:#FFFFFF"/>
			</linearGradient>
			<path class="st50" d="M-1182.5-69.03c-27.19,0-53.27-4.75-77.44-13.48l-9.4,10.7c22.58,7.47,46.74,11.52,71.82,11.52
				c44.91,0,86.8-12.96,122.11-35.35C-1107.35-78.65-1143.79-69.03-1182.5-69.03z"/>
		</g>
	</g>
	<g>
		<linearGradient id="SVGID_45_" gradientUnits="userSpaceOnUse" x1="-350.8987" y1="-351.9455" x2="2078.866" y2="-248.3509">
			<stop  offset="1.393105e-03" style="stop-color:#F30000"/>
			<stop  offset="0.4126" style="stop-color:#D70208"/>
			<stop  offset="1" style="stop-color:#A90614"/>
		</linearGradient>
		<path class="st51" d="M-463.18-208.61v-169.09h253.64c7.63,0,14.24-2.64,19.81-7.93c5.57-5.57,8.37-12.33,8.37-20.26v-28.18
			h-281.82v-56.36H-125v112.73c0,15.85-5.58,29.21-16.73,40.07c-11.16,10.86-24.37,16.29-39.63,16.29h-225.46v112.73H-463.18z"/>
		<linearGradient id="SVGID_46_" gradientUnits="userSpaceOnUse" x1="-350.1329" y1="-369.9052" x2="2079.6318" y2="-266.3106">
			<stop  offset="1.393105e-03" style="stop-color:#F30000"/>
			<stop  offset="0.4126" style="stop-color:#D70208"/>
			<stop  offset="1" style="stop-color:#A90614"/>
		</linearGradient>
		<path class="st52" d="M-68.64-321.34v-169.09h56.37v169.09H-68.64z M-12.27-208.61c-15.85,0-29.21-5.43-40.07-16.29
			c-10.86-11.15-16.29-24.51-16.29-40.07h338.18c0,15.85-5.58,29.21-16.73,40.07c-11.16,10.86-24.37,16.29-39.63,16.29H-12.27z
			 M213.18-321.34v-169.09h56.36v169.09H213.18z"/>
		<linearGradient id="SVGID_47_" gradientUnits="userSpaceOnUse" x1="-349.7225" y1="-379.5312" x2="2080.0422" y2="-275.9365">
			<stop  offset="1.393105e-03" style="stop-color:#F30000"/>
			<stop  offset="0.4126" style="stop-color:#D70208"/>
			<stop  offset="1" style="stop-color:#A90614"/>
		</linearGradient>
		<path class="st53" d="M325.91-208.61v-281.82h56.36v225.46h281.82c0,15.85-5.58,29.21-16.73,40.07
			c-11.16,10.86-24.37,16.29-39.63,16.29H325.91z"/>
		<linearGradient id="SVGID_48_" gradientUnits="userSpaceOnUse" x1="-348.7509" y1="-402.3192" x2="2081.0137" y2="-298.7246">
			<stop  offset="1.393105e-03" style="stop-color:#F30000"/>
			<stop  offset="0.4126" style="stop-color:#D70208"/>
			<stop  offset="1" style="stop-color:#A90614"/>
		</linearGradient>
		<path class="st54" d="M720.46-208.61c0-15.56,5.43-28.77,16.29-39.63c11.15-11.15,24.51-16.73,40.07-16.73h225.46v-56.36H720.46
			v-169.09h338.18c0,15.85-5.58,29.21-16.73,40.07c-11.16,10.86-24.37,16.29-39.63,16.29H776.82v56.36h281.82v169.09H720.46z"/>
		<linearGradient id="SVGID_49_" gradientUnits="userSpaceOnUse" x1="-347.9852" y1="-420.2789" x2="2081.7795" y2="-316.6843">
			<stop  offset="1.393105e-03" style="stop-color:#F30000"/>
			<stop  offset="0.4126" style="stop-color:#D70208"/>
			<stop  offset="1" style="stop-color:#A90614"/>
		</linearGradient>
		<path class="st55" d="M1171.37-434.07c-15.85,0-29.21-5.43-40.07-16.29c-10.86-11.15-16.29-24.51-16.29-40.07h338.18
			c0,15.85-5.58,29.21-16.73,40.07c-11.16,10.86-24.37,16.29-39.63,16.29H1171.37z M1171.37-321.34c-15.85,0-29.21-5.43-40.07-16.29
			c-10.86-11.15-16.29-24.51-16.29-40.07h338.18c0,15.85-5.58,29.21-16.73,40.07c-11.16,10.86-24.37,16.29-39.63,16.29H1171.37z
			 M1171.37-208.61c-15.85,0-29.21-5.43-40.07-16.29c-10.86-11.15-16.29-24.51-16.29-40.07h338.18c0,15.85-5.58,29.21-16.73,40.07
			c-11.16,10.86-24.37,16.29-39.63,16.29H1171.37z"/>
		<path class="st45" d="M1509.55-490.43h56.36v56.36c0,15.85-5.58,29.21-16.73,40.07c-11.16,10.86-24.37,16.29-39.63,16.29V-490.43z
			"/>
		<linearGradient id="SVGID_50_" gradientUnits="userSpaceOnUse" x1="-347.1146" y1="-440.6991" x2="2082.6501" y2="-337.1045">
			<stop  offset="1.393105e-03" style="stop-color:#F30000"/>
			<stop  offset="0.4126" style="stop-color:#D70208"/>
			<stop  offset="1" style="stop-color:#A90614"/>
		</linearGradient>
		<path class="st56" d="M1622.28-208.61v-169.09h281.82v-56.36h-225.46c-15.56,0-28.92-5.43-40.07-16.29
			c-10.86-10.86-16.29-24.22-16.29-40.07h338.18v169.09h-281.82v56.36h225.46c15.26,0,28.47,5.58,39.63,16.73
			c11.15,10.86,16.73,24.07,16.73,39.63H1622.28z"/>
		<linearGradient id="SVGID_51_" gradientUnits="userSpaceOnUse" x1="-346.6032" y1="-452.6927" x2="2083.1614" y2="-349.0981">
			<stop  offset="1.393105e-03" style="stop-color:#F30000"/>
			<stop  offset="0.4126" style="stop-color:#D70208"/>
			<stop  offset="1" style="stop-color:#A90614"/>
		</linearGradient>
		<path class="st57" d="M2169.18-248.25c-10.86-11.15-24.07-16.73-39.63-16.73v-169.09v-1.18v-55.18h-112.73
			c0,15.56,5.43,28.92,16.29,40.07c10.86,10.86,24.22,16.29,40.07,16.29v169.09h-56.36v56.36h169.09
			C2185.92-223.87,2180.33-237.08,2169.18-248.25z"/>
	</g>
</g>
<g>
	<path class="st45" d="M508.16,168.11c-3.65-1.65-7.46-2.99-11.4-4.05l-32.17-8.62L202.9,85.33l-0.01,0.03l34.33,62.66l158.02,42.34
		c0,0,0,0,0,0l27.32,7.32l60.84,16.3l0-0.01c0.54,0.15,1.06,0.29,1.58,0.48c12.05,4.1,19.01,16.9,15.67,29.39
		c-3.5,13.05-16.86,20.76-29.88,17.27l-88.17-23.63v0.01l-5-1.34l-85.02-22.79l-18.2,48.28l79.84,21.39l38.77,10.39l10.02,2.69
		l47.84,12.81c0.01,0.01,0.04,0.01,0.06,0.01c0.47,0.18,0.93,0.35,1.4,0.5c1.66,0.59,3.35,1.09,5.09,1.56
		c2.21,0.59,4.44,1.1,6.66,1.47l0.6,0.16l0.01-0.06c38.16,6.36,75.65-17.23,85.86-55.38C560.35,220.6,541.71,183.07,508.16,168.11z"
		/>
	<polygon class="st45" points="377.6,236.17 354.22,283.05 344.1,303.37 335.33,320.99 331.93,327.81 298.45,395.02 265.32,461.52 
		331.93,480.5 171.99,660.79 162.1,671.94 160.33,673.93 149.98,685.59 136.85,700.39 133.04,704.69 127.79,710.6 126.47,712.11 
		130.56,703.15 131.24,701.67 137.37,688.27 148.02,664.98 154.3,651.29 214.4,519.96 180.39,510.85 230.91,376.93 257.01,307.72 
		266.49,282.58 274.38,261.66 292.58,213.38 	"/>
	<linearGradient id="SVGID_52_" gradientUnits="userSpaceOnUse" x1="218.449" y1="209.9437" x2="748.5215" y2="401.0583">
		<stop  offset="1.393105e-03" style="stop-color:#F30000"/>
		<stop  offset="0.4126" style="stop-color:#D70208"/>
		<stop  offset="1" style="stop-color:#A90614"/>
	</linearGradient>
	<path class="st58" d="M526.32,100.3c-3.65-1.3-7.4-2.48-11.22-3.5l0-0.01l-0.29-0.08c0,0-0.01,0-0.01,0c-0.01,0-0.01,0-0.02,0
		L153.86,0l-0.08,0.29l34.6,62.13l205.84,55.16c0,0,0,0,0,0l68.66,18.4l38.66,10.36c50.35,13.52,80.23,65.29,66.75,115.65
		c-12.2,45.49-55.58,74.26-100.95,69.5c-4.84-0.5-9.69-1.38-14.54-2.68c-0.03-0.01-0.06-0.01-0.09-0.02
		c-0.03-0.01-0.06-0.01-0.09-0.02l-34.01-9.11l-34.01-9.11l-21.08-5.65l-0.04-0.01l-7.59,13.74l-2.32,4.22l-14.34,28.7l-3.68,7.36
		l-52.07,95.12l52.22,13.85l55.95-100.28l0.85-1.78l3.34-6.99l0.06-0.13l0,0l0,0l-0.06,0.13l-3.34,6.99l46.46,12.45
		c0.06,0.01,0.12,0.03,0.18,0.05c0.06,0.02,0.13,0.04,0.18,0.05c0.05,0.01,0.1,0.02,0.15,0.04c0.05,0.01,0.1,0.03,0.15,0.04
		l6.9,1.85l0.04-0.18l0,0c14.95,3.21,29.92,3.99,44.46,2.57c58.8-5.65,110.66-46.99,126.86-107.43
		C637.69,201.42,597.07,125.61,526.32,100.3z"/>
	<g>
		<path class="st4" d="M137.02,726.17l-6.83-4.27v0.01l-1.37,2.16l-2.28,3.66l-0.01,0.01l-5.74,9.19c-0.96,1.54-0.49,3.56,1.04,4.5
			l1.29,0.81c0,0,0.01,0,0.01,0.01l1.87,1.16c1.52,0.97,3.55,0.5,4.5-1.04l5.72-9.21l0.01-0.01l2.28-3.65l1.37-2.19L137.02,726.17z"
			/>
		<path class="st4" d="M130.19,721.92l-1.88-1.18l-1.35,2.18l-2.31,3.65v0.01l-5.74,9.21c-0.96,1.53-0.49,3.55,1.04,4.5l1.88,1.16
			l1.29,0.81c0,0,0.01,0,0.01,0.01c1.52,0.96,3.53,0.49,4.49-1.06l5.74-9.21l2.28-3.66l1.37-2.18L130.19,721.92z M122.86,739.16
			c-1.04-0.66-1.35-2.02-0.71-3.06c0.65-1.04,2.02-1.37,3.06-0.71c0.03,0.01,0.06,0.04,0.09,0.06c0.96,0.68,1.24,1.99,0.62,2.99
			c-0.28,0.44-0.68,0.75-1.12,0.91C124.19,739.59,123.47,739.54,122.86,739.16z"/>
	</g>
	<g>
		<path class="st4" d="M118.19,714.43l-3.56-2.22l-3.27-2.04v0.01l-1.37,2.16l-2.28,3.66l-5.75,9.21c-0.96,1.54-0.49,3.56,1.06,4.5
			l1.28,0.81c0,0,0.01,0,0.01,0.01l1.87,1.16c1.53,0.97,3.55,0.5,4.5-1.04l5.75-9.21l2.28-3.66l1.35-2.18L118.19,714.43z"/>
		<path class="st4" d="M114.63,712.21l-3.27-2.03l-1.88-1.18l-1.35,2.18l-2.3,3.66l-5.75,9.21c-0.96,1.53-0.49,3.55,1.06,4.52
			l1.88,1.15l1.28,0.81c0,0,0.01,0,0.01,0.01c1.53,0.96,3.53,0.49,4.49-1.06l5.74-9.21l2.28-3.66v-0.01l1.37-2.16L114.63,712.21z
			 M104.03,727.42c-1.03-0.66-1.35-2.02-0.71-3.06c0.65-1.04,2.02-1.37,3.06-0.71c0.03,0.01,0.06,0.04,0.09,0.06
			c0.01,0,0.01,0,0.01,0c0.96,0.69,1.22,1.99,0.6,2.99c-0.28,0.44-0.68,0.75-1.12,0.91C105.36,727.85,104.64,727.8,104.03,727.42z"
			/>
	</g>
	<path class="st5" d="M110.26,698.46c1.97-3.17,6.14-4.13,9.31-2.16l24.6,15.34c3.17,1.97,4.13,6.14,2.16,9.31l-6.31,10.12
		l-36.06-22.49L110.26,698.46z"/>
	<path class="st6" d="M110.31,698.38c1.95-3.13,6.07-4.08,9.19-2.13l9.6,5.98c-3.28-2.05-7.6-1.05-9.65,2.24l-6.18,9.91l-9.31-5.81
		L110.31,698.38z"/>
	<path class="st7" d="M100.8,711.7l37.8,23.57c0.62,0.38,1.42,0.2,1.81-0.42l3.18-5.1c0.38-0.62,0.2-1.42-0.42-1.81l-37.8-23.57
		c-0.62-0.38-1.42-0.2-1.81,0.42l-3.18,5.1C100,710.51,100.18,711.32,100.8,711.7z"/>
	<circle class="st1" cx="107.24" cy="725.8" r="2.22"/>
	<linearGradient id="SVGID_53_" gradientUnits="userSpaceOnUse" x1="-12.0147" y1="386.3055" x2="229.583" y2="454.8183">
		<stop  offset="1.393105e-03" style="stop-color:#F30000"/>
		<stop  offset="0.4126" style="stop-color:#D70208"/>
		<stop  offset="1" style="stop-color:#A90614"/>
	</linearGradient>
	<path class="st59" d="M267.69,210.91c-29.56-1.85-59.94,1.52-89.92,10.77C44.79,262.68-29.76,403.72,11.26,536.7
		c16.54,53.64,49.36,97.77,91.37,128.62c7.05,5.19,14.34,10,21.88,14.42l10.33-22.42l5.4-11.71c0.06-0.18,0.15-0.35,0.25-0.52
		l0.96-2.07l36.16-78.44c0,0,0,0,0,0l1.96-4.37l3.29-7.33c-0.09-0.07-0.17-0.15-0.26-0.23c-24.09-21.36-39.27-52.54-39.27-87.26
		c0-47.92,28.92-89.09,70.25-107.01h0l1.23-3.14c0.03-0.01,0.05-0.02,0.08-0.03l3.61-9.34c-0.65,0.09-1.3,0.19-1.94,0.3
		c0.71-0.13,1.43-0.26,2.14-0.38L267.69,210.91z M178.29,562.32l1.02-2.3c0,0,0,0,0,0L178.29,562.32z"/>
	<linearGradient id="SVGID_54_" gradientUnits="userSpaceOnUse" x1="187.9632" y1="361.9343" x2="653.1289" y2="661.227">
		<stop  offset="1.393105e-03" style="stop-color:#F30000"/>
		<stop  offset="0.4126" style="stop-color:#D70208"/>
		<stop  offset="1" style="stop-color:#A90614"/>
	</linearGradient>
	<path class="st60" d="M445.35,624.04c1.03-0.49,2-1,2.94-1.56c13.02-7.68,17.45-20.51,17.45-20.51
		c4.52-14.14,20.39-14.37,20.39-14.37l345.53-21.67l-340.02-23.57l-0.65-0.04l-42.06-2.91l44.15-9.97c0.75-0.24,1.44-0.52,2.07-0.84
		c0.4-0.19,0.78-0.4,1.13-0.62c5.97-3.65,6.41-10.24,6.41-10.24l4.63-31.29c-0.59-17.73,18.3-12.5,18.3-12.5l347.62-22.14
		l-365.67-26.07l-6.34-0.46l-29.48-2.09l26.89-12.31c-0.85-4.09-1.82-8.18-2.9-12.27c-3.31,0.28-6.65,0.47-10,0.51
		c-10.83,0.19-21.85-0.87-32.84-3.22c-2.31-0.5-4.62-1.06-6.94-1.68c-0.1-0.01-0.21-0.04-0.31-0.07c-0.12-0.03-0.25-0.07-0.37-0.1
		l-45.37-12.15l-1.88,3.93l-41.33,86.4l-0.07-0.01c-0.38,4.94-1.07,9.81-2.06,14.58c-8.47,41.22-38.34,74.62-77.49,88.12
		l-49.73,56.55l-33.78,38.41l-9.4,10.7l-16.86,19.17c7.58,2.72,15.3,5.08,23.13,7.06c43.28,10.95,90.04,10.53,135.82-3.59
		c23.73-7.31,45.61-17.82,65.28-30.89l311.71-14.61l-268.74-18.51l-2.72-0.19l-31.31-2.15l37.31-10.09
		C440.56,626.07,443.06,625.14,445.35,624.04z"/>
	<g>
		<linearGradient id="SVGID_55_" gradientUnits="userSpaceOnUse" x1="27.6498" y1="459.6299" x2="148.9628" y2="459.6299">
			<stop  offset="0" style="stop-color:#FFFFFF"/>
			<stop  offset="1" style="stop-color:#FFFFFF"/>
		</linearGradient>
		<path class="st61" d="M148.96,261.94C76.79,300.31,27.65,376.28,27.65,463.71c0,81.61,42.8,153.21,107.19,193.61l5.4-11.71
			c0.06-0.18,0.15-0.35,0.25-0.52l0.96-2.07c-59.67-41.19-98.77-110.04-98.77-188.05C42.67,373.75,85.07,302.43,148.96,261.94z"/>
		<linearGradient id="SVGID_56_" gradientUnits="userSpaceOnUse" x1="184.1974" y1="674.4066" x2="378.1273" y2="674.4066">
			<stop  offset="0" style="stop-color:#FFFFFF"/>
			<stop  offset="0.9834" style="stop-color:#FFFFFF"/>
		</linearGradient>
		<path class="st62" d="M271.04,683.34c-27.19,0-53.27-4.75-77.44-13.48l-9.4,10.7c22.58,7.47,46.74,11.52,71.82,11.52
			c44.91,0,86.8-12.96,122.11-35.35C346.19,673.72,309.75,683.34,271.04,683.34z"/>
	</g>
</g>
</svg>
