<?xml version="1.0" encoding="utf-8"?>
<!-- Generator: Adobe Illustrator 24.2.3, SVG Export Plug-In . SVG Version: 6.00 Build 0)  -->
<svg version="1.1" id="Layer_1" xmlns="http://www.w3.org/2000/svg" xmlns:xlink="http://www.w3.org/1999/xlink" x="0px" y="0px"
	 viewBox="0 0 3639.46 743.95" style="enable-background:new 0 0 3639.46 743.95;" xml:space="preserve">
<style type="text/css">
	.st0{fill:url(#SVGID_1_);}
	.st1{fill:#1F1F1F;}
	.st2{fill:#141414;}
	.st3{fill:url(#SVGID_2_);}
	.st4{fill:#656464;}
	.st5{fill:#262626;}
	.st6{fill:#B82025;}
	.st7{fill:#CC2127;}
	.st8{fill:url(#SVGID_3_);}
	.st9{fill:url(#SVGID_4_);}
	.st10{fill:url(#SVGID_5_);}
	.st11{fill:url(#SVGID_6_);}
	.st12{fill:url(#SVGID_7_);}
	.st13{fill:url(#SVGID_8_);}
	.st14{fill:url(#SVGID_9_);}
	.st15{fill:url(#SVGID_10_);}
	.st16{fill:url(#SVGID_11_);}
	.st17{fill:url(#SVGID_12_);}
	.st18{fill:url(#SVGID_13_);}
	.st19{fill:url(#SVGID_14_);}
	.st20{fill:url(#SVGID_15_);}
	.st21{fill:url(#SVGID_16_);}
	.st22{fill:url(#SVGID_17_);}
	.st23{fill:url(#SVGID_18_);}
	.st24{fill:url(#SVGID_19_);}
	.st25{fill:url(#SVGID_20_);}
	.st26{fill:url(#SVGID_21_);}
	.st27{fill:url(#SVGID_22_);}
	.st28{fill:url(#SVGID_23_);}
	.st29{fill:url(#SVGID_24_);}
	.st30{fill:url(#SVGID_25_);}
	.st31{fill:url(#SVGID_26_);}
	.st32{fill:url(#SVGID_27_);}
	.st33{fill:url(#SVGID_28_);}
	.st34{fill:url(#SVGID_29_);}
	.st35{fill:url(#SVGID_30_);}
	.st36{fill:url(#SVGID_31_);}
	.st37{fill:url(#SVGID_32_);}
	.st38{fill:url(#SVGID_33_);}
	.st39{fill:url(#SVGID_34_);}
	.st40{fill:url(#SVGID_35_);}
	.st41{fill:url(#SVGID_36_);}
	.st42{fill:url(#SVGID_37_);}
	.st43{fill:url(#SVGID_38_);}
	.st44{fill:url(#SVGID_39_);}
	.st45{fill:#FFFFFF;}
	.st46{fill:url(#SVGID_40_);}
	.st47{fill:url(#SVGID_41_);}
	.st48{fill:url(#SVGID_42_);}
	.st49{fill:url(#SVGID_43_);}
	.st50{fill:url(#SVGID_44_);}
	.st51{fill:url(#SVGID_45_);}
	.st52{fill:url(#SVGID_46_);}
	.st53{fill:url(#SVGID_47_);}
	.st54{fill:url(#SVGID_48_);}
	.st55{fill:url(#SVGID_49_);}
	.st56{fill:url(#SVGID_50_);}
	.st57{fill:url(#SVGID_51_);}
	.st58{fill:url(#SVGID_52_);}
	.st59{fill:url(#SVGID_53_);}
	.st60{fill:url(#SVGID_54_);}
	.st61{fill:url(#SVGID_55_);}
	.st62{fill:url(#SVGID_56_);}
</style>
<radialGradient id="SVGID_1_" cx="9006.584" cy="5760.5723" r="256.145" fx="8829.7256" fy="5768.1802" gradientTransform="matrix(-1.5044 0.0204 1.543144e-03 0.1138 15454.083 -3503.6428)" gradientUnits="userSpaceOnUse">
	<stop  offset="5.650000e-03" style="stop-color:#C3C6C7"/>
	<stop  offset="0.2127" style="stop-color:#D2D4D5"/>
	<stop  offset="0.7205" style="stop-color:#F3F3F4"/>
	<stop  offset="1" style="stop-color:#FFFFFF"/>
</radialGradient>
<path class="st0" d="M1524.18-2660.51c0.22,16.08,173.06,26.75,386.07,23.86c213.04-2.89,385.54-18.24,385.32-34.32
	c-0.22-16.09-173.08-26.8-386.11-23.92C1696.45-2691.99,1523.96-2676.6,1524.18-2660.51z"/>
<circle class="st1" cx="126.07" cy="-1193.3" r="2.22"/>
<g>
	<path class="st2" d="M508.16-1762.72c-3.65-1.65-7.46-2.99-11.4-4.05l-32.17-8.62l-261.69-70.12l-0.01,0.03l34.33,62.66
		l158.02,42.34c0,0,0,0,0,0l27.32,7.32l60.84,16.3l0-0.01c0.54,0.15,1.06,0.29,1.58,0.48c12.05,4.1,19.01,16.9,15.67,29.39
		c-3.5,13.05-16.86,20.76-29.88,17.27l-88.17-23.63v0.01l-5-1.34l-85.02-22.79l-18.2,48.28l79.84,21.39l38.77,10.39l10.02,2.69
		l47.84,12.81c0.01,0.01,0.04,0.01,0.06,0.01c0.47,0.18,0.93,0.35,1.4,0.5c1.66,0.59,3.35,1.09,5.09,1.56
		c2.21,0.59,4.44,1.1,6.66,1.47l0.6,0.16l0.01-0.06c38.16,6.36,75.65-17.23,85.86-55.38
		C560.35-1710.23,541.71-1747.76,508.16-1762.72z"/>
	<polygon class="st2" points="377.6,-1694.67 354.22,-1647.78 344.1,-1627.46 335.33,-1609.84 331.93,-1603.03 298.45,-1535.81 
		265.32,-1469.31 331.93,-1450.33 171.99,-1270.04 162.1,-1258.89 160.33,-1256.91 149.98,-1245.24 136.85,-1230.44 
		133.04,-1226.14 127.79,-1220.23 126.47,-1218.73 130.56,-1227.69 131.24,-1229.16 137.37,-1242.56 148.02,-1265.85 
		154.3,-1279.55 214.4,-1410.88 180.39,-1419.98 230.91,-1553.91 257.01,-1623.11 266.49,-1648.25 274.38,-1669.17 292.58,-1717.46 
			"/>
	<linearGradient id="SVGID_2_" gradientUnits="userSpaceOnUse" x1="751.0233" y1="-1515.6394" x2="315.294" y2="-1689.4633">
		<stop  offset="0" style="stop-color:#000000"/>
		<stop  offset="0.4296" style="stop-color:#A73029"/>
		<stop  offset="1" style="stop-color:#EA1F27"/>
	</linearGradient>
	<path class="st3" d="M526.32-1830.53c-3.65-1.3-7.4-2.48-11.22-3.5l0-0.01l-0.29-0.08c0,0-0.01,0-0.01,0c-0.01,0-0.01,0-0.02,0
		l-360.93-96.71l-0.08,0.29l34.6,62.13l205.84,55.16c0,0,0,0,0,0l68.66,18.4l38.66,10.36c50.35,13.52,80.23,65.29,66.75,115.65
		c-12.2,45.49-55.58,74.26-100.95,69.5c-4.84-0.5-9.69-1.38-14.54-2.68c-0.03-0.01-0.06-0.01-0.09-0.02
		c-0.03-0.01-0.06-0.01-0.09-0.02l-34.01-9.11l-34.01-9.11l-21.08-5.65l-0.04-0.01l-7.59,13.74l-2.32,4.22l-14.34,28.7l-3.68,7.36
		l-52.07,95.12l52.22,13.85l55.95-100.28l0.85-1.78l3.34-6.99l0.06-0.13l0,0l0,0l-0.06,0.13l-3.34,6.99l46.46,12.45
		c0.06,0.01,0.12,0.03,0.18,0.05c0.06,0.02,0.13,0.04,0.18,0.05c0.05,0.01,0.1,0.02,0.15,0.04c0.05,0.01,0.1,0.03,0.15,0.04
		l6.9,1.85l0.04-0.18l0,0c14.95,3.21,29.92,3.99,44.46,2.57c58.8-5.65,110.66-46.99,126.86-107.43
		C637.69-1729.42,597.07-1805.23,526.32-1830.53z"/>
	<g>
		<path class="st4" d="M137.02-1204.66l-6.83-4.27v0.01l-1.37,2.16l-2.28,3.66l-0.01,0.01l-5.74,9.19c-0.96,1.54-0.49,3.56,1.04,4.5
			l1.29,0.81c0,0,0.01,0,0.01,0.01l1.87,1.16c1.52,0.97,3.55,0.5,4.5-1.04l5.72-9.21l0.01-0.01l2.28-3.65l1.37-2.19L137.02-1204.66z
			"/>
		<path class="st4" d="M130.19-1208.92l-1.88-1.18l-1.35,2.18l-2.31,3.65v0.01l-5.74,9.21c-0.96,1.53-0.49,3.55,1.04,4.5l1.88,1.16
			l1.29,0.81c0,0,0.01,0,0.01,0.01c1.52,0.96,3.53,0.49,4.49-1.06l5.74-9.21l2.28-3.66l1.37-2.18L130.19-1208.92z M122.86-1191.67
			c-1.04-0.66-1.35-2.02-0.71-3.06c0.65-1.04,2.02-1.37,3.06-0.71c0.03,0.01,0.06,0.04,0.09,0.06c0.96,0.68,1.24,1.99,0.62,2.99
			c-0.28,0.44-0.68,0.75-1.12,0.91C124.19-1191.25,123.47-1191.29,122.86-1191.67z"/>
	</g>
	<g>
		<path class="st4" d="M118.19-1216.4l-3.56-2.22l-3.27-2.04v0.01l-1.37,2.16l-2.28,3.66l-5.75,9.21c-0.96,1.54-0.49,3.56,1.06,4.5
			l1.28,0.81c0,0,0.01,0,0.01,0.01l1.87,1.16c1.53,0.97,3.55,0.5,4.5-1.04l5.75-9.21l2.28-3.66l1.35-2.18L118.19-1216.4z"/>
		<path class="st4" d="M114.63-1218.63l-3.27-2.03l-1.88-1.18l-1.35,2.18l-2.3,3.66l-5.75,9.21c-0.96,1.53-0.49,3.55,1.06,4.52
			l1.88,1.15l1.28,0.81c0,0,0.01,0,0.01,0.01c1.53,0.96,3.53,0.49,4.49-1.06l5.74-9.21l2.28-3.66v-0.01l1.37-2.16L114.63-1218.63z
			 M104.03-1203.41c-1.03-0.66-1.35-2.02-0.71-3.06c0.65-1.04,2.02-1.37,3.06-0.71c0.03,0.01,0.06,0.04,0.09,0.06
			c0.01,0,0.01,0,0.01,0c0.96,0.69,1.22,1.99,0.6,2.99c-0.28,0.44-0.68,0.75-1.12,0.91
			C105.36-1202.99,104.64-1203.03,104.03-1203.41z"/>
	</g>
	<path class="st5" d="M110.26-1232.38c1.97-3.17,6.14-4.13,9.31-2.16l24.6,15.34c3.17,1.97,4.13,6.14,2.16,9.31l-6.31,10.12
		l-36.06-22.49L110.26-1232.38z"/>
	<path class="st6" d="M110.31-1232.45c1.95-3.13,6.07-4.08,9.19-2.13l9.6,5.98c-3.28-2.05-7.6-1.05-9.65,2.24l-6.18,9.91l-9.31-5.81
		L110.31-1232.45z"/>
	<path class="st7" d="M100.8-1219.13l37.8,23.57c0.62,0.38,1.42,0.2,1.81-0.42l3.18-5.1c0.38-0.61,0.2-1.42-0.42-1.81l-37.8-23.57
		c-0.62-0.38-1.42-0.2-1.81,0.42l-3.18,5.1C100-1220.33,100.18-1219.52,100.8-1219.13z"/>
	<circle class="st1" cx="107.24" cy="-1205.04" r="2.22"/>
	<linearGradient id="SVGID_3_" gradientUnits="userSpaceOnUse" x1="310.5766" y1="-1438.603" x2="80.5697" y2="-1532.8494">
		<stop  offset="0" style="stop-color:#000000"/>
		<stop  offset="0.2464" style="stop-color:#7E3026"/>
		<stop  offset="1" style="stop-color:#EA1F27"/>
	</linearGradient>
	<path class="st8" d="M267.69-1719.93c-29.56-1.85-59.94,1.52-89.92,10.77c-132.98,41-207.52,182.04-166.51,315.02
		c16.54,53.64,49.36,97.77,91.37,128.62c7.05,5.19,14.34,10,21.88,14.42l10.33-22.42l5.4-11.71c0.06-0.18,0.15-0.35,0.25-0.52
		l0.96-2.07l36.16-78.44c0,0,0,0,0,0l1.96-4.37l3.29-7.33c-0.09-0.07-0.17-0.15-0.26-0.23c-24.09-21.36-39.27-52.54-39.27-87.26
		c0-47.92,28.92-89.09,70.25-107.01h0l1.23-3.14c0.03-0.01,0.05-0.02,0.08-0.03l3.61-9.34c-0.65,0.09-1.3,0.19-1.94,0.3
		c0.71-0.13,1.43-0.26,2.14-0.38L267.69-1719.93z M178.29-1368.51l1.02-2.3c0,0,0,0,0,0L178.29-1368.51z"/>
	<linearGradient id="SVGID_4_" gradientUnits="userSpaceOnUse" x1="912.5836" y1="-1185.429" x2="157.1113" y2="-1512.1287">
		<stop  offset="0" style="stop-color:#000000"/>
		<stop  offset="0.0851" style="stop-color:#230D0B"/>
		<stop  offset="0.3045" style="stop-color:#792F26"/>
		<stop  offset="0.3767" style="stop-color:#872D26"/>
		<stop  offset="0.7522" style="stop-color:#CE2327"/>
		<stop  offset="0.9271" style="stop-color:#EA1F27"/>
	</linearGradient>
	<path class="st9" d="M445.35-1306.79c1.03-0.49,2-1,2.94-1.56c13.02-7.68,17.45-20.51,17.45-20.51
		c4.52-14.14,20.39-14.37,20.39-14.37l345.53-21.67l-340.02-23.57l-0.65-0.04l-42.06-2.91l44.15-9.97c0.75-0.24,1.44-0.52,2.07-0.84
		c0.4-0.19,0.78-0.4,1.13-0.62c5.97-3.65,6.41-10.24,6.41-10.24l4.63-31.29c-0.59-17.73,18.3-12.51,18.3-12.51l347.62-22.14
		l-365.67-26.07l-6.34-0.46l-29.48-2.09l26.89-12.31c-0.85-4.09-1.82-8.18-2.9-12.27c-3.31,0.28-6.65,0.47-10,0.51
		c-10.83,0.19-21.85-0.87-32.84-3.22c-2.31-0.5-4.62-1.06-6.94-1.68c-0.1-0.01-0.21-0.04-0.31-0.07c-0.12-0.03-0.25-0.07-0.37-0.1
		l-45.37-12.15l-1.88,3.93l-41.33,86.4l-0.07-0.01c-0.38,4.94-1.07,9.81-2.06,14.58c-8.47,41.22-38.34,74.62-77.49,88.12
		l-49.73,56.55l-33.78,38.41l-9.4,10.7l-16.86,19.17c7.58,2.72,15.3,5.08,23.13,7.06c43.28,10.95,90.04,10.53,135.82-3.59
		c23.73-7.31,45.61-17.82,65.28-30.89l311.71-14.61l-268.74-18.51l-2.72-0.19l-31.31-2.15l37.31-10.09
		C440.56-1304.76,443.06-1305.69,445.35-1306.79z"/>
	<g>
		<linearGradient id="SVGID_5_" gradientUnits="userSpaceOnUse" x1="27.6498" y1="-1471.2036" x2="148.9628" y2="-1471.2036">
			<stop  offset="0" style="stop-color:#FFFFFF"/>
			<stop  offset="1" style="stop-color:#FFFFFF"/>
		</linearGradient>
		<path class="st10" d="M148.96-1668.89c-72.18,38.37-121.31,114.34-121.31,201.77c0,81.61,42.8,153.21,107.19,193.61l5.4-11.71
			c0.06-0.18,0.15-0.35,0.25-0.52l0.96-2.07c-59.67-41.19-98.77-110.04-98.77-188.05C42.67-1557.08,85.07-1628.41,148.96-1668.89z"
			/>
		<linearGradient id="SVGID_6_" gradientUnits="userSpaceOnUse" x1="184.1974" y1="-1256.4269" x2="378.1273" y2="-1256.4269">
			<stop  offset="0" style="stop-color:#FFFFFF"/>
			<stop  offset="0.9834" style="stop-color:#FFFFFF"/>
		</linearGradient>
		<path class="st11" d="M271.04-1247.49c-27.19,0-53.27-4.75-77.44-13.48l-9.4,10.7c22.58,7.47,46.74,11.52,71.82,11.52
			c44.91,0,86.8-12.96,122.11-35.35C346.19-1257.11,309.75-1247.49,271.04-1247.49z"/>
	</g>
</g>
<g>
	<linearGradient id="SVGID_7_" gradientUnits="userSpaceOnUse" x1="1102.6414" y1="-1530.4049" x2="3532.406" y2="-1426.8103">
		<stop  offset="1.393105e-03" style="stop-color:#F30000"/>
		<stop  offset="0.4126" style="stop-color:#D70208"/>
		<stop  offset="1" style="stop-color:#A90614"/>
	</linearGradient>
	<path class="st12" d="M990.36-1387.07v-169.09h253.64c7.63,0,14.24-2.64,19.81-7.93c5.57-5.57,8.37-12.33,8.37-20.26v-28.18H990.36
		v-56.36h338.18v112.73c0,15.85-5.58,29.21-16.73,40.07c-11.16,10.86-24.37,16.29-39.63,16.29h-225.46v112.73H990.36z"/>
	<linearGradient id="SVGID_8_" gradientUnits="userSpaceOnUse" x1="1103.407" y1="-1548.3646" x2="3533.1716" y2="-1444.77">
		<stop  offset="1.393105e-03" style="stop-color:#F30000"/>
		<stop  offset="0.4126" style="stop-color:#D70208"/>
		<stop  offset="1" style="stop-color:#A90614"/>
	</linearGradient>
	<path class="st13" d="M1384.9-1499.8v-169.09h56.36v169.09H1384.9z M1441.27-1387.07c-15.85,0-29.21-5.43-40.07-16.29
		c-10.86-11.15-16.29-24.51-16.29-40.07h338.18c0,15.85-5.58,29.21-16.73,40.07c-11.16,10.86-24.37,16.29-39.63,16.29H1441.27z
		 M1666.72-1499.8v-169.09h56.36v169.09H1666.72z"/>
	<linearGradient id="SVGID_9_" gradientUnits="userSpaceOnUse" x1="1103.8174" y1="-1557.9905" x2="3533.582" y2="-1454.3959">
		<stop  offset="1.393105e-03" style="stop-color:#F30000"/>
		<stop  offset="0.4126" style="stop-color:#D70208"/>
		<stop  offset="1" style="stop-color:#A90614"/>
	</linearGradient>
	<path class="st14" d="M1779.45-1387.07v-281.82h56.36v225.46h281.82c0,15.85-5.58,29.21-16.73,40.07
		c-11.16,10.86-24.37,16.29-39.63,16.29H1779.45z"/>
	<linearGradient id="SVGID_10_" gradientUnits="userSpaceOnUse" x1="1104.7891" y1="-1580.7786" x2="3534.5537" y2="-1477.184">
		<stop  offset="1.393105e-03" style="stop-color:#F30000"/>
		<stop  offset="0.4126" style="stop-color:#D70208"/>
		<stop  offset="1" style="stop-color:#A90614"/>
	</linearGradient>
	<path class="st15" d="M2174-1387.07c0-15.56,5.43-28.77,16.29-39.63c11.15-11.15,24.51-16.73,40.07-16.73h225.46v-56.36H2174
		v-169.09h338.18c0,15.85-5.58,29.21-16.73,40.07c-11.16,10.86-24.37,16.29-39.63,16.29h-225.46v56.36h281.82v169.09H2174z"/>
	<linearGradient id="SVGID_11_" gradientUnits="userSpaceOnUse" x1="1105.5547" y1="-1598.7383" x2="3535.3193" y2="-1495.1437">
		<stop  offset="1.393105e-03" style="stop-color:#F30000"/>
		<stop  offset="0.4126" style="stop-color:#D70208"/>
		<stop  offset="1" style="stop-color:#A90614"/>
	</linearGradient>
	<path class="st16" d="M2624.91-1612.53c-15.85,0-29.21-5.43-40.07-16.29c-10.86-11.15-16.29-24.51-16.29-40.07h338.18
		c0,15.85-5.58,29.21-16.73,40.07c-11.16,10.86-24.37,16.29-39.63,16.29H2624.91z M2624.91-1499.8c-15.85,0-29.21-5.43-40.07-16.29
		c-10.86-11.15-16.29-24.51-16.29-40.07h338.18c0,15.85-5.58,29.21-16.73,40.07c-11.16,10.86-24.37,16.29-39.63,16.29H2624.91z
		 M2624.91-1387.07c-15.85,0-29.21-5.43-40.07-16.29c-10.86-11.15-16.29-24.51-16.29-40.07h338.18c0,15.85-5.58,29.21-16.73,40.07
		c-11.16,10.86-24.37,16.29-39.63,16.29H2624.91z"/>
	<linearGradient id="SVGID_12_" gradientUnits="userSpaceOnUse" x1="1109.5632" y1="-1692.7568" x2="3539.3279" y2="-1589.1622">
		<stop  offset="1.393105e-03" style="stop-color:#F30000"/>
		<stop  offset="0.4126" style="stop-color:#D70208"/>
		<stop  offset="1" style="stop-color:#A90614"/>
	</linearGradient>
	<path class="st17" d="M2963.09-1668.89h56.36v56.36c0,15.85-5.58,29.21-16.73,40.07c-11.16,10.86-24.37,16.29-39.63,16.29V-1668.89
		z"/>
	<linearGradient id="SVGID_13_" gradientUnits="userSpaceOnUse" x1="1106.4254" y1="-1619.1584" x2="3536.1902" y2="-1515.5638">
		<stop  offset="1.393105e-03" style="stop-color:#F30000"/>
		<stop  offset="0.4126" style="stop-color:#D70208"/>
		<stop  offset="1" style="stop-color:#A90614"/>
	</linearGradient>
	<path class="st18" d="M3075.82-1387.07v-169.09h281.82v-56.36h-225.46c-15.56,0-28.92-5.43-40.07-16.29
		c-10.86-10.86-16.29-24.22-16.29-40.07H3414v169.09h-281.82v56.36h225.46c15.26,0,28.47,5.58,39.63,16.73
		c11.15,10.86,16.73,24.07,16.73,39.63H3075.82z"/>
	<linearGradient id="SVGID_14_" gradientUnits="userSpaceOnUse" x1="1106.9368" y1="-1631.1521" x2="3536.7014" y2="-1527.5575">
		<stop  offset="1.393105e-03" style="stop-color:#F30000"/>
		<stop  offset="0.4126" style="stop-color:#D70208"/>
		<stop  offset="1" style="stop-color:#A90614"/>
	</linearGradient>
	<path class="st19" d="M3622.72-1426.7c-10.86-11.15-24.07-16.73-39.63-16.73v-169.09v-1.18v-55.18h-112.73
		c0,15.56,5.43,28.92,16.29,40.07c10.86,10.86,24.22,16.29,40.07,16.29v169.09h-56.36v56.36h169.09
		C3639.46-1402.33,3633.88-1415.54,3622.72-1426.7z"/>
</g>
<g>
	<path d="M508.16-719.04c-3.65-1.65-7.46-2.99-11.4-4.05l-32.17-8.62L202.9-801.82l-0.01,0.03l34.33,62.66l158.02,42.34c0,0,0,0,0,0
		l27.32,7.32l60.84,16.3l0-0.01c0.54,0.15,1.06,0.29,1.58,0.48c12.05,4.1,19.01,16.9,15.67,29.39
		c-3.5,13.05-16.86,20.76-29.88,17.27l-88.17-23.63v0.01l-5-1.34l-85.02-22.79l-18.2,48.28l79.84,21.39l38.77,10.39l10.02,2.69
		l47.84,12.81c0.01,0.01,0.04,0.01,0.06,0.01c0.47,0.18,0.93,0.35,1.4,0.5c1.66,0.59,3.35,1.09,5.09,1.56
		c2.21,0.59,4.44,1.1,6.66,1.47l0.6,0.16l0.01-0.06c38.16,6.36,75.65-17.23,85.86-55.38C560.35-666.55,541.71-704.08,508.16-719.04z
		"/>
	<polygon points="377.6,-650.98 354.22,-604.1 344.1,-583.78 335.33,-566.16 331.93,-559.34 298.45,-492.13 265.32,-425.63 
		331.93,-406.65 171.99,-226.36 162.1,-215.21 160.33,-213.22 149.98,-201.56 136.85,-186.76 133.04,-182.46 127.79,-176.55 
		126.47,-175.04 130.56,-184 131.24,-185.48 137.37,-198.88 148.02,-222.17 154.3,-235.86 214.4,-367.19 180.39,-376.3 
		230.91,-510.22 257.01,-579.43 266.49,-604.57 274.38,-625.49 292.58,-673.77 	"/>
	<linearGradient id="SVGID_15_" gradientUnits="userSpaceOnUse" x1="751.0233" y1="-471.9559" x2="315.294" y2="-645.7798">
		<stop  offset="1.393105e-03" style="stop-color:#F30000"/>
		<stop  offset="0.4126" style="stop-color:#D70208"/>
		<stop  offset="1" style="stop-color:#A90614"/>
	</linearGradient>
	<path class="st20" d="M526.32-786.85c-3.65-1.3-7.4-2.48-11.22-3.5l0-0.01l-0.29-0.08c0,0-0.01,0-0.01,0c-0.01,0-0.01,0-0.02,0
		l-360.93-96.71l-0.08,0.29l34.6,62.13l205.84,55.16c0,0,0,0,0,0l68.66,18.4l38.66,10.36c50.35,13.52,80.23,65.29,66.75,115.65
		c-12.2,45.49-55.58,74.26-100.95,69.5c-4.84-0.5-9.69-1.38-14.54-2.68c-0.03-0.01-0.06-0.01-0.09-0.02
		c-0.03-0.01-0.06-0.01-0.09-0.02l-34.01-9.11l-34.01-9.11l-21.08-5.65l-0.04-0.01l-7.59,13.74l-2.32,4.22l-14.34,28.7l-3.68,7.36
		l-52.07,95.12l52.22,13.85l55.95-100.28l0.85-1.78l3.34-6.99l0.06-0.13l0,0l0,0l-0.06,0.13l-3.34,6.99l46.46,12.45
		c0.06,0.01,0.12,0.03,0.18,0.05c0.06,0.02,0.13,0.04,0.18,0.05c0.05,0.01,0.1,0.02,0.15,0.04c0.05,0.01,0.1,0.03,0.15,0.04
		l6.9,1.85l0.04-0.18l0,0c14.95,3.21,29.92,3.99,44.46,2.57c58.8-5.65,110.66-46.99,126.86-107.43
		C637.69-685.73,597.07-761.54,526.32-786.85z"/>
	<g>
		<path class="st4" d="M137.02-160.98l-6.83-4.27v0.01l-1.37,2.16l-2.28,3.66l-0.01,0.01l-5.74,9.19c-0.96,1.54-0.49,3.56,1.04,4.5
			l1.29,0.81c0,0,0.01,0,0.01,0.01l1.87,1.16c1.52,0.97,3.55,0.5,4.5-1.04l5.72-9.21l0.01-0.01l2.28-3.65l1.37-2.19L137.02-160.98z"
			/>
		<path class="st4" d="M130.19-165.23l-1.88-1.18l-1.35,2.18l-2.31,3.65v0.01l-5.74,9.21c-0.96,1.53-0.49,3.55,1.04,4.5l1.88,1.16
			l1.29,0.81c0,0,0.01,0,0.01,0.01c1.52,0.96,3.53,0.49,4.49-1.06l5.74-9.21l2.28-3.66l1.37-2.18L130.19-165.23z M122.86-147.99
			c-1.04-0.66-1.35-2.02-0.71-3.06c0.65-1.04,2.02-1.37,3.06-0.71c0.03,0.01,0.06,0.04,0.09,0.06c0.96,0.68,1.24,1.99,0.62,2.99
			c-0.28,0.44-0.68,0.75-1.12,0.91C124.19-147.56,123.47-147.61,122.86-147.99z"/>
	</g>
	<g>
		<path class="st4" d="M118.19-172.72l-3.56-2.22l-3.27-2.04v0.01l-1.37,2.16l-2.28,3.66l-5.75,9.21c-0.96,1.54-0.49,3.56,1.06,4.5
			l1.28,0.81c0,0,0.01,0,0.01,0.01l1.87,1.16c1.53,0.97,3.55,0.5,4.5-1.04l5.75-9.21l2.28-3.66l1.35-2.18L118.19-172.72z"/>
		<path class="st4" d="M114.63-174.94l-3.27-2.03l-1.88-1.18l-1.35,2.18l-2.3,3.66l-5.75,9.21c-0.96,1.53-0.49,3.55,1.06,4.52
			l1.88,1.15l1.28,0.81c0,0,0.01,0,0.01,0.01c1.53,0.96,3.53,0.49,4.49-1.06l5.74-9.21l2.28-3.66v-0.01l1.37-2.16L114.63-174.94z
			 M104.03-159.73c-1.03-0.66-1.35-2.02-0.71-3.06c0.65-1.04,2.02-1.37,3.06-0.71c0.03,0.01,0.06,0.04,0.09,0.06
			c0.01,0,0.01,0,0.01,0c0.96,0.69,1.22,1.99,0.6,2.99c-0.28,0.44-0.68,0.75-1.12,0.91C105.36-159.3,104.64-159.35,104.03-159.73z"
			/>
	</g>
	<path class="st5" d="M110.26-188.69c1.97-3.17,6.14-4.13,9.31-2.16l24.6,15.34c3.17,1.97,4.13,6.14,2.16,9.31l-6.31,10.12
		l-36.06-22.49L110.26-188.69z"/>
	<path class="st6" d="M110.31-188.77c1.95-3.13,6.07-4.08,9.19-2.13l9.6,5.98c-3.28-2.05-7.6-1.05-9.65,2.24l-6.18,9.91l-9.31-5.81
		L110.31-188.77z"/>
	<path class="st7" d="M100.8-175.45l37.8,23.57c0.62,0.38,1.42,0.2,1.81-0.42l3.18-5.1c0.38-0.62,0.2-1.42-0.42-1.81l-37.8-23.57
		c-0.62-0.38-1.42-0.2-1.81,0.42l-3.18,5.1C100-176.64,100.18-175.83,100.8-175.45z"/>
	<circle class="st1" cx="107.24" cy="-161.35" r="2.22"/>
	<linearGradient id="SVGID_16_" gradientUnits="userSpaceOnUse" x1="310.5766" y1="-394.9196" x2="80.5697" y2="-489.1659">
		<stop  offset="1.393105e-03" style="stop-color:#F30000"/>
		<stop  offset="0.4126" style="stop-color:#D70208"/>
		<stop  offset="1" style="stop-color:#A90614"/>
	</linearGradient>
	<path class="st21" d="M267.69-676.24c-29.56-1.85-59.94,1.52-89.92,10.77c-132.98,41-207.52,182.04-166.51,315.02
		c16.54,53.64,49.36,97.77,91.37,128.62c7.05,5.19,14.34,10,21.88,14.42l10.33-22.42l5.4-11.71c0.06-0.18,0.15-0.35,0.25-0.52
		l0.96-2.07l36.16-78.44c0,0,0,0,0,0l1.96-4.37l3.29-7.33c-0.09-0.07-0.17-0.15-0.26-0.23c-24.09-21.36-39.27-52.54-39.27-87.26
		c0-47.92,28.92-89.09,70.25-107.01h0l1.23-3.14c0.03-0.01,0.05-0.02,0.08-0.03l3.61-9.34c-0.65,0.09-1.3,0.19-1.94,0.3
		c0.71-0.13,1.43-0.26,2.14-0.38L267.69-676.24z M178.29-324.83l1.02-2.3c0,0,0,0,0,0L178.29-324.83z"/>
	<linearGradient id="SVGID_17_" gradientUnits="userSpaceOnUse" x1="912.5836" y1="-141.7455" x2="157.1113" y2="-468.4453">
		<stop  offset="1.393105e-03" style="stop-color:#F30000"/>
		<stop  offset="0.4126" style="stop-color:#D70208"/>
		<stop  offset="1" style="stop-color:#A90614"/>
	</linearGradient>
	<path class="st22" d="M445.35-263.11c1.03-0.49,2-1,2.94-1.56c13.02-7.68,17.45-20.51,17.45-20.51
		c4.52-14.14,20.39-14.37,20.39-14.37l345.53-21.67l-340.02-23.57l-0.65-0.04l-42.06-2.91l44.15-9.97c0.75-0.24,1.44-0.52,2.07-0.84
		c0.4-0.19,0.78-0.4,1.13-0.62c5.97-3.65,6.41-10.24,6.41-10.24l4.63-31.29c-0.59-17.73,18.3-12.5,18.3-12.5l347.62-22.14
		l-365.67-26.07l-6.34-0.46l-29.48-2.09l26.89-12.31c-0.85-4.09-1.82-8.18-2.9-12.27c-3.31,0.28-6.65,0.47-10,0.51
		c-10.83,0.19-21.85-0.87-32.84-3.22c-2.31-0.5-4.62-1.06-6.94-1.68c-0.1-0.01-0.21-0.04-0.31-0.07c-0.12-0.03-0.25-0.07-0.37-0.1
		l-45.37-12.15l-1.88,3.93l-41.33,86.4l-0.07-0.01c-0.38,4.94-1.07,9.81-2.06,14.58c-8.47,41.22-38.34,74.62-77.49,88.12
		l-49.73,56.55l-33.78,38.41l-9.4,10.7l-16.86,19.17c7.58,2.72,15.3,5.08,23.13,7.06c43.28,10.95,90.04,10.53,135.82-3.59
		c23.73-7.31,45.61-17.82,65.28-30.89l311.71-14.61l-268.74-18.51l-2.72-0.19l-31.31-2.15l37.31-10.09
		C440.56-261.08,443.06-262.01,445.35-263.11z"/>
	<g>
		<linearGradient id="SVGID_18_" gradientUnits="userSpaceOnUse" x1="27.6498" y1="-427.5201" x2="148.9628" y2="-427.5201">
			<stop  offset="0" style="stop-color:#FFFFFF"/>
			<stop  offset="1" style="stop-color:#FFFFFF"/>
		</linearGradient>
		<path class="st23" d="M148.96-625.21C76.79-586.84,27.65-510.87,27.65-423.44c0,81.61,42.8,153.21,107.19,193.61l5.4-11.71
			c0.06-0.18,0.15-0.35,0.25-0.52l0.96-2.07c-59.67-41.19-98.77-110.04-98.77-188.05C42.67-513.4,85.07-584.72,148.96-625.21z"/>
		<linearGradient id="SVGID_19_" gradientUnits="userSpaceOnUse" x1="184.1974" y1="-212.7435" x2="378.1273" y2="-212.7435">
			<stop  offset="0" style="stop-color:#FFFFFF"/>
			<stop  offset="0.9834" style="stop-color:#FFFFFF"/>
		</linearGradient>
		<path class="st24" d="M271.04-203.81c-27.19,0-53.27-4.75-77.44-13.48l-9.4,10.7c22.58,7.47,46.74,11.52,71.82,11.52
			c44.91,0,86.8-12.96,122.11-35.35C346.19-213.43,309.75-203.81,271.04-203.81z"/>
	</g>
</g>
<g>
	<linearGradient id="SVGID_20_" gradientUnits="userSpaceOnUse" x1="1102.6414" y1="-486.7214" x2="3532.406" y2="-383.1268">
		<stop  offset="1.393105e-03" style="stop-color:#F30000"/>
		<stop  offset="0.4126" style="stop-color:#D70208"/>
		<stop  offset="1" style="stop-color:#A90614"/>
	</linearGradient>
	<path class="st25" d="M990.36-343.39v-169.09h253.64c7.63,0,14.24-2.64,19.81-7.93c5.57-5.57,8.37-12.33,8.37-20.26v-28.18H990.36
		v-56.36h338.18v112.73c0,15.85-5.58,29.21-16.73,40.07c-11.16,10.86-24.37,16.29-39.63,16.29h-225.46v112.73H990.36z"/>
	<linearGradient id="SVGID_21_" gradientUnits="userSpaceOnUse" x1="1103.407" y1="-504.6812" x2="3533.1716" y2="-401.0865">
		<stop  offset="1.393105e-03" style="stop-color:#F30000"/>
		<stop  offset="0.4126" style="stop-color:#D70208"/>
		<stop  offset="1" style="stop-color:#A90614"/>
	</linearGradient>
	<path class="st26" d="M1384.9-456.12v-169.09h56.36v169.09H1384.9z M1441.27-343.39c-15.85,0-29.21-5.43-40.07-16.29
		c-10.86-11.15-16.29-24.51-16.29-40.07h338.18c0,15.85-5.58,29.21-16.73,40.07c-11.16,10.86-24.37,16.29-39.63,16.29H1441.27z
		 M1666.72-456.12v-169.09h56.36v169.09H1666.72z"/>
	<linearGradient id="SVGID_22_" gradientUnits="userSpaceOnUse" x1="1103.8174" y1="-514.3071" x2="3533.582" y2="-410.7125">
		<stop  offset="1.393105e-03" style="stop-color:#F30000"/>
		<stop  offset="0.4126" style="stop-color:#D70208"/>
		<stop  offset="1" style="stop-color:#A90614"/>
	</linearGradient>
	<path class="st27" d="M1779.45-343.39v-281.82h56.36v225.46h281.82c0,15.85-5.58,29.21-16.73,40.07
		c-11.16,10.86-24.37,16.29-39.63,16.29H1779.45z"/>
	<linearGradient id="SVGID_23_" gradientUnits="userSpaceOnUse" x1="1104.7891" y1="-537.0952" x2="3534.5537" y2="-433.5005">
		<stop  offset="1.393105e-03" style="stop-color:#F30000"/>
		<stop  offset="0.4126" style="stop-color:#D70208"/>
		<stop  offset="1" style="stop-color:#A90614"/>
	</linearGradient>
	<path class="st28" d="M2174-343.39c0-15.56,5.43-28.77,16.29-39.63c11.15-11.15,24.51-16.73,40.07-16.73h225.46v-56.36H2174
		v-169.09h338.18c0,15.85-5.58,29.21-16.73,40.07c-11.16,10.86-24.37,16.29-39.63,16.29h-225.46v56.36h281.82v169.09H2174z"/>
	<linearGradient id="SVGID_24_" gradientUnits="userSpaceOnUse" x1="1105.5547" y1="-555.0549" x2="3535.3193" y2="-451.4602">
		<stop  offset="1.393105e-03" style="stop-color:#F30000"/>
		<stop  offset="0.4126" style="stop-color:#D70208"/>
		<stop  offset="1" style="stop-color:#A90614"/>
	</linearGradient>
	<path class="st29" d="M2624.91-568.85c-15.85,0-29.21-5.43-40.07-16.29c-10.86-11.15-16.29-24.51-16.29-40.07h338.18
		c0,15.85-5.58,29.21-16.73,40.07c-11.16,10.86-24.37,16.29-39.63,16.29H2624.91z M2624.91-456.12c-15.85,0-29.21-5.43-40.07-16.29
		c-10.86-11.15-16.29-24.51-16.29-40.07h338.18c0,15.85-5.58,29.21-16.73,40.07c-11.16,10.86-24.37,16.29-39.63,16.29H2624.91z
		 M2624.91-343.39c-15.85,0-29.21-5.43-40.07-16.29c-10.86-11.15-16.29-24.51-16.29-40.07h338.18c0,15.85-5.58,29.21-16.73,40.07
		c-11.16,10.86-24.37,16.29-39.63,16.29H2624.91z"/>
	<linearGradient id="SVGID_25_" gradientUnits="userSpaceOnUse" x1="1109.5632" y1="-649.0734" x2="3539.3279" y2="-545.4787">
		<stop  offset="1.393105e-03" style="stop-color:#F30000"/>
		<stop  offset="0.4126" style="stop-color:#D70208"/>
		<stop  offset="1" style="stop-color:#A90614"/>
	</linearGradient>
	<path class="st30" d="M2963.09-625.21h56.36v56.36c0,15.85-5.58,29.21-16.73,40.07c-11.16,10.86-24.37,16.29-39.63,16.29V-625.21z"
		/>
	<linearGradient id="SVGID_26_" gradientUnits="userSpaceOnUse" x1="1106.4254" y1="-575.475" x2="3536.1902" y2="-471.8804">
		<stop  offset="1.393105e-03" style="stop-color:#F30000"/>
		<stop  offset="0.4126" style="stop-color:#D70208"/>
		<stop  offset="1" style="stop-color:#A90614"/>
	</linearGradient>
	<path class="st31" d="M3075.82-343.39v-169.09h281.82v-56.36h-225.46c-15.56,0-28.92-5.43-40.07-16.29
		c-10.86-10.86-16.29-24.22-16.29-40.07H3414v169.09h-281.82v56.36h225.46c15.26,0,28.47,5.58,39.63,16.73
		c11.15,10.86,16.73,24.07,16.73,39.63H3075.82z"/>
	<linearGradient id="SVGID_27_" gradientUnits="userSpaceOnUse" x1="1106.9368" y1="-587.4687" x2="3536.7014" y2="-483.8741">
		<stop  offset="1.393105e-03" style="stop-color:#F30000"/>
		<stop  offset="0.4126" style="stop-color:#D70208"/>
		<stop  offset="1" style="stop-color:#A90614"/>
	</linearGradient>
	<path class="st32" d="M3622.72-383.02c-10.86-11.15-24.07-16.73-39.63-16.73v-169.09v-1.18v-55.18h-112.73
		c0,15.56,5.43,28.92,16.29,40.07c10.86,10.86,24.22,16.29,40.07,16.29v169.09h-56.36v56.36h169.09
		C3639.46-358.65,3633.88-371.86,3622.72-383.02z"/>
</g>
<g>
	<path d="M508.16,168.11c-3.65-1.65-7.46-2.99-11.4-4.05l-32.17-8.62L202.9,85.33l-0.01,0.03l34.33,62.66l158.02,42.34c0,0,0,0,0,0
		l27.32,7.32l60.84,16.3l0-0.01c0.54,0.15,1.06,0.29,1.58,0.48c12.05,4.1,19.01,16.9,15.67,29.39
		c-3.5,13.05-16.86,20.76-29.88,17.27l-88.17-23.63v0.01l-5-1.34l-85.02-22.79l-18.2,48.28l79.84,21.39l38.77,10.39l10.02,2.69
		l47.84,12.81c0.01,0.01,0.04,0.01,0.06,0.01c0.47,0.18,0.93,0.35,1.4,0.5c1.66,0.59,3.35,1.09,5.09,1.56
		c2.21,0.59,4.44,1.1,6.66,1.47l0.6,0.16l0.01-0.06c38.16,6.36,75.65-17.23,85.86-55.38C560.35,220.6,541.71,183.07,508.16,168.11z"
		/>
	<polygon points="377.6,236.17 354.22,283.05 344.1,303.37 335.33,320.99 331.93,327.81 298.45,395.02 265.32,461.52 331.93,480.5 
		171.99,660.79 162.1,671.94 160.33,673.93 149.98,685.59 136.85,700.39 133.04,704.69 127.79,710.6 126.47,712.11 130.56,703.15 
		131.24,701.67 137.37,688.27 148.02,664.98 154.3,651.29 214.4,519.96 180.39,510.85 230.91,376.93 257.01,307.72 266.49,282.58 
		274.38,261.66 292.58,213.38 	"/>
	<linearGradient id="SVGID_28_" gradientUnits="userSpaceOnUse" x1="218.449" y1="209.9437" x2="748.5215" y2="401.0583">
		<stop  offset="1.393105e-03" style="stop-color:#F30000"/>
		<stop  offset="0.4126" style="stop-color:#D70208"/>
		<stop  offset="1" style="stop-color:#A90614"/>
	</linearGradient>
	<path class="st33" d="M526.32,100.3c-3.65-1.3-7.4-2.48-11.22-3.5l0-0.01l-0.29-0.08c0,0-0.01,0-0.01,0c-0.01,0-0.01,0-0.02,0
		L153.86,0l-0.08,0.29l34.6,62.13l205.84,55.16c0,0,0,0,0,0l68.66,18.4l38.66,10.36c50.35,13.52,80.23,65.29,66.75,115.65
		c-12.2,45.49-55.58,74.26-100.95,69.5c-4.84-0.5-9.69-1.38-14.54-2.68c-0.03-0.01-0.06-0.01-0.09-0.02
		c-0.03-0.01-0.06-0.01-0.09-0.02l-34.01-9.11l-34.01-9.11l-21.08-5.65l-0.04-0.01l-7.59,13.74l-2.32,4.22l-14.34,28.7l-3.68,7.36
		l-52.07,95.12l52.22,13.85l55.95-100.28l0.85-1.78l3.34-6.99l0.06-0.13l0,0l0,0l-0.06,0.13l-3.34,6.99l46.46,12.45
		c0.06,0.01,0.12,0.03,0.18,0.05c0.06,0.02,0.13,0.04,0.18,0.05c0.05,0.01,0.1,0.02,0.15,0.04c0.05,0.01,0.1,0.03,0.15,0.04
		l6.9,1.85l0.04-0.18l0,0c14.95,3.21,29.92,3.99,44.46,2.57c58.8-5.65,110.66-46.99,126.86-107.43
		C637.69,201.42,597.07,125.61,526.32,100.3z"/>
	<g>
		<path class="st4" d="M137.02,726.17l-6.83-4.27v0.01l-1.37,2.16l-2.28,3.66l-0.01,0.01l-5.74,9.19c-0.96,1.54-0.49,3.56,1.04,4.5
			l1.29,0.81c0,0,0.01,0,0.01,0.01l1.87,1.16c1.52,0.97,3.55,0.5,4.5-1.04l5.72-9.21l0.01-0.01l2.28-3.65l1.37-2.19L137.02,726.17z"
			/>
		<path class="st4" d="M130.19,721.92l-1.88-1.18l-1.35,2.18l-2.31,3.65v0.01l-5.74,9.21c-0.96,1.53-0.49,3.55,1.04,4.5l1.88,1.16
			l1.29,0.81c0,0,0.01,0,0.01,0.01c1.52,0.96,3.53,0.49,4.49-1.06l5.74-9.21l2.28-3.66l1.37-2.18L130.19,721.92z M122.86,739.16
			c-1.04-0.66-1.35-2.02-0.71-3.06c0.65-1.04,2.02-1.37,3.06-0.71c0.03,0.01,0.06,0.04,0.09,0.06c0.96,0.68,1.24,1.99,0.62,2.99
			c-0.28,0.44-0.68,0.75-1.12,0.91C124.19,739.59,123.47,739.54,122.86,739.16z"/>
	</g>
	<g>
		<path class="st4" d="M118.19,714.43l-3.56-2.22l-3.27-2.04v0.01l-1.37,2.16l-2.28,3.66l-5.75,9.21c-0.96,1.54-0.49,3.56,1.06,4.5
			l1.28,0.81c0,0,0.01,0,0.01,0.01l1.87,1.16c1.53,0.97,3.55,0.5,4.5-1.04l5.75-9.21l2.28-3.66l1.35-2.18L118.19,714.43z"/>
		<path class="st4" d="M114.63,712.21l-3.27-2.03l-1.88-1.18l-1.35,2.18l-2.3,3.66l-5.75,9.21c-0.96,1.53-0.49,3.55,1.06,4.52
			l1.88,1.15l1.28,0.81c0,0,0.01,0,0.01,0.01c1.53,0.96,3.53,0.49,4.49-1.06l5.74-9.21l2.28-3.66v-0.01l1.37-2.16L114.63,712.21z
			 M104.03,727.42c-1.03-0.66-1.35-2.02-0.71-3.06c0.65-1.04,2.02-1.37,3.06-0.71c0.03,0.01,0.06,0.04,0.09,0.06
			c0.01,0,0.01,0,0.01,0c0.96,0.69,1.22,1.99,0.6,2.99c-0.28,0.44-0.68,0.75-1.12,0.91C105.36,727.85,104.64,727.8,104.03,727.42z"
			/>
	</g>
	<path class="st5" d="M110.26,698.46c1.97-3.17,6.14-4.13,9.31-2.16l24.6,15.34c3.17,1.97,4.13,6.14,2.16,9.31l-6.31,10.12
		l-36.06-22.49L110.26,698.46z"/>
	<path class="st6" d="M110.31,698.38c1.95-3.13,6.07-4.08,9.19-2.13l9.6,5.98c-3.28-2.05-7.6-1.05-9.65,2.24l-6.18,9.91l-9.31-5.81
		L110.31,698.38z"/>
	<path class="st7" d="M100.8,711.7l37.8,23.57c0.62,0.38,1.42,0.2,1.81-0.42l3.18-5.1c0.38-0.62,0.2-1.42-0.42-1.81l-37.8-23.57
		c-0.62-0.38-1.42-0.2-1.81,0.42l-3.18,5.1C100,710.51,100.18,711.32,100.8,711.7z"/>
	<circle class="st1" cx="107.24" cy="725.8" r="2.22"/>
	<linearGradient id="SVGID_29_" gradientUnits="userSpaceOnUse" x1="-12.0147" y1="386.3055" x2="229.583" y2="454.8183">
		<stop  offset="1.393105e-03" style="stop-color:#F30000"/>
		<stop  offset="0.4126" style="stop-color:#D70208"/>
		<stop  offset="1" style="stop-color:#A90614"/>
	</linearGradient>
	<path class="st34" d="M267.69,210.91c-29.56-1.85-59.94,1.52-89.92,10.77C44.79,262.68-29.76,403.72,11.26,536.7
		c16.54,53.64,49.36,97.77,91.37,128.62c7.05,5.19,14.34,10,21.88,14.42l10.33-22.42l5.4-11.71c0.06-0.18,0.15-0.35,0.25-0.52
		l0.96-2.07l36.16-78.44c0,0,0,0,0,0l1.96-4.37l3.29-7.33c-0.09-0.07-0.17-0.15-0.26-0.23c-24.09-21.36-39.27-52.54-39.27-87.26
		c0-47.92,28.92-89.09,70.25-107.01h0l1.23-3.14c0.03-0.01,0.05-0.02,0.08-0.03l3.61-9.34c-0.65,0.09-1.3,0.19-1.94,0.3
		c0.71-0.13,1.43-0.26,2.14-0.38L267.69,210.91z M178.29,562.32l1.02-2.3c0,0,0,0,0,0L178.29,562.32z"/>
	<linearGradient id="SVGID_30_" gradientUnits="userSpaceOnUse" x1="187.9632" y1="361.9343" x2="653.1289" y2="661.227">
		<stop  offset="1.393105e-03" style="stop-color:#F30000"/>
		<stop  offset="0.4126" style="stop-color:#D70208"/>
		<stop  offset="1" style="stop-color:#A90614"/>
	</linearGradient>
	<path class="st35" d="M445.35,624.04c1.03-0.49,2-1,2.94-1.56c13.02-7.68,17.45-20.51,17.45-20.51
		c4.52-14.14,20.39-14.37,20.39-14.37l345.53-21.67l-340.02-23.57l-0.65-0.04l-42.06-2.91l44.15-9.97c0.75-0.24,1.44-0.52,2.07-0.84
		c0.4-0.19,0.78-0.4,1.13-0.62c5.97-3.65,6.41-10.24,6.41-10.24l4.63-31.29c-0.59-17.73,18.3-12.5,18.3-12.5l347.62-22.14
		l-365.67-26.07l-6.34-0.46l-29.48-2.09l26.89-12.31c-0.85-4.09-1.82-8.18-2.9-12.27c-3.31,0.28-6.65,0.47-10,0.51
		c-10.83,0.19-21.85-0.87-32.84-3.22c-2.31-0.5-4.62-1.06-6.94-1.68c-0.1-0.01-0.21-0.04-0.31-0.07c-0.12-0.03-0.25-0.07-0.37-0.1
		l-45.37-12.15l-1.88,3.93l-41.33,86.4l-0.07-0.01c-0.38,4.94-1.07,9.81-2.06,14.58c-8.47,41.22-38.34,74.62-77.49,88.12
		l-49.73,56.55l-33.78,38.41l-9.4,10.7l-16.86,19.17c7.58,2.72,15.3,5.08,23.13,7.06c43.28,10.95,90.04,10.53,135.82-3.59
		c23.73-7.31,45.61-17.82,65.28-30.89l311.71-14.61l-268.74-18.51l-2.72-0.19l-31.31-2.15l37.31-10.09
		C440.56,626.07,443.06,625.14,445.35,624.04z"/>
	<g>
		<linearGradient id="SVGID_31_" gradientUnits="userSpaceOnUse" x1="27.6498" y1="459.6299" x2="148.9628" y2="459.6299">
			<stop  offset="0" style="stop-color:#FFFFFF"/>
			<stop  offset="1" style="stop-color:#FFFFFF"/>
		</linearGradient>
		<path class="st36" d="M148.96,261.94C76.79,300.31,27.65,376.28,27.65,463.71c0,81.61,42.8,153.21,107.19,193.61l5.4-11.71
			c0.06-0.18,0.15-0.35,0.25-0.52l0.96-2.07c-59.67-41.19-98.77-110.04-98.77-188.05C42.67,373.75,85.07,302.43,148.96,261.94z"/>
		<linearGradient id="SVGID_32_" gradientUnits="userSpaceOnUse" x1="184.1974" y1="674.4066" x2="378.1273" y2="674.4066">
			<stop  offset="0" style="stop-color:#FFFFFF"/>
			<stop  offset="0.9834" style="stop-color:#FFFFFF"/>
		</linearGradient>
		<path class="st37" d="M271.04,683.34c-27.19,0-53.27-4.75-77.44-13.48l-9.4,10.7c22.58,7.47,46.74,11.52,71.82,11.52
			c44.91,0,86.8-12.96,122.11-35.35C346.19,673.72,309.75,683.34,271.04,683.34z"/>
	</g>
</g>
<g>
	<linearGradient id="SVGID_33_" gradientUnits="userSpaceOnUse" x1="1102.6414" y1="400.4286" x2="3532.406" y2="504.0233">
		<stop  offset="1.393105e-03" style="stop-color:#F30000"/>
		<stop  offset="0.4126" style="stop-color:#D70208"/>
		<stop  offset="1" style="stop-color:#A90614"/>
	</linearGradient>
	<path class="st38" d="M990.36,543.76V374.67h253.64c7.63,0,14.24-2.64,19.81-7.93c5.57-5.57,8.37-12.33,8.37-20.26V318.3H990.36
		v-56.36h338.18v112.73c0,15.85-5.58,29.21-16.73,40.07c-11.16,10.86-24.37,16.29-39.63,16.29h-225.46v112.73H990.36z"/>
	<linearGradient id="SVGID_34_" gradientUnits="userSpaceOnUse" x1="1103.407" y1="382.4689" x2="3533.1716" y2="486.0635">
		<stop  offset="1.393105e-03" style="stop-color:#F30000"/>
		<stop  offset="0.4126" style="stop-color:#D70208"/>
		<stop  offset="1" style="stop-color:#A90614"/>
	</linearGradient>
	<path class="st39" d="M1384.9,431.03V261.94h56.36v169.09H1384.9z M1441.27,543.76c-15.85,0-29.21-5.43-40.07-16.29
		c-10.86-11.15-16.29-24.51-16.29-40.07h338.18c0,15.85-5.58,29.21-16.73,40.07c-11.16,10.86-24.37,16.29-39.63,16.29H1441.27z
		 M1666.72,431.03V261.94h56.36v169.09H1666.72z"/>
	<linearGradient id="SVGID_35_" gradientUnits="userSpaceOnUse" x1="1103.8174" y1="372.843" x2="3533.582" y2="476.4377">
		<stop  offset="1.393105e-03" style="stop-color:#F30000"/>
		<stop  offset="0.4126" style="stop-color:#D70208"/>
		<stop  offset="1" style="stop-color:#A90614"/>
	</linearGradient>
	<path class="st40" d="M1779.45,543.76V261.94h56.36V487.4h281.82c0,15.85-5.58,29.21-16.73,40.07
		c-11.16,10.86-24.37,16.29-39.63,16.29H1779.45z"/>
	<linearGradient id="SVGID_36_" gradientUnits="userSpaceOnUse" x1="1104.7891" y1="350.0549" x2="3534.5537" y2="453.6496">
		<stop  offset="1.393105e-03" style="stop-color:#F30000"/>
		<stop  offset="0.4126" style="stop-color:#D70208"/>
		<stop  offset="1" style="stop-color:#A90614"/>
	</linearGradient>
	<path class="st41" d="M2174,543.76c0-15.56,5.43-28.77,16.29-39.63c11.15-11.15,24.51-16.73,40.07-16.73h225.46v-56.36H2174V261.94
		h338.18c0,15.85-5.58,29.21-16.73,40.07c-11.16,10.86-24.37,16.29-39.63,16.29h-225.46v56.36h281.82v169.09H2174z"/>
	<linearGradient id="SVGID_37_" gradientUnits="userSpaceOnUse" x1="1105.5547" y1="332.0952" x2="3535.3193" y2="435.6899">
		<stop  offset="1.393105e-03" style="stop-color:#F30000"/>
		<stop  offset="0.4126" style="stop-color:#D70208"/>
		<stop  offset="1" style="stop-color:#A90614"/>
	</linearGradient>
	<path class="st42" d="M2624.91,318.3c-15.85,0-29.21-5.43-40.07-16.29c-10.86-11.15-16.29-24.51-16.29-40.07h338.18
		c0,15.85-5.58,29.21-16.73,40.07c-11.16,10.86-24.37,16.29-39.63,16.29H2624.91z M2624.91,431.03c-15.85,0-29.21-5.43-40.07-16.29
		c-10.86-11.15-16.29-24.51-16.29-40.07h338.18c0,15.85-5.58,29.21-16.73,40.07c-11.16,10.86-24.37,16.29-39.63,16.29H2624.91z
		 M2624.91,543.76c-15.85,0-29.21-5.43-40.07-16.29c-10.86-11.15-16.29-24.51-16.29-40.07h338.18c0,15.85-5.58,29.21-16.73,40.07
		c-11.16,10.86-24.37,16.29-39.63,16.29H2624.91z"/>
	<path d="M2963.09,261.94h56.36v56.36c0,15.85-5.58,29.21-16.73,40.07c-11.16,10.86-24.37,16.29-39.63,16.29V261.94z"/>
	<linearGradient id="SVGID_38_" gradientUnits="userSpaceOnUse" x1="1106.4254" y1="311.675" x2="3536.1902" y2="415.2697">
		<stop  offset="1.393105e-03" style="stop-color:#F30000"/>
		<stop  offset="0.4126" style="stop-color:#D70208"/>
		<stop  offset="1" style="stop-color:#A90614"/>
	</linearGradient>
	<path class="st43" d="M3075.82,543.76V374.67h281.82V318.3h-225.46c-15.56,0-28.92-5.43-40.07-16.29
		c-10.86-10.86-16.29-24.22-16.29-40.07H3414v169.09h-281.82v56.36h225.46c15.26,0,28.47,5.58,39.63,16.73
		c11.15,10.86,16.73,24.07,16.73,39.63H3075.82z"/>
	<linearGradient id="SVGID_39_" gradientUnits="userSpaceOnUse" x1="1106.9368" y1="299.6814" x2="3536.7014" y2="403.276">
		<stop  offset="1.393105e-03" style="stop-color:#F30000"/>
		<stop  offset="0.4126" style="stop-color:#D70208"/>
		<stop  offset="1" style="stop-color:#A90614"/>
	</linearGradient>
	<path class="st44" d="M3622.72,504.13c-10.86-11.15-24.07-16.73-39.63-16.73V318.3v-1.18v-55.18h-112.73
		c0,15.56,5.43,28.92,16.29,40.07c10.86,10.86,24.22,16.29,40.07,16.29V487.4h-56.36v56.36h169.09
		C3639.46,528.5,3633.88,515.29,3622.72,504.13z"/>
</g>
<g>
	<g>
		<path class="st45" d="M508.16,1611.81c-3.65-1.65-7.46-2.99-11.4-4.05l-32.17-8.62l-261.69-70.12l-0.01,0.03l34.33,62.66
			l158.02,42.34c0,0,0,0,0,0l27.32,7.32l60.84,16.3l0-0.01c0.54,0.15,1.06,0.29,1.58,0.48c12.05,4.1,19.01,16.9,15.67,29.39
			c-3.5,13.05-16.86,20.76-29.88,17.27l-88.17-23.63v0.01l-5-1.34l-85.02-22.79l-18.2,48.28l79.84,21.39l38.77,10.39l10.02,2.69
			l47.84,12.81c0.01,0.01,0.04,0.01,0.06,0.01c0.47,0.18,0.93,0.35,1.4,0.5c1.66,0.59,3.35,1.09,5.09,1.56
			c2.21,0.59,4.44,1.1,6.66,1.47l0.6,0.16l0.01-0.06c38.16,6.36,75.65-17.23,85.86-55.38
			C560.35,1664.3,541.71,1626.77,508.16,1611.81z"/>
		<polygon class="st45" points="377.6,1679.86 354.22,1726.75 344.1,1747.07 335.33,1764.69 331.93,1771.5 298.45,1838.72 
			265.32,1905.22 331.93,1924.2 171.99,2104.49 162.1,2115.64 160.33,2117.63 149.98,2129.29 136.85,2144.09 133.04,2148.39 
			127.79,2154.3 126.47,2155.8 130.56,2146.84 131.24,2145.37 137.37,2131.97 148.02,2108.68 154.3,2094.98 214.4,1963.65 
			180.39,1954.55 230.91,1820.62 257.01,1751.42 266.49,1726.28 274.38,1705.36 292.58,1657.07 		"/>
		<linearGradient id="SVGID_40_" gradientUnits="userSpaceOnUse" x1="218.449" y1="1653.6405" x2="748.5215" y2="1844.755">
			<stop  offset="1.393105e-03" style="stop-color:#F30000"/>
			<stop  offset="0.4126" style="stop-color:#D70208"/>
			<stop  offset="1" style="stop-color:#A90614"/>
		</linearGradient>
		<path class="st46" d="M526.32,1544c-3.65-1.3-7.4-2.48-11.22-3.5l0-0.01l-0.29-0.08c0,0-0.01,0-0.01,0c-0.01,0-0.01,0-0.02,0
			l-360.93-96.71l-0.08,0.29l34.6,62.13l205.84,55.16c0,0,0,0,0,0l68.66,18.4l38.66,10.36c50.35,13.52,80.23,65.29,66.75,115.65
			c-12.2,45.49-55.58,74.26-100.95,69.5c-4.84-0.5-9.69-1.38-14.54-2.68c-0.03-0.01-0.06-0.01-0.09-0.02
			c-0.03-0.01-0.06-0.01-0.09-0.02l-34.01-9.11l-34.01-9.11l-21.08-5.65l-0.04-0.01l-7.59,13.74l-2.32,4.22l-14.34,28.7l-3.68,7.36
			l-52.07,95.12l52.22,13.85l55.95-100.28l0.85-1.78l3.34-6.99l0.06-0.13l0,0l0,0l-0.06,0.13l-3.34,6.99l46.46,12.45
			c0.06,0.01,0.12,0.03,0.18,0.05c0.06,0.02,0.13,0.04,0.18,0.05c0.05,0.01,0.1,0.02,0.15,0.04c0.05,0.01,0.1,0.03,0.15,0.04
			l6.9,1.85l0.04-0.18l0,0c14.95,3.21,29.92,3.99,44.46,2.57c58.8-5.65,110.66-46.99,126.86-107.43
			C637.69,1645.11,597.07,1569.3,526.32,1544z"/>
		<g>
			<path class="st4" d="M137.02,2169.87l-6.83-4.27v0.01l-1.37,2.16l-2.28,3.66l-0.01,0.01l-5.74,9.19
				c-0.96,1.54-0.49,3.56,1.04,4.5l1.29,0.81c0,0,0.01,0,0.01,0.01l1.87,1.16c1.52,0.97,3.55,0.5,4.5-1.04l5.72-9.21l0.01-0.01
				l2.28-3.65l1.37-2.19L137.02,2169.87z"/>
			<path class="st4" d="M130.19,2165.61l-1.88-1.18l-1.35,2.18l-2.31,3.65v0.01l-5.74,9.21c-0.96,1.53-0.49,3.55,1.04,4.5l1.88,1.16
				l1.29,0.81c0,0,0.01,0,0.01,0.01c1.52,0.96,3.53,0.49,4.49-1.06l5.74-9.21l2.28-3.66l1.37-2.18L130.19,2165.61z M122.86,2182.86
				c-1.04-0.66-1.35-2.02-0.71-3.06c0.65-1.04,2.02-1.37,3.06-0.71c0.03,0.01,0.06,0.04,0.09,0.06c0.96,0.68,1.24,1.99,0.62,2.99
				c-0.28,0.44-0.68,0.75-1.12,0.91C124.19,2183.28,123.47,2183.24,122.86,2182.86z"/>
		</g>
		<g>
			<path class="st4" d="M118.19,2158.13l-3.56-2.22l-3.27-2.05v0.01l-1.37,2.16l-2.28,3.66l-5.75,9.21
				c-0.96,1.54-0.49,3.56,1.06,4.5l1.28,0.81c0,0,0.01,0,0.01,0.01l1.87,1.16c1.53,0.97,3.55,0.5,4.5-1.04l5.75-9.21l2.28-3.66
				l1.35-2.18L118.19,2158.13z"/>
			<path class="st4" d="M114.63,2155.91l-3.27-2.03l-1.88-1.18l-1.35,2.18l-2.3,3.66l-5.75,9.21c-0.96,1.53-0.49,3.55,1.06,4.52
				l1.88,1.15l1.28,0.81c0,0,0.01,0,0.01,0.01c1.53,0.96,3.53,0.49,4.49-1.06l5.74-9.21l2.28-3.66v-0.01l1.37-2.16L114.63,2155.91z
				 M104.03,2171.12c-1.03-0.66-1.35-2.02-0.71-3.06c0.65-1.04,2.02-1.37,3.06-0.71c0.03,0.01,0.06,0.04,0.09,0.06
				c0.01,0,0.01,0,0.01,0c0.96,0.69,1.22,1.99,0.6,2.99c-0.28,0.44-0.68,0.75-1.12,0.91
				C105.36,2171.54,104.64,2171.5,104.03,2171.12z"/>
		</g>
		<path class="st5" d="M110.26,2142.15c1.97-3.17,6.14-4.13,9.31-2.16l24.6,15.34c3.17,1.97,4.13,6.14,2.16,9.31l-6.31,10.12
			l-36.06-22.49L110.26,2142.15z"/>
		<path class="st6" d="M110.31,2142.08c1.95-3.13,6.07-4.08,9.19-2.13l9.6,5.98c-3.28-2.05-7.6-1.05-9.65,2.24l-6.18,9.91
			l-9.31-5.81L110.31,2142.08z"/>
		<path class="st7" d="M100.8,2155.4l37.8,23.57c0.62,0.38,1.42,0.2,1.81-0.42l3.18-5.1c0.38-0.62,0.2-1.42-0.42-1.81l-37.8-23.57
			c-0.62-0.38-1.42-0.2-1.81,0.42l-3.18,5.1C100,2154.2,100.18,2155.01,100.8,2155.4z"/>
		<circle class="st1" cx="107.24" cy="2169.5" r="2.22"/>
		<linearGradient id="SVGID_41_" gradientUnits="userSpaceOnUse" x1="-12.0147" y1="1830.0023" x2="229.583" y2="1898.515">
			<stop  offset="1.393105e-03" style="stop-color:#F30000"/>
			<stop  offset="0.4126" style="stop-color:#D70208"/>
			<stop  offset="1" style="stop-color:#A90614"/>
		</linearGradient>
		<path class="st47" d="M267.69,1654.6c-29.56-1.85-59.94,1.52-89.92,10.77c-132.98,41-207.52,182.04-166.51,315.02
			c16.54,53.64,49.36,97.77,91.37,128.62c7.05,5.19,14.34,10,21.88,14.42l10.33-22.42l5.4-11.71c0.06-0.18,0.15-0.35,0.25-0.52
			l0.96-2.07l36.16-78.44c0,0,0,0,0,0l1.96-4.37l3.29-7.33c-0.09-0.07-0.17-0.15-0.26-0.23c-24.09-21.36-39.27-52.54-39.27-87.26
			c0-47.92,28.92-89.09,70.25-107.01h0l1.23-3.14c0.03-0.01,0.05-0.02,0.08-0.03l3.61-9.34c-0.65,0.09-1.3,0.19-1.94,0.3
			c0.71-0.13,1.43-0.26,2.14-0.38L267.69,1654.6z M178.29,2006.02l1.02-2.3c0,0,0,0,0,0L178.29,2006.02z"/>
		<linearGradient id="SVGID_42_" gradientUnits="userSpaceOnUse" x1="187.9632" y1="1805.6311" x2="653.1289" y2="2104.9238">
			<stop  offset="1.393105e-03" style="stop-color:#F30000"/>
			<stop  offset="0.4126" style="stop-color:#D70208"/>
			<stop  offset="1" style="stop-color:#A90614"/>
		</linearGradient>
		<path class="st48" d="M445.35,2067.74c1.03-0.49,2-1,2.94-1.56c13.02-7.68,17.45-20.51,17.45-20.51
			c4.52-14.14,20.39-14.37,20.39-14.37l345.53-21.67l-340.02-23.57l-0.65-0.04l-42.06-2.91l44.15-9.97
			c0.75-0.24,1.44-0.52,2.07-0.84c0.4-0.19,0.78-0.4,1.13-0.62c5.97-3.65,6.41-10.24,6.41-10.24l4.63-31.29
			c-0.59-17.73,18.3-12.51,18.3-12.51l347.62-22.14l-365.67-26.07l-6.34-0.46l-29.48-2.09l26.89-12.31
			c-0.85-4.09-1.82-8.18-2.9-12.27c-3.31,0.28-6.65,0.47-10,0.51c-10.83,0.19-21.85-0.87-32.84-3.22c-2.31-0.5-4.62-1.06-6.94-1.68
			c-0.1-0.01-0.21-0.04-0.31-0.07c-0.12-0.03-0.25-0.07-0.37-0.1l-45.37-12.15l-1.88,3.93l-41.33,86.4l-0.07-0.01
			c-0.38,4.94-1.07,9.81-2.06,14.58c-8.47,41.22-38.34,74.62-77.49,88.12l-49.73,56.55l-33.78,38.41l-9.4,10.7l-16.86,19.17
			c7.58,2.72,15.3,5.08,23.13,7.06c43.28,10.95,90.04,10.53,135.82-3.59c23.73-7.31,45.61-17.82,65.28-30.89l311.71-14.61
			l-268.74-18.51l-2.72-0.19l-31.31-2.15l37.31-10.09C440.56,2069.77,443.06,2068.84,445.35,2067.74z"/>
		<g>
			<linearGradient id="SVGID_43_" gradientUnits="userSpaceOnUse" x1="27.6498" y1="1903.3267" x2="148.9628" y2="1903.3267">
				<stop  offset="0" style="stop-color:#FFFFFF"/>
				<stop  offset="1" style="stop-color:#FFFFFF"/>
			</linearGradient>
			<path class="st49" d="M148.96,1705.64c-72.18,38.37-121.31,114.34-121.31,201.77c0,81.61,42.8,153.21,107.19,193.61l5.4-11.71
				c0.06-0.18,0.15-0.35,0.25-0.51l0.96-2.07c-59.67-41.19-98.77-110.04-98.77-188.05C42.67,1817.45,85.07,1746.12,148.96,1705.64z"
				/>
			<linearGradient id="SVGID_44_" gradientUnits="userSpaceOnUse" x1="184.1974" y1="2118.1033" x2="378.1273" y2="2118.1033">
				<stop  offset="0" style="stop-color:#FFFFFF"/>
				<stop  offset="0.9834" style="stop-color:#FFFFFF"/>
			</linearGradient>
			<path class="st50" d="M271.04,2127.04c-27.19,0-53.27-4.75-77.44-13.48l-9.4,10.7c22.58,7.47,46.74,11.52,71.82,11.52
				c44.91,0,86.8-12.96,122.11-35.35C346.19,2117.42,309.75,2127.04,271.04,2127.04z"/>
		</g>
	</g>
	<g>
		<linearGradient id="SVGID_45_" gradientUnits="userSpaceOnUse" x1="1102.6414" y1="1844.1254" x2="3532.406" y2="1947.7201">
			<stop  offset="1.393105e-03" style="stop-color:#F30000"/>
			<stop  offset="0.4126" style="stop-color:#D70208"/>
			<stop  offset="1" style="stop-color:#A90614"/>
		</linearGradient>
		<path class="st51" d="M990.36,1987.46v-169.09h253.64c7.63,0,14.24-2.64,19.81-7.93c5.57-5.57,8.37-12.33,8.37-20.26V1762H990.36
			v-56.36h338.18v112.73c0,15.85-5.58,29.21-16.73,40.07c-11.16,10.86-24.37,16.29-39.63,16.29h-225.46v112.73H990.36z"/>
		<linearGradient id="SVGID_46_" gradientUnits="userSpaceOnUse" x1="1103.407" y1="1826.1656" x2="3533.1716" y2="1929.7603">
			<stop  offset="1.393105e-03" style="stop-color:#F30000"/>
			<stop  offset="0.4126" style="stop-color:#D70208"/>
			<stop  offset="1" style="stop-color:#A90614"/>
		</linearGradient>
		<path class="st52" d="M1384.9,1874.73v-169.09h56.36v169.09H1384.9z M1441.27,1987.46c-15.85,0-29.21-5.43-40.07-16.29
			c-10.86-11.15-16.29-24.51-16.29-40.07h338.18c0,15.85-5.58,29.21-16.73,40.07c-11.16,10.86-24.37,16.29-39.63,16.29H1441.27z
			 M1666.72,1874.73v-169.09h56.36v169.09H1666.72z"/>
		<linearGradient id="SVGID_47_" gradientUnits="userSpaceOnUse" x1="1103.8174" y1="1816.5398" x2="3533.582" y2="1920.1344">
			<stop  offset="1.393105e-03" style="stop-color:#F30000"/>
			<stop  offset="0.4126" style="stop-color:#D70208"/>
			<stop  offset="1" style="stop-color:#A90614"/>
		</linearGradient>
		<path class="st53" d="M1779.45,1987.46v-281.82h56.36v225.46h281.82c0,15.85-5.58,29.21-16.73,40.07
			c-11.16,10.86-24.37,16.29-39.63,16.29H1779.45z"/>
		<linearGradient id="SVGID_48_" gradientUnits="userSpaceOnUse" x1="1104.7891" y1="1793.7517" x2="3534.5537" y2="1897.3463">
			<stop  offset="1.393105e-03" style="stop-color:#F30000"/>
			<stop  offset="0.4126" style="stop-color:#D70208"/>
			<stop  offset="1" style="stop-color:#A90614"/>
		</linearGradient>
		<path class="st54" d="M2174,1987.46c0-15.56,5.43-28.77,16.29-39.63c11.15-11.15,24.51-16.73,40.07-16.73h225.46v-56.36H2174
			v-169.09h338.18c0,15.85-5.58,29.21-16.73,40.07c-11.16,10.86-24.37,16.29-39.63,16.29h-225.46v56.36h281.82v169.09H2174z"/>
		<linearGradient id="SVGID_49_" gradientUnits="userSpaceOnUse" x1="1105.5547" y1="1775.792" x2="3535.3193" y2="1879.3866">
			<stop  offset="1.393105e-03" style="stop-color:#F30000"/>
			<stop  offset="0.4126" style="stop-color:#D70208"/>
			<stop  offset="1" style="stop-color:#A90614"/>
		</linearGradient>
		<path class="st55" d="M2624.91,1762c-15.85,0-29.21-5.43-40.07-16.29c-10.86-11.15-16.29-24.51-16.29-40.07h338.18
			c0,15.85-5.58,29.21-16.73,40.07c-11.16,10.86-24.37,16.29-39.63,16.29H2624.91z M2624.91,1874.73
			c-15.85,0-29.21-5.43-40.07-16.29c-10.86-11.15-16.29-24.51-16.29-40.07h338.18c0,15.85-5.58,29.21-16.73,40.07
			c-11.16,10.86-24.37,16.29-39.63,16.29H2624.91z M2624.91,1987.46c-15.85,0-29.21-5.43-40.07-16.29
			c-10.86-11.15-16.29-24.51-16.29-40.07h338.18c0,15.85-5.58,29.21-16.73,40.07c-11.16,10.86-24.37,16.29-39.63,16.29H2624.91z"/>
		<path class="st45" d="M2963.09,1705.64h56.36V1762c0,15.85-5.58,29.21-16.73,40.07c-11.16,10.86-24.37,16.29-39.63,16.29V1705.64z
			"/>
		<linearGradient id="SVGID_50_" gradientUnits="userSpaceOnUse" x1="1106.4254" y1="1755.3718" x2="3536.1902" y2="1858.9664">
			<stop  offset="1.393105e-03" style="stop-color:#F30000"/>
			<stop  offset="0.4126" style="stop-color:#D70208"/>
			<stop  offset="1" style="stop-color:#A90614"/>
		</linearGradient>
		<path class="st56" d="M3075.82,1987.46v-169.09h281.82V1762h-225.46c-15.56,0-28.92-5.43-40.07-16.29
			c-10.86-10.86-16.29-24.22-16.29-40.07H3414v169.09h-281.82v56.36h225.46c15.26,0,28.47,5.58,39.63,16.73
			c11.15,10.86,16.73,24.07,16.73,39.63H3075.82z"/>
		<linearGradient id="SVGID_51_" gradientUnits="userSpaceOnUse" x1="1106.9368" y1="1743.3782" x2="3536.7014" y2="1846.9728">
			<stop  offset="1.393105e-03" style="stop-color:#F30000"/>
			<stop  offset="0.4126" style="stop-color:#D70208"/>
			<stop  offset="1" style="stop-color:#A90614"/>
		</linearGradient>
		<path class="st57" d="M3622.72,1947.83c-10.86-11.15-24.07-16.73-39.63-16.73V1762v-1.18v-55.18h-112.73
			c0,15.56,5.43,28.92,16.29,40.07c10.86,10.86,24.22,16.29,40.07,16.29v169.09h-56.36v56.36h169.09
			C3639.46,1972.2,3633.88,1958.99,3622.72,1947.83z"/>
	</g>
</g>
<g>
	<path class="st45" d="M1961.7,2364.18c-3.65-1.65-7.46-2.99-11.4-4.05l-32.17-8.62l-261.69-70.12l-0.01,0.03l34.33,62.66
		l158.02,42.34c0,0,0,0,0,0l27.32,7.32l60.84,16.3l0-0.01c0.54,0.15,1.06,0.29,1.58,0.48c12.05,4.1,19.01,16.9,15.67,29.39
		c-3.5,13.05-16.86,20.76-29.88,17.27l-88.17-23.63v0.01l-5-1.34l-85.02-22.79l-18.2,48.28l79.84,21.39l38.77,10.39l10.02,2.69
		l47.84,12.81c0.01,0.01,0.04,0.01,0.06,0.01c0.47,0.18,0.93,0.35,1.4,0.5c1.66,0.59,3.35,1.09,5.09,1.56
		c2.21,0.59,4.44,1.1,6.66,1.47l0.6,0.16l0.01-0.06c38.16,6.35,75.65-17.23,85.86-55.38
		C2013.89,2416.67,1995.25,2379.14,1961.7,2364.18z"/>
	<polygon class="st45" points="1831.14,2432.24 1807.76,2479.12 1797.64,2499.44 1788.87,2517.06 1785.47,2523.88 1751.99,2591.09 
		1718.86,2657.59 1785.47,2676.57 1625.53,2856.86 1615.64,2868.01 1613.87,2870 1603.52,2881.67 1590.39,2896.47 1586.58,2900.76 
		1581.33,2906.68 1580.01,2908.18 1584.1,2899.22 1584.78,2897.75 1590.91,2884.34 1601.56,2861.05 1607.84,2847.36 
		1667.94,2716.03 1633.93,2706.92 1684.45,2573 1710.55,2503.79 1720.03,2478.65 1727.92,2457.73 1746.12,2409.45 	"/>
	<linearGradient id="SVGID_52_" gradientUnits="userSpaceOnUse" x1="1671.989" y1="2406.0146" x2="2202.0615" y2="2597.1292">
		<stop  offset="1.393105e-03" style="stop-color:#F30000"/>
		<stop  offset="0.4126" style="stop-color:#D70208"/>
		<stop  offset="1" style="stop-color:#A90614"/>
	</linearGradient>
	<path class="st58" d="M1979.86,2296.37c-3.65-1.3-7.4-2.48-11.22-3.5l0-0.01l-0.29-0.08c0,0-0.01,0-0.01,0c-0.01,0-0.01,0-0.02,0
		l-360.93-96.71l-0.08,0.29l34.6,62.13l205.84,55.16c0,0,0,0,0,0l68.66,18.4l38.66,10.36c50.35,13.52,80.23,65.29,66.75,115.65
		c-12.2,45.49-55.58,74.26-100.95,69.5c-4.84-0.5-9.69-1.38-14.54-2.68c-0.03-0.01-0.06-0.01-0.09-0.02
		c-0.03-0.01-0.06-0.01-0.09-0.02l-34.01-9.11l-34.01-9.11l-21.08-5.65l-0.04-0.01l-7.59,13.74l-2.32,4.22l-14.34,28.7l-3.68,7.36
		l-52.07,95.12l52.22,13.85l55.95-100.28l0.85-1.78l3.34-6.99l0.06-0.13l0,0l0,0l-0.06,0.13l-3.34,6.99l46.46,12.45
		c0.06,0.01,0.12,0.03,0.18,0.05c0.06,0.02,0.13,0.04,0.18,0.05c0.05,0.01,0.1,0.02,0.15,0.04s0.1,0.03,0.15,0.04l6.9,1.85
		l0.04-0.18l0,0c14.95,3.21,29.92,3.99,44.46,2.57c58.8-5.65,110.66-46.99,126.86-107.43
		C2091.23,2397.49,2050.61,2321.68,1979.86,2296.37z"/>
	<g>
		<path class="st4" d="M1590.56,2922.24l-6.83-4.27v0.01l-1.37,2.16l-2.28,3.66l-0.01,0.01l-5.74,9.19
			c-0.96,1.54-0.49,3.56,1.04,4.5l1.29,0.81c0,0,0.01,0,0.01,0.01l1.87,1.16c1.52,0.97,3.55,0.5,4.5-1.04l5.72-9.21l0.01-0.01
			l2.28-3.65l1.37-2.19L1590.56,2922.24z"/>
		<path class="st4" d="M1583.73,2917.99l-1.88-1.18l-1.35,2.18l-2.31,3.65v0.01l-5.74,9.21c-0.96,1.53-0.49,3.55,1.04,4.5l1.88,1.16
			l1.29,0.81c0,0,0.01,0,0.01,0.01c1.52,0.96,3.53,0.49,4.49-1.06l5.74-9.21l2.28-3.66l1.37-2.18L1583.73,2917.99z M1576.4,2935.23
			c-1.04-0.66-1.35-2.02-0.71-3.06s2.02-1.37,3.06-0.71c0.03,0.01,0.06,0.04,0.09,0.06c0.96,0.68,1.24,1.99,0.62,2.99
			c-0.28,0.44-0.68,0.75-1.12,0.91C1577.73,2935.66,1577.01,2935.61,1576.4,2935.23z"/>
	</g>
	<g>
		<path class="st4" d="M1571.73,2910.5l-3.56-2.22l-3.27-2.04v0.01l-1.37,2.16l-2.28,3.66l-5.75,9.21c-0.96,1.54-0.49,3.56,1.06,4.5
			l1.28,0.81c0,0,0.01,0,0.01,0.01l1.87,1.16c1.53,0.97,3.55,0.5,4.5-1.04l5.75-9.21l2.28-3.66l1.35-2.18L1571.73,2910.5z"/>
		<path class="st4" d="M1568.17,2908.28l-3.27-2.03l-1.88-1.18l-1.35,2.18l-2.29,3.66l-5.75,9.21c-0.96,1.53-0.49,3.55,1.06,4.52
			l1.88,1.15l1.28,0.81c0,0,0.01,0,0.01,0.01c1.53,0.96,3.53,0.49,4.49-1.06l5.74-9.21l2.28-3.66v-0.01l1.37-2.16L1568.17,2908.28z
			 M1557.57,2923.49c-1.03-0.66-1.35-2.02-0.71-3.06c0.65-1.04,2.02-1.37,3.06-0.71c0.03,0.01,0.06,0.04,0.09,0.06
			c0.01,0,0.01,0,0.01,0c0.96,0.69,1.22,1.99,0.6,2.99c-0.28,0.44-0.68,0.75-1.12,0.91
			C1558.9,2923.92,1558.18,2923.87,1557.57,2923.49z"/>
	</g>
	<path class="st5" d="M1563.8,2894.53c1.97-3.17,6.14-4.13,9.31-2.16l24.6,15.34c3.17,1.97,4.13,6.14,2.16,9.31l-6.31,10.12
		l-36.06-22.49L1563.8,2894.53z"/>
	<path class="st6" d="M1563.85,2894.46c1.95-3.13,6.07-4.08,9.19-2.13l9.6,5.98c-3.28-2.05-7.6-1.05-9.65,2.24l-6.18,9.91
		l-9.31-5.81L1563.85,2894.46z"/>
	<path class="st7" d="M1554.34,2907.77l37.8,23.57c0.61,0.38,1.42,0.2,1.81-0.42l3.18-5.1c0.38-0.61,0.2-1.42-0.42-1.81l-37.8-23.57
		c-0.62-0.38-1.42-0.2-1.81,0.42l-3.18,5.1C1553.54,2906.58,1553.72,2907.39,1554.34,2907.77z"/>
	<circle class="st1" cx="1560.78" cy="2921.87" r="2.22"/>
	<linearGradient id="SVGID_53_" gradientUnits="userSpaceOnUse" x1="1441.5253" y1="2582.3765" x2="1683.1229" y2="2650.8892">
		<stop  offset="1.393105e-03" style="stop-color:#F30000"/>
		<stop  offset="0.4126" style="stop-color:#D70208"/>
		<stop  offset="1" style="stop-color:#A90614"/>
	</linearGradient>
	<path class="st59" d="M1721.23,2406.98c-29.56-1.85-59.94,1.52-89.92,10.77c-132.98,41-207.52,182.04-166.51,315.02
		c16.54,53.64,49.36,97.77,91.37,128.62c7.05,5.19,14.34,10,21.88,14.42l10.33-22.42l5.4-11.71c0.06-0.18,0.15-0.35,0.25-0.51
		l0.96-2.07l36.16-78.44c0,0,0,0,0,0l1.96-4.37l3.29-7.33c-0.09-0.07-0.17-0.15-0.26-0.23c-24.09-21.36-39.27-52.54-39.27-87.26
		c0-47.92,28.92-89.09,70.25-107.01h0l1.23-3.14c0.03-0.01,0.05-0.02,0.08-0.03l3.61-9.34c-0.65,0.09-1.3,0.19-1.94,0.3
		c0.71-0.13,1.43-0.26,2.14-0.38L1721.23,2406.98z M1631.83,2758.39l1.02-2.3c0,0,0,0,0,0L1631.83,2758.39z"/>
	<linearGradient id="SVGID_54_" gradientUnits="userSpaceOnUse" x1="1641.5032" y1="2558.0054" x2="2106.6689" y2="2857.2979">
		<stop  offset="1.393105e-03" style="stop-color:#F30000"/>
		<stop  offset="0.4126" style="stop-color:#D70208"/>
		<stop  offset="1" style="stop-color:#A90614"/>
	</linearGradient>
	<path class="st60" d="M1898.89,2820.11c1.03-0.49,2-1,2.94-1.56c13.02-7.68,17.45-20.51,17.45-20.51
		c4.52-14.14,20.39-14.37,20.39-14.37L2285.2,2762l-340.02-23.57l-0.65-0.04l-42.06-2.91l44.15-9.97c0.75-0.24,1.44-0.52,2.07-0.84
		c0.4-0.19,0.78-0.4,1.13-0.62c5.97-3.65,6.41-10.24,6.41-10.24l4.63-31.29c-0.59-17.73,18.3-12.51,18.3-12.51l347.62-22.14
		l-365.67-26.07l-6.34-0.46l-29.48-2.09l26.89-12.31c-0.85-4.09-1.82-8.18-2.9-12.27c-3.31,0.28-6.65,0.47-10,0.51
		c-10.83,0.19-21.85-0.87-32.84-3.22c-2.31-0.5-4.62-1.06-6.94-1.68c-0.1-0.01-0.21-0.04-0.31-0.07c-0.12-0.03-0.25-0.07-0.37-0.1
		l-45.37-12.15l-1.88,3.93l-41.33,86.4l-0.07-0.01c-0.38,4.94-1.07,9.81-2.06,14.58c-8.47,41.22-38.34,74.62-77.49,88.12
		l-49.73,56.55l-33.78,38.41l-9.4,10.7l-16.86,19.17c7.58,2.72,15.3,5.08,23.13,7.06c43.28,10.95,90.04,10.53,135.82-3.59
		c23.73-7.31,45.61-17.82,65.28-30.89l311.71-14.61l-268.74-18.51l-2.72-0.19l-31.31-2.15l37.31-10.09
		C1894.1,2822.14,1896.6,2821.22,1898.89,2820.11z"/>
	<g>
		<linearGradient id="SVGID_55_" gradientUnits="userSpaceOnUse" x1="1481.1898" y1="2655.7009" x2="1602.5027" y2="2655.7009">
			<stop  offset="0" style="stop-color:#FFFFFF"/>
			<stop  offset="1" style="stop-color:#FFFFFF"/>
		</linearGradient>
		<path class="st61" d="M1602.5,2458.01c-72.18,38.37-121.31,114.34-121.31,201.77c0,81.61,42.8,153.21,107.19,193.61l5.4-11.71
			c0.06-0.18,0.15-0.35,0.25-0.52l0.96-2.07c-59.67-41.19-98.77-110.04-98.77-188.05C1496.21,2569.82,1538.61,2498.5,1602.5,2458.01
			z"/>
		<linearGradient id="SVGID_56_" gradientUnits="userSpaceOnUse" x1="1637.7373" y1="2870.4775" x2="1831.6672" y2="2870.4775">
			<stop  offset="0" style="stop-color:#FFFFFF"/>
			<stop  offset="0.9834" style="stop-color:#FFFFFF"/>
		</linearGradient>
		<path class="st62" d="M1724.58,2879.41c-27.19,0-53.27-4.75-77.44-13.48l-9.4,10.7c22.58,7.47,46.74,11.52,71.82,11.52
			c44.91,0,86.8-12.96,122.11-35.35C1799.73,2869.79,1763.29,2879.41,1724.58,2879.41z"/>
	</g>
</g>
</svg>
