<?xml version="1.0" encoding="utf-8"?>
<!-- Generator: Adobe Illustrator 24.2.3, SVG Export Plug-In . SVG Version: 6.00 Build 0)  -->
<svg version="1.1" id="Layer_1" xmlns="http://www.w3.org/2000/svg" xmlns:xlink="http://www.w3.org/1999/xlink" x="0px" y="0px"
	 viewBox="0 0 3639.46 743.95" style="enable-background:new 0 0 3639.46 743.95;" xml:space="preserve">
<style type="text/css">
	.st0{fill:url(#SVGID_1_);}
	.st1{fill:#1F1F1F;}
	.st2{fill:#141414;}
	.st3{fill:url(#SVGID_2_);}
	.st4{fill:#656464;}
	.st5{fill:#262626;}
	.st6{fill:#B82025;}
	.st7{fill:#CC2127;}
	.st8{fill:url(#SVGID_3_);}
	.st9{fill:url(#SVGID_4_);}
	.st10{fill:url(#SVGID_5_);}
	.st11{fill:url(#SVGID_6_);}
	.st12{fill:url(#SVGID_7_);}
	.st13{fill:url(#SVGID_8_);}
	.st14{fill:url(#SVGID_9_);}
	.st15{fill:url(#SVGID_10_);}
	.st16{fill:url(#SVGID_11_);}
	.st17{fill:url(#SVGID_12_);}
	.st18{fill:url(#SVGID_13_);}
	.st19{fill:url(#SVGID_14_);}
	.st20{fill:url(#SVGID_15_);}
	.st21{fill:url(#SVGID_16_);}
	.st22{fill:url(#SVGID_17_);}
	.st23{fill:url(#SVGID_18_);}
	.st24{fill:url(#SVGID_19_);}
	.st25{fill:url(#SVGID_20_);}
	.st26{fill:url(#SVGID_21_);}
	.st27{fill:url(#SVGID_22_);}
	.st28{fill:url(#SVGID_23_);}
	.st29{fill:url(#SVGID_24_);}
	.st30{fill:url(#SVGID_25_);}
	.st31{fill:url(#SVGID_26_);}
	.st32{fill:url(#SVGID_27_);}
	.st33{fill:url(#SVGID_28_);}
	.st34{fill:url(#SVGID_29_);}
	.st35{fill:url(#SVGID_30_);}
	.st36{fill:url(#SVGID_31_);}
	.st37{fill:url(#SVGID_32_);}
	.st38{fill:url(#SVGID_33_);}
	.st39{fill:url(#SVGID_34_);}
	.st40{fill:url(#SVGID_35_);}
	.st41{fill:url(#SVGID_36_);}
	.st42{fill:url(#SVGID_37_);}
	.st43{fill:url(#SVGID_38_);}
	.st44{fill:url(#SVGID_39_);}
	.st45{fill:#FFFFFF;}
	.st46{fill:url(#SVGID_40_);}
	.st47{fill:url(#SVGID_41_);}
	.st48{fill:url(#SVGID_42_);}
	.st49{fill:url(#SVGID_43_);}
	.st50{fill:url(#SVGID_44_);}
	.st51{fill:url(#SVGID_45_);}
	.st52{fill:url(#SVGID_46_);}
	.st53{fill:url(#SVGID_47_);}
	.st54{fill:url(#SVGID_48_);}
	.st55{fill:url(#SVGID_49_);}
	.st56{fill:url(#SVGID_50_);}
	.st57{fill:url(#SVGID_51_);}
	.st58{fill:url(#SVGID_52_);}
	.st59{fill:url(#SVGID_53_);}
	.st60{fill:url(#SVGID_54_);}
	.st61{fill:url(#SVGID_55_);}
	.st62{fill:url(#SVGID_56_);}
</style>
<radialGradient id="SVGID_1_" cx="9006.584" cy="4316.8755" r="256.145" fx="8829.7256" fy="4324.4834" gradientTransform="matrix(-1.5044 0.0204 1.543144e-03 0.1138 15456.3105 -4783.062)" gradientUnits="userSpaceOnUse">
	<stop  offset="5.650000e-03" style="stop-color:#C3C6C7"/>
	<stop  offset="0.2127" style="stop-color:#D2D4D5"/>
	<stop  offset="0.7205" style="stop-color:#F3F3F4"/>
	<stop  offset="1" style="stop-color:#FFFFFF"/>
</radialGradient>
<path class="st0" d="M1524.18-4104.2c0.22,16.08,173.06,26.75,386.07,23.86c213.04-2.89,385.54-18.24,385.32-34.32
	c-0.22-16.09-173.08-26.8-386.11-23.92C1696.45-4135.69,1523.96-4120.29,1524.18-4104.2z"/>
<circle class="st1" cx="126.07" cy="-2636.99" r="2.22"/>
<g>
	<path class="st2" d="M508.16-3206.42c-3.65-1.65-7.46-2.99-11.4-4.05l-32.17-8.62L202.9-3289.2l-0.01,0.03l34.33,62.66
		l158.02,42.34c0,0,0,0,0,0l27.32,7.32l60.84,16.3l0,0c0.54,0.15,1.06,0.29,1.58,0.48c12.05,4.1,19.01,16.9,15.67,29.39
		c-3.5,13.05-16.86,20.76-29.88,17.27l-88.17-23.63v0.01l-5-1.34l-85.02-22.79l-18.2,48.28l79.84,21.39l38.77,10.39l10.02,2.69
		l47.84,12.81c0.01,0.01,0.04,0.01,0.06,0.01c0.47,0.18,0.93,0.35,1.4,0.5c1.66,0.59,3.35,1.09,5.09,1.56
		c2.21,0.59,4.44,1.1,6.66,1.47l0.6,0.16l0.01-0.06c38.16,6.36,75.65-17.23,85.86-55.38
		C560.35-3153.93,541.71-3191.46,508.16-3206.42z"/>
	<polygon class="st2" points="377.6,-3138.36 354.22,-3091.48 344.1,-3071.16 335.33,-3053.54 331.93,-3046.72 298.45,-2979.51 
		265.32,-2913.01 331.93,-2894.03 171.99,-2713.74 162.1,-2702.59 160.33,-2700.6 149.98,-2688.94 136.85,-2674.14 133.04,-2669.84 
		127.79,-2663.93 126.47,-2662.43 130.56,-2671.38 131.24,-2672.86 137.37,-2686.26 148.02,-2709.55 154.3,-2723.24 214.4,-2854.57 
		180.39,-2863.68 230.91,-2997.6 257.01,-3066.81 266.49,-3091.95 274.38,-3112.87 292.58,-3161.15 	"/>
	<linearGradient id="SVGID_2_" gradientUnits="userSpaceOnUse" x1="751.0233" y1="-2959.3362" x2="315.294" y2="-3133.1599">
		<stop  offset="0" style="stop-color:#000000"/>
		<stop  offset="0.4296" style="stop-color:#A73029"/>
		<stop  offset="1" style="stop-color:#EA1F27"/>
	</linearGradient>
	<path class="st3" d="M526.32-3274.23c-3.65-1.3-7.4-2.48-11.22-3.5l0-0.01l-0.29-0.08c0,0-0.01,0-0.01,0c-0.01,0-0.01,0-0.02,0
		l-360.93-96.71l-0.08,0.29l34.6,62.13l205.84,55.16c0,0,0,0,0,0l68.66,18.4l38.66,10.36c50.35,13.52,80.23,65.29,66.75,115.65
		c-12.2,45.49-55.58,74.26-100.95,69.5c-4.84-0.5-9.69-1.38-14.54-2.68c-0.03-0.01-0.06-0.01-0.09-0.02
		c-0.03-0.01-0.06-0.01-0.09-0.02l-34.01-9.11l-34.01-9.11l-21.08-5.65l-0.04-0.01l-7.59,13.74l-2.32,4.22l-14.34,28.7l-3.68,7.36
		l-52.07,95.12l52.22,13.85l55.95-100.28l0.85-1.78l3.34-6.99l0.06-0.13l0,0l0,0l-0.06,0.13l-3.34,6.99l46.46,12.45
		c0.06,0.01,0.12,0.03,0.18,0.05c0.06,0.02,0.13,0.04,0.18,0.05c0.05,0.01,0.1,0.02,0.15,0.04c0.05,0.01,0.1,0.03,0.15,0.04
		l6.9,1.85l0.04-0.18l0,0c14.95,3.21,29.92,3.99,44.46,2.57c58.8-5.65,110.66-46.99,126.86-107.43
		C637.69-3173.11,597.07-3248.92,526.32-3274.23z"/>
	<g>
		<path class="st4" d="M137.02-2648.36l-6.83-4.27v0.01l-1.37,2.16l-2.28,3.66l-0.01,0.01l-5.74,9.19c-0.96,1.54-0.49,3.56,1.04,4.5
			l1.29,0.81c0,0,0.01,0,0.01,0.01l1.87,1.16c1.52,0.97,3.55,0.5,4.5-1.04l5.72-9.21l0.01-0.01l2.28-3.65l1.37-2.19L137.02-2648.36z
			"/>
		<path class="st4" d="M130.19-2652.61l-1.88-1.18l-1.35,2.18l-2.31,3.65v0.01l-5.74,9.21c-0.96,1.53-0.49,3.55,1.04,4.5l1.88,1.16
			l1.29,0.81c0,0,0.01,0,0.01,0.01c1.52,0.96,3.53,0.49,4.49-1.06l5.74-9.21l2.28-3.66l1.37-2.18L130.19-2652.61z M122.86-2635.37
			c-1.04-0.66-1.35-2.02-0.71-3.06c0.65-1.04,2.02-1.37,3.06-0.71c0.03,0.01,0.06,0.04,0.09,0.06c0.96,0.68,1.24,1.99,0.62,2.99
			c-0.28,0.44-0.68,0.75-1.12,0.91C124.19-2634.94,123.47-2634.99,122.86-2635.37z"/>
	</g>
	<g>
		<path class="st4" d="M118.19-2660.1l-3.56-2.22l-3.27-2.05v0.01l-1.37,2.16l-2.28,3.66l-5.75,9.21c-0.96,1.54-0.49,3.56,1.06,4.5
			l1.28,0.81c0,0,0.01,0,0.01,0.01l1.87,1.16c1.53,0.97,3.55,0.5,4.5-1.04l5.75-9.21l2.28-3.66l1.35-2.18L118.19-2660.1z"/>
		<path class="st4" d="M114.63-2662.32l-3.27-2.03l-1.88-1.18l-1.35,2.18l-2.3,3.66l-5.75,9.21c-0.96,1.53-0.49,3.55,1.06,4.52
			l1.88,1.15l1.28,0.81c0,0,0.01,0,0.01,0.01c1.53,0.96,3.53,0.49,4.49-1.06l5.74-9.21l2.28-3.66v-0.01l1.37-2.16L114.63-2662.32z
			 M104.03-2647.11c-1.03-0.66-1.35-2.02-0.71-3.06c0.65-1.04,2.02-1.37,3.06-0.71c0.03,0.01,0.06,0.04,0.09,0.06
			c0.01,0,0.01,0,0.01,0c0.96,0.69,1.22,1.99,0.6,2.99c-0.28,0.44-0.68,0.75-1.12,0.91
			C105.36-2646.68,104.64-2646.73,104.03-2647.11z"/>
	</g>
	<path class="st5" d="M110.26-2676.07c1.97-3.17,6.14-4.13,9.31-2.16l24.6,15.34c3.17,1.97,4.13,6.14,2.16,9.31l-6.31,10.12
		l-36.06-22.49L110.26-2676.07z"/>
	<path class="st6" d="M110.31-2676.15c1.95-3.13,6.07-4.08,9.19-2.13l9.6,5.98c-3.28-2.05-7.6-1.05-9.65,2.24l-6.18,9.91l-9.31-5.81
		L110.31-2676.15z"/>
	<path class="st7" d="M100.8-2662.83l37.8,23.57c0.62,0.38,1.42,0.2,1.81-0.42l3.18-5.1c0.38-0.62,0.2-1.42-0.42-1.81l-37.8-23.57
		c-0.62-0.38-1.42-0.2-1.81,0.42l-3.18,5.1C100-2664.02,100.18-2663.21,100.8-2662.83z"/>
	<circle class="st1" cx="107.24" cy="-2648.73" r="2.22"/>
	<linearGradient id="SVGID_3_" gradientUnits="userSpaceOnUse" x1="310.5766" y1="-2882.2998" x2="80.5697" y2="-2976.5461">
		<stop  offset="0" style="stop-color:#000000"/>
		<stop  offset="0.2464" style="stop-color:#7E3026"/>
		<stop  offset="1" style="stop-color:#EA1F27"/>
	</linearGradient>
	<path class="st8" d="M267.69-3163.62c-29.56-1.85-59.94,1.52-89.92,10.77c-132.98,41-207.52,182.04-166.51,315.02
		c16.54,53.64,49.36,97.77,91.37,128.62c7.05,5.19,14.34,10,21.88,14.42l10.33-22.42l5.4-11.71c0.06-0.18,0.15-0.35,0.25-0.52
		l0.96-2.07l36.16-78.44c0,0,0,0,0,0l1.96-4.37l3.29-7.33c-0.09-0.07-0.17-0.15-0.26-0.23c-24.09-21.36-39.27-52.54-39.27-87.26
		c0-47.92,28.92-89.09,70.25-107.01h0l1.23-3.14c0.03-0.01,0.05-0.02,0.08-0.03l3.61-9.34c-0.65,0.09-1.3,0.19-1.94,0.3
		c0.71-0.13,1.43-0.26,2.14-0.38L267.69-3163.62z M178.29-2812.21l1.02-2.3c0,0,0,0,0,0L178.29-2812.21z"/>
	<linearGradient id="SVGID_4_" gradientUnits="userSpaceOnUse" x1="912.5836" y1="-2629.1257" x2="157.1113" y2="-2955.8254">
		<stop  offset="0" style="stop-color:#000000"/>
		<stop  offset="0.0851" style="stop-color:#230D0B"/>
		<stop  offset="0.3045" style="stop-color:#792F26"/>
		<stop  offset="0.3767" style="stop-color:#872D26"/>
		<stop  offset="0.7522" style="stop-color:#CE2327"/>
		<stop  offset="0.9271" style="stop-color:#EA1F27"/>
	</linearGradient>
	<path class="st9" d="M445.35-2750.49c1.03-0.49,2-1,2.94-1.56c13.02-7.68,17.45-20.51,17.45-20.51
		c4.52-14.14,20.39-14.37,20.39-14.37l345.53-21.67l-340.02-23.57l-0.65-0.04l-42.06-2.91l44.15-9.97c0.75-0.24,1.44-0.51,2.07-0.84
		c0.4-0.19,0.78-0.4,1.13-0.62c5.97-3.65,6.41-10.24,6.41-10.24l4.63-31.29c-0.59-17.73,18.3-12.5,18.3-12.5l347.62-22.14
		l-365.67-26.07l-6.34-0.46l-29.48-2.09l26.89-12.31c-0.85-4.09-1.82-8.18-2.9-12.27c-3.31,0.28-6.65,0.47-10,0.51
		c-10.83,0.19-21.85-0.87-32.84-3.22c-2.31-0.5-4.62-1.06-6.94-1.68c-0.1-0.01-0.21-0.04-0.31-0.07c-0.12-0.03-0.25-0.07-0.37-0.1
		l-45.37-12.15l-1.88,3.93l-41.33,86.4l-0.07-0.01c-0.38,4.94-1.07,9.81-2.06,14.58c-8.47,41.22-38.34,74.62-77.49,88.12
		l-49.73,56.55l-33.78,38.41l-9.4,10.7l-16.86,19.17c7.58,2.72,15.3,5.08,23.13,7.06c43.28,10.95,90.04,10.53,135.82-3.59
		c23.73-7.31,45.61-17.82,65.28-30.89l311.71-14.61l-268.74-18.51l-2.72-0.19l-31.31-2.15l37.31-10.09
		C440.56-2748.46,443.06-2749.39,445.35-2750.49z"/>
	<g>
		<linearGradient id="SVGID_5_" gradientUnits="userSpaceOnUse" x1="27.6498" y1="-2914.9004" x2="148.9628" y2="-2914.9004">
			<stop  offset="0" style="stop-color:#FFFFFF"/>
			<stop  offset="1" style="stop-color:#FFFFFF"/>
		</linearGradient>
		<path class="st10" d="M148.96-3112.59c-72.18,38.37-121.31,114.34-121.31,201.77c0,81.61,42.8,153.21,107.19,193.61l5.4-11.71
			c0.06-0.18,0.15-0.35,0.25-0.51l0.96-2.07c-59.67-41.19-98.77-110.04-98.77-188.05C42.67-3000.78,85.07-3072.1,148.96-3112.59z"/>
		<linearGradient id="SVGID_6_" gradientUnits="userSpaceOnUse" x1="184.1974" y1="-2700.1238" x2="378.1273" y2="-2700.1238">
			<stop  offset="0" style="stop-color:#FFFFFF"/>
			<stop  offset="0.9834" style="stop-color:#FFFFFF"/>
		</linearGradient>
		<path class="st11" d="M271.04-2691.19c-27.19,0-53.27-4.75-77.44-13.48l-9.4,10.7c22.58,7.47,46.74,11.52,71.82,11.52
			c44.91,0,86.8-12.96,122.11-35.35C346.19-2700.81,309.75-2691.19,271.04-2691.19z"/>
	</g>
</g>
<g>
	<linearGradient id="SVGID_7_" gradientUnits="userSpaceOnUse" x1="1102.6414" y1="-2974.1016" x2="3532.406" y2="-2870.5071">
		<stop  offset="1.393105e-03" style="stop-color:#F30000"/>
		<stop  offset="0.4126" style="stop-color:#D70208"/>
		<stop  offset="1" style="stop-color:#A90614"/>
	</linearGradient>
	<path class="st12" d="M990.36-2830.77v-169.09h253.64c7.63,0,14.24-2.64,19.81-7.93c5.57-5.57,8.37-12.33,8.37-20.26v-28.18H990.36
		v-56.36h338.18v112.73c0,15.85-5.58,29.21-16.73,40.07c-11.16,10.86-24.37,16.29-39.63,16.29h-225.46v112.73H990.36z"/>
	<linearGradient id="SVGID_8_" gradientUnits="userSpaceOnUse" x1="1103.407" y1="-2992.0613" x2="3533.1716" y2="-2888.4668">
		<stop  offset="1.393105e-03" style="stop-color:#F30000"/>
		<stop  offset="0.4126" style="stop-color:#D70208"/>
		<stop  offset="1" style="stop-color:#A90614"/>
	</linearGradient>
	<path class="st13" d="M1384.9-2943.5v-169.09h56.36v169.09H1384.9z M1441.27-2830.77c-15.85,0-29.21-5.43-40.07-16.29
		c-10.86-11.15-16.29-24.51-16.29-40.07h338.18c0,15.85-5.58,29.21-16.73,40.07c-11.16,10.86-24.37,16.29-39.63,16.29H1441.27z
		 M1666.72-2943.5v-169.09h56.36v169.09H1666.72z"/>
	<linearGradient id="SVGID_9_" gradientUnits="userSpaceOnUse" x1="1103.8174" y1="-3001.6873" x2="3533.582" y2="-2898.0928">
		<stop  offset="1.393105e-03" style="stop-color:#F30000"/>
		<stop  offset="0.4126" style="stop-color:#D70208"/>
		<stop  offset="1" style="stop-color:#A90614"/>
	</linearGradient>
	<path class="st14" d="M1779.45-2830.77v-281.82h56.36v225.46h281.82c0,15.85-5.58,29.21-16.73,40.07
		c-11.16,10.86-24.37,16.29-39.63,16.29H1779.45z"/>
	<linearGradient id="SVGID_10_" gradientUnits="userSpaceOnUse" x1="1104.7891" y1="-3024.4753" x2="3534.5537" y2="-2920.8809">
		<stop  offset="1.393105e-03" style="stop-color:#F30000"/>
		<stop  offset="0.4126" style="stop-color:#D70208"/>
		<stop  offset="1" style="stop-color:#A90614"/>
	</linearGradient>
	<path class="st15" d="M2174-2830.77c0-15.56,5.43-28.77,16.29-39.63c11.15-11.15,24.51-16.73,40.07-16.73h225.46v-56.36H2174
		v-169.09h338.18c0,15.85-5.58,29.21-16.73,40.07c-11.16,10.86-24.37,16.29-39.63,16.29h-225.46v56.36h281.82v169.09H2174z"/>
	<linearGradient id="SVGID_11_" gradientUnits="userSpaceOnUse" x1="1105.5547" y1="-3042.4351" x2="3535.3193" y2="-2938.8403">
		<stop  offset="1.393105e-03" style="stop-color:#F30000"/>
		<stop  offset="0.4126" style="stop-color:#D70208"/>
		<stop  offset="1" style="stop-color:#A90614"/>
	</linearGradient>
	<path class="st16" d="M2624.91-3056.23c-15.85,0-29.21-5.43-40.07-16.29c-10.86-11.15-16.29-24.51-16.29-40.07h338.18
		c0,15.85-5.58,29.21-16.73,40.07c-11.16,10.86-24.37,16.29-39.63,16.29H2624.91z M2624.91-2943.5c-15.85,0-29.21-5.43-40.07-16.29
		c-10.86-11.15-16.29-24.51-16.29-40.07h338.18c0,15.85-5.58,29.21-16.73,40.07c-11.16,10.86-24.37,16.29-39.63,16.29H2624.91z
		 M2624.91-2830.77c-15.85,0-29.21-5.43-40.07-16.29c-10.86-11.15-16.29-24.51-16.29-40.07h338.18c0,15.85-5.58,29.21-16.73,40.07
		c-11.16,10.86-24.37,16.29-39.63,16.29H2624.91z"/>
	<linearGradient id="SVGID_12_" gradientUnits="userSpaceOnUse" x1="1109.5632" y1="-3136.4536" x2="3539.3279" y2="-3032.8589">
		<stop  offset="1.393105e-03" style="stop-color:#F30000"/>
		<stop  offset="0.4126" style="stop-color:#D70208"/>
		<stop  offset="1" style="stop-color:#A90614"/>
	</linearGradient>
	<path class="st17" d="M2963.09-3112.59h56.36v56.36c0,15.85-5.58,29.21-16.73,40.07c-11.16,10.86-24.37,16.29-39.63,16.29V-3112.59
		z"/>
	<linearGradient id="SVGID_13_" gradientUnits="userSpaceOnUse" x1="1106.4254" y1="-3062.8552" x2="3536.1902" y2="-2959.2607">
		<stop  offset="1.393105e-03" style="stop-color:#F30000"/>
		<stop  offset="0.4126" style="stop-color:#D70208"/>
		<stop  offset="1" style="stop-color:#A90614"/>
	</linearGradient>
	<path class="st18" d="M3075.82-2830.77v-169.09h281.82v-56.36h-225.46c-15.56,0-28.92-5.43-40.07-16.29
		c-10.86-10.86-16.29-24.22-16.29-40.07H3414v169.09h-281.82v56.36h225.46c15.26,0,28.47,5.58,39.63,16.73
		c11.15,10.86,16.73,24.07,16.73,39.63H3075.82z"/>
	<linearGradient id="SVGID_14_" gradientUnits="userSpaceOnUse" x1="1106.9368" y1="-3074.8489" x2="3536.7014" y2="-2971.2542">
		<stop  offset="1.393105e-03" style="stop-color:#F30000"/>
		<stop  offset="0.4126" style="stop-color:#D70208"/>
		<stop  offset="1" style="stop-color:#A90614"/>
	</linearGradient>
	<path class="st19" d="M3622.72-2870.4c-10.86-11.15-24.07-16.73-39.63-16.73v-169.09v-1.18v-55.18h-112.73
		c0,15.56,5.43,28.92,16.29,40.07c10.86,10.86,24.22,16.29,40.07,16.29v169.09h-56.36v56.36h169.09
		C3639.46-2846.03,3633.88-2859.24,3622.72-2870.4z"/>
</g>
<g>
	<path d="M508.16-2162.74c-3.65-1.65-7.46-2.99-11.4-4.05l-32.17-8.62l-261.69-70.12l-0.01,0.03l34.33,62.66l158.02,42.34
		c0,0,0,0,0,0l27.32,7.32l60.84,16.3l0-0.01c0.54,0.15,1.06,0.29,1.58,0.48c12.05,4.1,19.01,16.9,15.67,29.39
		c-3.5,13.05-16.86,20.76-29.88,17.27l-88.17-23.63v0.01l-5-1.34l-85.02-22.79l-18.2,48.28l79.84,21.39l38.77,10.39l10.02,2.69
		l47.84,12.81c0.01,0.01,0.04,0.01,0.06,0.01c0.47,0.18,0.93,0.35,1.4,0.5c1.66,0.59,3.35,1.09,5.09,1.56
		c2.21,0.59,4.44,1.1,6.66,1.47l0.6,0.16l0.01-0.06c38.16,6.36,75.65-17.23,85.86-55.38
		C560.35-2110.25,541.71-2147.78,508.16-2162.74z"/>
	<polygon points="377.6,-2094.68 354.22,-2047.79 344.1,-2027.48 335.33,-2009.85 331.93,-2003.04 298.45,-1935.82 265.32,-1869.33 
		331.93,-1850.35 171.99,-1670.06 162.1,-1658.9 160.33,-1656.92 149.98,-1645.25 136.85,-1630.45 133.04,-1626.16 127.79,-1620.24 
		126.47,-1618.74 130.56,-1627.7 131.24,-1629.17 137.37,-1642.57 148.02,-1665.86 154.3,-1679.56 214.4,-1810.89 180.39,-1820 
		230.91,-1953.92 257.01,-2023.12 266.49,-2048.27 274.38,-2069.19 292.58,-2117.47 	"/>
	<linearGradient id="SVGID_15_" gradientUnits="userSpaceOnUse" x1="751.0233" y1="-1915.6527" x2="315.294" y2="-2089.4766">
		<stop  offset="1.393105e-03" style="stop-color:#F30000"/>
		<stop  offset="0.4126" style="stop-color:#D70208"/>
		<stop  offset="1" style="stop-color:#A90614"/>
	</linearGradient>
	<path class="st20" d="M526.32-2230.54c-3.65-1.3-7.4-2.48-11.22-3.5l0-0.01l-0.29-0.08c0,0-0.01,0-0.01,0c-0.01,0-0.01,0-0.02,0
		l-360.93-96.71l-0.08,0.29l34.6,62.13l205.84,55.16c0,0,0,0,0,0l68.66,18.4l38.66,10.36c50.35,13.52,80.23,65.29,66.75,115.66
		c-12.2,45.49-55.58,74.26-100.95,69.5c-4.84-0.5-9.69-1.38-14.54-2.68c-0.03-0.01-0.06-0.01-0.09-0.02
		c-0.03-0.01-0.06-0.01-0.09-0.02l-34.01-9.11l-34.01-9.11l-21.08-5.65l-0.04-0.01l-7.59,13.74l-2.32,4.22l-14.34,28.7l-3.68,7.36
		l-52.07,95.12l52.22,13.85l55.95-100.28l0.85-1.78l3.34-6.99l0.06-0.13l0,0l0,0l-0.06,0.13l-3.34,6.99l46.46,12.45
		c0.06,0.01,0.12,0.03,0.18,0.05c0.06,0.02,0.13,0.04,0.18,0.05c0.05,0.01,0.1,0.02,0.15,0.04c0.05,0.01,0.1,0.03,0.15,0.04
		l6.9,1.85l0.04-0.18l0,0c14.95,3.21,29.92,3.99,44.46,2.57c58.8-5.65,110.66-46.99,126.86-107.43
		C637.69-2129.43,597.07-2205.24,526.32-2230.54z"/>
	<g>
		<path class="st4" d="M137.02-1604.68l-6.83-4.27v0.01l-1.37,2.16l-2.28,3.66l-0.01,0.01l-5.74,9.19c-0.96,1.54-0.49,3.56,1.04,4.5
			l1.29,0.81c0,0,0.01,0,0.01,0.01l1.87,1.16c1.52,0.97,3.55,0.5,4.5-1.04l5.72-9.21l0.01-0.01l2.28-3.65l1.37-2.19L137.02-1604.68z
			"/>
		<path class="st4" d="M130.19-1608.93l-1.88-1.18l-1.35,2.18l-2.31,3.65v0.01l-5.74,9.21c-0.96,1.53-0.49,3.55,1.04,4.5l1.88,1.16
			l1.29,0.81c0,0,0.01,0,0.01,0.01c1.52,0.96,3.53,0.49,4.49-1.06l5.74-9.21l2.28-3.66l1.37-2.18L130.19-1608.93z M122.86-1591.69
			c-1.04-0.66-1.35-2.02-0.71-3.06c0.65-1.04,2.02-1.37,3.06-0.71c0.03,0.01,0.06,0.04,0.09,0.06c0.96,0.68,1.24,1.99,0.62,2.99
			c-0.28,0.44-0.68,0.75-1.12,0.91C124.19-1591.26,123.47-1591.3,122.86-1591.69z"/>
	</g>
	<g>
		<path class="st4" d="M118.19-1616.42l-3.56-2.22l-3.27-2.04v0.01l-1.37,2.16l-2.28,3.66l-5.75,9.21c-0.96,1.54-0.49,3.56,1.06,4.5
			l1.28,0.81c0,0,0.01,0,0.01,0.01l1.87,1.16c1.53,0.97,3.55,0.5,4.5-1.04l5.75-9.21l2.28-3.66l1.35-2.18L118.19-1616.42z"/>
		<path class="st4" d="M114.63-1618.64l-3.27-2.03l-1.88-1.18l-1.35,2.18l-2.3,3.66l-5.75,9.21c-0.96,1.53-0.49,3.55,1.06,4.52
			l1.88,1.15l1.28,0.81c0,0,0.01,0,0.01,0.01c1.53,0.96,3.53,0.49,4.49-1.06l5.74-9.21l2.28-3.66v-0.01l1.37-2.16L114.63-1618.64z
			 M104.03-1603.43c-1.03-0.66-1.35-2.02-0.71-3.06c0.65-1.04,2.02-1.37,3.06-0.71c0.03,0.01,0.06,0.04,0.09,0.06
			c0.01,0,0.01,0,0.01,0c0.96,0.69,1.22,1.99,0.6,2.99c-0.28,0.44-0.68,0.75-1.12,0.91C105.36-1603,104.64-1603.04,104.03-1603.43z"
			/>
	</g>
	<path class="st5" d="M110.26-1632.39c1.97-3.17,6.14-4.13,9.31-2.16l24.6,15.34c3.17,1.97,4.13,6.14,2.16,9.31l-6.31,10.12
		l-36.06-22.49L110.26-1632.39z"/>
	<path class="st6" d="M110.31-1632.46c1.95-3.13,6.07-4.08,9.19-2.13l9.6,5.98c-3.28-2.05-7.6-1.05-9.65,2.24l-6.18,9.91l-9.31-5.81
		L110.31-1632.46z"/>
	<path class="st7" d="M100.8-1619.15l37.8,23.57c0.62,0.38,1.42,0.2,1.81-0.42l3.18-5.1c0.38-0.61,0.2-1.42-0.42-1.81l-37.8-23.57
		c-0.62-0.38-1.42-0.2-1.81,0.42l-3.18,5.1C100-1620.34,100.18-1619.53,100.8-1619.15z"/>
	<circle class="st1" cx="107.24" cy="-1605.05" r="2.22"/>
	<linearGradient id="SVGID_16_" gradientUnits="userSpaceOnUse" x1="310.5766" y1="-1838.6163" x2="80.5697" y2="-1932.8627">
		<stop  offset="1.393105e-03" style="stop-color:#F30000"/>
		<stop  offset="0.4126" style="stop-color:#D70208"/>
		<stop  offset="1" style="stop-color:#A90614"/>
	</linearGradient>
	<path class="st21" d="M267.69-2119.94c-29.56-1.85-59.94,1.52-89.92,10.77c-132.98,41-207.52,182.04-166.51,315.02
		c16.54,53.64,49.36,97.77,91.37,128.62c7.05,5.19,14.34,10,21.88,14.42l10.33-22.42l5.4-11.71c0.06-0.18,0.15-0.35,0.25-0.52
		l0.96-2.07l36.16-78.44c0,0,0,0,0,0l1.96-4.37l3.29-7.33c-0.09-0.07-0.17-0.15-0.26-0.23c-24.09-21.36-39.27-52.54-39.27-87.26
		c0-47.92,28.92-89.09,70.25-107.01h0l1.23-3.14c0.03-0.01,0.05-0.02,0.08-0.03l3.61-9.34c-0.65,0.09-1.3,0.19-1.94,0.3
		c0.71-0.13,1.43-0.26,2.14-0.38L267.69-2119.94z M178.29-1768.53l1.02-2.3c0,0,0,0,0,0L178.29-1768.53z"/>
	<linearGradient id="SVGID_17_" gradientUnits="userSpaceOnUse" x1="912.5836" y1="-1585.4423" x2="157.1113" y2="-1912.142">
		<stop  offset="1.393105e-03" style="stop-color:#F30000"/>
		<stop  offset="0.4126" style="stop-color:#D70208"/>
		<stop  offset="1" style="stop-color:#A90614"/>
	</linearGradient>
	<path class="st22" d="M445.35-1706.81c1.03-0.49,2-1,2.94-1.56c13.02-7.68,17.45-20.51,17.45-20.51
		c4.52-14.14,20.39-14.37,20.39-14.37l345.53-21.67l-340.02-23.57l-0.65-0.04l-42.06-2.91l44.15-9.97c0.75-0.24,1.44-0.52,2.07-0.84
		c0.4-0.19,0.78-0.4,1.13-0.62c5.97-3.65,6.41-10.24,6.41-10.24l4.63-31.29c-0.59-17.73,18.3-12.51,18.3-12.51l347.62-22.14
		l-365.67-26.07l-6.34-0.46l-29.48-2.09l26.89-12.31c-0.85-4.09-1.82-8.18-2.9-12.27c-3.31,0.28-6.65,0.47-10,0.51
		c-10.83,0.19-21.85-0.87-32.84-3.22c-2.31-0.5-4.62-1.06-6.94-1.68c-0.1-0.01-0.21-0.04-0.31-0.07c-0.12-0.03-0.25-0.07-0.37-0.1
		l-45.37-12.15l-1.88,3.93l-41.33,86.4l-0.07-0.01c-0.38,4.94-1.07,9.81-2.06,14.58c-8.47,41.22-38.34,74.62-77.49,88.12
		l-49.73,56.55l-33.78,38.41l-9.4,10.7l-16.86,19.17c7.58,2.72,15.3,5.08,23.13,7.06c43.28,10.95,90.04,10.53,135.82-3.59
		c23.73-7.31,45.61-17.82,65.28-30.89l311.71-14.61l-268.74-18.51l-2.72-0.19l-31.31-2.15l37.31-10.09
		C440.56-1704.78,443.06-1705.7,445.35-1706.81z"/>
	<g>
		<linearGradient id="SVGID_18_" gradientUnits="userSpaceOnUse" x1="27.6498" y1="-1871.2169" x2="148.9628" y2="-1871.2169">
			<stop  offset="0" style="stop-color:#FFFFFF"/>
			<stop  offset="1" style="stop-color:#FFFFFF"/>
		</linearGradient>
		<path class="st23" d="M148.96-2068.91c-72.18,38.37-121.31,114.34-121.31,201.77c0,81.61,42.8,153.21,107.19,193.61l5.4-11.71
			c0.06-0.18,0.15-0.35,0.25-0.52l0.96-2.07c-59.67-41.19-98.77-110.04-98.77-188.05C42.67-1957.1,85.07-2028.42,148.96-2068.91z"/>
		<linearGradient id="SVGID_19_" gradientUnits="userSpaceOnUse" x1="184.1974" y1="-1656.4402" x2="378.1273" y2="-1656.4402">
			<stop  offset="0" style="stop-color:#FFFFFF"/>
			<stop  offset="0.9834" style="stop-color:#FFFFFF"/>
		</linearGradient>
		<path class="st24" d="M271.04-1647.5c-27.19,0-53.27-4.75-77.44-13.48l-9.4,10.7c22.58,7.47,46.74,11.52,71.82,11.52
			c44.91,0,86.8-12.96,122.11-35.35C346.19-1657.12,309.75-1647.5,271.04-1647.5z"/>
	</g>
</g>
<g>
	<linearGradient id="SVGID_20_" gradientUnits="userSpaceOnUse" x1="1102.6414" y1="-1930.4182" x2="3532.406" y2="-1826.8236">
		<stop  offset="1.393105e-03" style="stop-color:#F30000"/>
		<stop  offset="0.4126" style="stop-color:#D70208"/>
		<stop  offset="1" style="stop-color:#A90614"/>
	</linearGradient>
	<path class="st25" d="M990.36-1787.09v-169.09h253.64c7.63,0,14.24-2.64,19.81-7.93c5.57-5.57,8.37-12.33,8.37-20.26v-28.18H990.36
		v-56.36h338.18v112.73c0,15.85-5.58,29.21-16.73,40.07c-11.16,10.86-24.37,16.29-39.63,16.29h-225.46v112.73H990.36z"/>
	<linearGradient id="SVGID_21_" gradientUnits="userSpaceOnUse" x1="1103.407" y1="-1948.3779" x2="3533.1716" y2="-1844.7833">
		<stop  offset="1.393105e-03" style="stop-color:#F30000"/>
		<stop  offset="0.4126" style="stop-color:#D70208"/>
		<stop  offset="1" style="stop-color:#A90614"/>
	</linearGradient>
	<path class="st26" d="M1384.9-1899.81v-169.09h56.36v169.09H1384.9z M1441.27-1787.09c-15.85,0-29.21-5.43-40.07-16.29
		c-10.86-11.15-16.29-24.51-16.29-40.07h338.18c0,15.85-5.58,29.21-16.73,40.07c-11.16,10.86-24.37,16.29-39.63,16.29H1441.27z
		 M1666.72-1899.81v-169.09h56.36v169.09H1666.72z"/>
	<linearGradient id="SVGID_22_" gradientUnits="userSpaceOnUse" x1="1103.8174" y1="-1958.0038" x2="3533.582" y2="-1854.4092">
		<stop  offset="1.393105e-03" style="stop-color:#F30000"/>
		<stop  offset="0.4126" style="stop-color:#D70208"/>
		<stop  offset="1" style="stop-color:#A90614"/>
	</linearGradient>
	<path class="st27" d="M1779.45-1787.09v-281.82h56.36v225.46h281.82c0,15.85-5.58,29.21-16.73,40.07
		c-11.16,10.86-24.37,16.29-39.63,16.29H1779.45z"/>
	<linearGradient id="SVGID_23_" gradientUnits="userSpaceOnUse" x1="1104.7891" y1="-1980.7919" x2="3534.5537" y2="-1877.1973">
		<stop  offset="1.393105e-03" style="stop-color:#F30000"/>
		<stop  offset="0.4126" style="stop-color:#D70208"/>
		<stop  offset="1" style="stop-color:#A90614"/>
	</linearGradient>
	<path class="st28" d="M2174-1787.09c0-15.56,5.43-28.77,16.29-39.63c11.15-11.15,24.51-16.73,40.07-16.73h225.46v-56.36H2174
		v-169.09h338.18c0,15.85-5.58,29.21-16.73,40.07c-11.16,10.86-24.37,16.29-39.63,16.29h-225.46v56.36h281.82v169.09H2174z"/>
	<linearGradient id="SVGID_24_" gradientUnits="userSpaceOnUse" x1="1105.5547" y1="-1998.7516" x2="3535.3193" y2="-1895.157">
		<stop  offset="1.393105e-03" style="stop-color:#F30000"/>
		<stop  offset="0.4126" style="stop-color:#D70208"/>
		<stop  offset="1" style="stop-color:#A90614"/>
	</linearGradient>
	<path class="st29" d="M2624.91-2012.54c-15.85,0-29.21-5.43-40.07-16.29c-10.86-11.15-16.29-24.51-16.29-40.07h338.18
		c0,15.85-5.58,29.21-16.73,40.07c-11.16,10.86-24.37,16.29-39.63,16.29H2624.91z M2624.91-1899.81c-15.85,0-29.21-5.43-40.07-16.29
		c-10.86-11.15-16.29-24.51-16.29-40.07h338.18c0,15.85-5.58,29.21-16.73,40.07c-11.16,10.86-24.37,16.29-39.63,16.29H2624.91z
		 M2624.91-1787.09c-15.85,0-29.21-5.43-40.07-16.29c-10.86-11.15-16.29-24.51-16.29-40.07h338.18c0,15.85-5.58,29.21-16.73,40.07
		c-11.16,10.86-24.37,16.29-39.63,16.29H2624.91z"/>
	<linearGradient id="SVGID_25_" gradientUnits="userSpaceOnUse" x1="1109.5632" y1="-2092.77" x2="3539.3279" y2="-1989.1755">
		<stop  offset="1.393105e-03" style="stop-color:#F30000"/>
		<stop  offset="0.4126" style="stop-color:#D70208"/>
		<stop  offset="1" style="stop-color:#A90614"/>
	</linearGradient>
	<path class="st30" d="M2963.09-2068.91h56.36v56.36c0,15.85-5.58,29.21-16.73,40.07c-11.16,10.86-24.37,16.29-39.63,16.29V-2068.91
		z"/>
	<linearGradient id="SVGID_26_" gradientUnits="userSpaceOnUse" x1="1106.4254" y1="-2019.1718" x2="3536.1902" y2="-1915.5771">
		<stop  offset="1.393105e-03" style="stop-color:#F30000"/>
		<stop  offset="0.4126" style="stop-color:#D70208"/>
		<stop  offset="1" style="stop-color:#A90614"/>
	</linearGradient>
	<path class="st31" d="M3075.82-1787.09v-169.09h281.82v-56.36h-225.46c-15.56,0-28.92-5.43-40.07-16.29
		c-10.86-10.86-16.29-24.22-16.29-40.07H3414v169.09h-281.82v56.36h225.46c15.26,0,28.47,5.58,39.63,16.73
		c11.15,10.86,16.73,24.07,16.73,39.63H3075.82z"/>
	<linearGradient id="SVGID_27_" gradientUnits="userSpaceOnUse" x1="1106.9368" y1="-2031.1654" x2="3536.7014" y2="-1927.5708">
		<stop  offset="1.393105e-03" style="stop-color:#F30000"/>
		<stop  offset="0.4126" style="stop-color:#D70208"/>
		<stop  offset="1" style="stop-color:#A90614"/>
	</linearGradient>
	<path class="st32" d="M3622.72-1826.72c-10.86-11.15-24.07-16.73-39.63-16.73v-169.09v-1.18v-55.18h-112.73
		c0,15.56,5.43,28.92,16.29,40.07c10.86,10.86,24.22,16.29,40.07,16.29v169.09h-56.36v56.36h169.09
		C3639.46-1802.35,3633.88-1815.56,3622.72-1826.72z"/>
</g>
<g>
	<path d="M508.16-1275.59c-3.65-1.65-7.46-2.99-11.4-4.05l-32.17-8.62l-261.69-70.12l-0.01,0.03l34.33,62.66l158.02,42.34
		c0,0,0,0,0,0l27.32,7.32l60.84,16.3l0-0.01c0.54,0.15,1.06,0.29,1.58,0.48c12.05,4.1,19.01,16.9,15.67,29.39
		c-3.5,13.05-16.86,20.76-29.88,17.27l-88.17-23.63v0.01l-5-1.34l-85.02-22.79l-18.2,48.28l79.84,21.39l38.77,10.39l10.02,2.69
		l47.84,12.81c0.01,0.01,0.04,0.01,0.06,0.01c0.47,0.18,0.93,0.35,1.4,0.5c1.66,0.59,3.35,1.09,5.09,1.56
		c2.21,0.59,4.44,1.1,6.66,1.47l0.6,0.16l0.01-0.06c38.16,6.36,75.65-17.23,85.86-55.38
		C560.35-1223.1,541.71-1260.63,508.16-1275.59z"/>
	<polygon points="377.6,-1207.53 354.22,-1160.64 344.1,-1140.33 335.33,-1122.7 331.93,-1115.89 298.45,-1048.67 265.32,-982.18 
		331.93,-963.2 171.99,-782.91 162.1,-771.75 160.33,-769.77 149.98,-758.1 136.85,-743.3 133.04,-739.01 127.79,-733.09 
		126.47,-731.59 130.56,-740.55 131.24,-742.02 137.37,-755.42 148.02,-778.71 154.3,-792.41 214.4,-923.74 180.39,-932.85 
		230.91,-1066.77 257.01,-1135.97 266.49,-1161.12 274.38,-1182.04 292.58,-1230.32 	"/>
	<linearGradient id="SVGID_28_" gradientUnits="userSpaceOnUse" x1="218.449" y1="-1233.7531" x2="748.5215" y2="-1042.6384">
		<stop  offset="1.393105e-03" style="stop-color:#F30000"/>
		<stop  offset="0.4126" style="stop-color:#D70208"/>
		<stop  offset="1" style="stop-color:#A90614"/>
	</linearGradient>
	<path class="st33" d="M526.32-1343.39c-3.65-1.3-7.4-2.48-11.22-3.5l0-0.01l-0.29-0.08c0,0-0.01,0-0.01,0c-0.01,0-0.01,0-0.02,0
		l-360.93-96.71l-0.08,0.29l34.6,62.13l205.84,55.16c0,0,0,0,0,0l68.66,18.4l38.66,10.36c50.35,13.52,80.23,65.29,66.75,115.65
		c-12.2,45.49-55.58,74.26-100.95,69.5c-4.84-0.5-9.69-1.38-14.54-2.68c-0.03-0.01-0.06-0.01-0.09-0.02
		c-0.03-0.01-0.06-0.01-0.09-0.02l-34.01-9.11l-34.01-9.11l-21.08-5.65l-0.04-0.01l-7.59,13.74l-2.32,4.22l-14.34,28.7l-3.68,7.36
		l-52.07,95.12l52.22,13.85l55.95-100.28l0.85-1.78l3.34-6.99l0.06-0.13l0,0l0,0l-0.06,0.13l-3.34,6.99l46.46,12.45
		c0.06,0.01,0.12,0.03,0.18,0.05c0.06,0.02,0.13,0.04,0.18,0.05c0.05,0.01,0.1,0.02,0.15,0.04c0.05,0.01,0.1,0.03,0.15,0.04
		l6.9,1.85l0.04-0.18l0,0c14.95,3.21,29.92,3.99,44.46,2.57c58.8-5.65,110.66-46.99,126.86-107.43
		C637.69-1242.28,597.07-1318.09,526.32-1343.39z"/>
	<g>
		<path class="st4" d="M137.02-717.53l-6.83-4.27v0.01l-1.37,2.16l-2.28,3.66l-0.01,0.01l-5.74,9.19c-0.96,1.54-0.49,3.56,1.04,4.5
			l1.29,0.81c0,0,0.01,0,0.01,0.01l1.87,1.16c1.52,0.97,3.55,0.5,4.5-1.04l5.72-9.21l0.01-0.01l2.28-3.65l1.37-2.19L137.02-717.53z"
			/>
		<path class="st4" d="M130.19-721.78l-1.88-1.18l-1.35,2.18l-2.31,3.65v0.01l-5.74,9.21c-0.96,1.53-0.49,3.55,1.04,4.5l1.88,1.16
			l1.29,0.81c0,0,0.01,0,0.01,0.01c1.52,0.96,3.53,0.49,4.49-1.06l5.74-9.21l2.28-3.66l1.37-2.18L130.19-721.78z M122.86-704.54
			c-1.04-0.66-1.35-2.02-0.71-3.06c0.65-1.04,2.02-1.37,3.06-0.71c0.03,0.01,0.06,0.04,0.09,0.06c0.96,0.68,1.24,1.99,0.62,2.99
			c-0.28,0.44-0.68,0.75-1.12,0.91C124.19-704.11,123.47-704.15,122.86-704.54z"/>
	</g>
	<g>
		<path class="st4" d="M118.19-729.27l-3.56-2.22l-3.27-2.04v0.01l-1.37,2.16l-2.28,3.66l-5.75,9.21c-0.96,1.54-0.49,3.56,1.06,4.5
			l1.28,0.81c0,0,0.01,0,0.01,0.01l1.87,1.16c1.53,0.97,3.55,0.5,4.5-1.04l5.75-9.21l2.28-3.66l1.35-2.18L118.19-729.27z"/>
		<path class="st4" d="M114.63-731.49l-3.27-2.03l-1.88-1.18l-1.35,2.18l-2.3,3.66l-5.75,9.21c-0.96,1.53-0.49,3.55,1.06,4.52
			l1.88,1.15l1.28,0.81c0,0,0.01,0,0.01,0.01c1.53,0.96,3.53,0.49,4.49-1.06l5.74-9.21l2.28-3.66v-0.01l1.37-2.16L114.63-731.49z
			 M104.03-716.28c-1.03-0.66-1.35-2.02-0.71-3.06c0.65-1.04,2.02-1.37,3.06-0.71c0.03,0.01,0.06,0.04,0.09,0.06
			c0.01,0,0.01,0,0.01,0c0.96,0.69,1.22,1.99,0.6,2.99c-0.28,0.44-0.68,0.75-1.12,0.91C105.36-715.85,104.64-715.89,104.03-716.28z"
			/>
	</g>
	<path class="st5" d="M110.26-745.24c1.97-3.17,6.14-4.13,9.31-2.16l24.6,15.34c3.17,1.97,4.13,6.14,2.16,9.31l-6.31,10.12
		l-36.06-22.49L110.26-745.24z"/>
	<path class="st6" d="M110.31-745.31c1.95-3.13,6.07-4.08,9.19-2.13l9.6,5.98c-3.28-2.05-7.6-1.05-9.65,2.24l-6.18,9.91l-9.31-5.81
		L110.31-745.31z"/>
	<path class="st7" d="M100.8-732l37.8,23.57c0.62,0.38,1.42,0.2,1.81-0.42l3.18-5.1c0.38-0.62,0.2-1.42-0.42-1.81l-37.8-23.57
		c-0.62-0.38-1.42-0.2-1.81,0.42l-3.18,5.1C100-733.19,100.18-732.38,100.8-732z"/>
	<circle class="st1" cx="107.24" cy="-717.9" r="2.22"/>
	<linearGradient id="SVGID_29_" gradientUnits="userSpaceOnUse" x1="-12.0147" y1="-1057.3912" x2="229.583" y2="-988.8785">
		<stop  offset="1.393105e-03" style="stop-color:#F30000"/>
		<stop  offset="0.4126" style="stop-color:#D70208"/>
		<stop  offset="1" style="stop-color:#A90614"/>
	</linearGradient>
	<path class="st34" d="M267.69-1232.79c-29.56-1.85-59.94,1.52-89.92,10.77C44.79-1181.02-29.76-1039.98,11.26-907
		c16.54,53.64,49.36,97.77,91.37,128.62c7.05,5.19,14.34,10,21.88,14.42l10.33-22.42l5.4-11.71c0.06-0.18,0.15-0.35,0.25-0.52
		l0.96-2.07l36.16-78.44c0,0,0,0,0,0l1.96-4.37l3.29-7.33c-0.09-0.07-0.17-0.15-0.26-0.23c-24.09-21.36-39.27-52.54-39.27-87.26
		c0-47.92,28.92-89.09,70.25-107.01h0l1.23-3.14c0.03-0.01,0.05-0.02,0.08-0.03l3.61-9.34c-0.65,0.09-1.3,0.19-1.94,0.3
		c0.71-0.13,1.43-0.26,2.14-0.38L267.69-1232.79z M178.29-881.38l1.02-2.3c0,0,0,0,0,0L178.29-881.38z"/>
	<linearGradient id="SVGID_30_" gradientUnits="userSpaceOnUse" x1="187.9632" y1="-1081.7625" x2="653.1289" y2="-782.4698">
		<stop  offset="1.393105e-03" style="stop-color:#F30000"/>
		<stop  offset="0.4126" style="stop-color:#D70208"/>
		<stop  offset="1" style="stop-color:#A90614"/>
	</linearGradient>
	<path class="st35" d="M445.35-819.66c1.03-0.49,2-1,2.94-1.56c13.02-7.68,17.45-20.51,17.45-20.51
		c4.52-14.14,20.39-14.37,20.39-14.37l345.53-21.67l-340.02-23.57l-0.65-0.04l-42.06-2.91l44.15-9.97c0.75-0.24,1.44-0.52,2.07-0.84
		c0.4-0.19,0.78-0.4,1.13-0.62c5.97-3.65,6.41-10.24,6.41-10.24l4.63-31.29c-0.59-17.73,18.3-12.51,18.3-12.51l347.62-22.14
		l-365.67-26.07l-6.34-0.46l-29.48-2.09l26.89-12.31c-0.85-4.09-1.82-8.18-2.9-12.27c-3.31,0.28-6.65,0.47-10,0.51
		c-10.83,0.19-21.85-0.87-32.84-3.22c-2.31-0.5-4.62-1.06-6.94-1.68c-0.1-0.01-0.21-0.04-0.31-0.07c-0.12-0.03-0.25-0.07-0.37-0.1
		l-45.37-12.15l-1.88,3.93l-41.33,86.4l-0.07-0.01c-0.38,4.94-1.07,9.81-2.06,14.58c-8.47,41.22-38.34,74.62-77.49,88.12
		l-49.73,56.55l-33.78,38.41l-9.4,10.7l-16.86,19.17c7.58,2.72,15.3,5.08,23.13,7.06c43.28,10.95,90.04,10.53,135.82-3.59
		c23.73-7.31,45.61-17.82,65.28-30.89L703.27-786L434.53-804.5l-2.72-0.19l-31.31-2.15l37.31-10.09
		C440.56-817.63,443.06-818.55,445.35-819.66z"/>
	<g>
		<linearGradient id="SVGID_31_" gradientUnits="userSpaceOnUse" x1="27.6498" y1="-984.0668" x2="148.9628" y2="-984.0668">
			<stop  offset="0" style="stop-color:#FFFFFF"/>
			<stop  offset="1" style="stop-color:#FFFFFF"/>
		</linearGradient>
		<path class="st36" d="M148.96-1181.76c-72.18,38.37-121.31,114.34-121.31,201.77c0,81.61,42.8,153.21,107.19,193.61l5.4-11.71
			c0.06-0.18,0.15-0.35,0.25-0.52l0.96-2.07c-59.67-41.19-98.77-110.04-98.77-188.05C42.67-1069.95,85.07-1141.27,148.96-1181.76z"
			/>
		<linearGradient id="SVGID_32_" gradientUnits="userSpaceOnUse" x1="184.1974" y1="-769.2902" x2="378.1273" y2="-769.2902">
			<stop  offset="0" style="stop-color:#FFFFFF"/>
			<stop  offset="0.9834" style="stop-color:#FFFFFF"/>
		</linearGradient>
		<path class="st37" d="M271.04-760.35c-27.19,0-53.27-4.75-77.44-13.48l-9.4,10.7c22.58,7.47,46.74,11.52,71.82,11.52
			c44.91,0,86.8-12.96,122.11-35.35C346.19-769.97,309.75-760.35,271.04-760.35z"/>
	</g>
</g>
<g>
	<linearGradient id="SVGID_33_" gradientUnits="userSpaceOnUse" x1="1102.6414" y1="-1043.2681" x2="3532.406" y2="-939.6735">
		<stop  offset="1.393105e-03" style="stop-color:#F30000"/>
		<stop  offset="0.4126" style="stop-color:#D70208"/>
		<stop  offset="1" style="stop-color:#A90614"/>
	</linearGradient>
	<path class="st38" d="M990.36-899.94v-169.09h253.64c7.63,0,14.24-2.64,19.81-7.93c5.57-5.57,8.37-12.33,8.37-20.26v-28.18H990.36
		v-56.36h338.18v112.73c0,15.85-5.58,29.21-16.73,40.07c-11.16,10.86-24.37,16.29-39.63,16.29h-225.46v112.73H990.36z"/>
	<linearGradient id="SVGID_34_" gradientUnits="userSpaceOnUse" x1="1103.407" y1="-1061.2278" x2="3533.1716" y2="-957.6332">
		<stop  offset="1.393105e-03" style="stop-color:#F30000"/>
		<stop  offset="0.4126" style="stop-color:#D70208"/>
		<stop  offset="1" style="stop-color:#A90614"/>
	</linearGradient>
	<path class="st39" d="M1384.9-1012.66v-169.09h56.36v169.09H1384.9z M1441.27-899.94c-15.85,0-29.21-5.43-40.07-16.29
		c-10.86-11.15-16.29-24.51-16.29-40.07h338.18c0,15.85-5.58,29.21-16.73,40.07c-11.16,10.86-24.37,16.29-39.63,16.29H1441.27z
		 M1666.72-1012.66v-169.09h56.36v169.09H1666.72z"/>
	<linearGradient id="SVGID_35_" gradientUnits="userSpaceOnUse" x1="1103.8174" y1="-1070.8538" x2="3533.582" y2="-967.2591">
		<stop  offset="1.393105e-03" style="stop-color:#F30000"/>
		<stop  offset="0.4126" style="stop-color:#D70208"/>
		<stop  offset="1" style="stop-color:#A90614"/>
	</linearGradient>
	<path class="st40" d="M1779.45-899.94v-281.82h56.36v225.46h281.82c0,15.85-5.58,29.21-16.73,40.07
		c-11.16,10.86-24.37,16.29-39.63,16.29H1779.45z"/>
	<linearGradient id="SVGID_36_" gradientUnits="userSpaceOnUse" x1="1104.7891" y1="-1093.6418" x2="3534.5537" y2="-990.0472">
		<stop  offset="1.393105e-03" style="stop-color:#F30000"/>
		<stop  offset="0.4126" style="stop-color:#D70208"/>
		<stop  offset="1" style="stop-color:#A90614"/>
	</linearGradient>
	<path class="st41" d="M2174-899.94c0-15.56,5.43-28.77,16.29-39.63c11.15-11.15,24.51-16.73,40.07-16.73h225.46v-56.36H2174
		v-169.09h338.18c0,15.85-5.58,29.21-16.73,40.07c-11.16,10.86-24.37,16.29-39.63,16.29h-225.46v56.36h281.82v169.09H2174z"/>
	<linearGradient id="SVGID_37_" gradientUnits="userSpaceOnUse" x1="1105.5547" y1="-1111.6016" x2="3535.3193" y2="-1008.0069">
		<stop  offset="1.393105e-03" style="stop-color:#F30000"/>
		<stop  offset="0.4126" style="stop-color:#D70208"/>
		<stop  offset="1" style="stop-color:#A90614"/>
	</linearGradient>
	<path class="st42" d="M2624.91-1125.39c-15.85,0-29.21-5.43-40.07-16.29c-10.86-11.15-16.29-24.51-16.29-40.07h338.18
		c0,15.85-5.58,29.21-16.73,40.07c-11.16,10.86-24.37,16.29-39.63,16.29H2624.91z M2624.91-1012.66c-15.85,0-29.21-5.43-40.07-16.29
		c-10.86-11.15-16.29-24.51-16.29-40.07h338.18c0,15.85-5.58,29.21-16.73,40.07c-11.16,10.86-24.37,16.29-39.63,16.29H2624.91z
		 M2624.91-899.94c-15.85,0-29.21-5.43-40.07-16.29c-10.86-11.15-16.29-24.51-16.29-40.07h338.18c0,15.85-5.58,29.21-16.73,40.07
		c-11.16,10.86-24.37,16.29-39.63,16.29H2624.91z"/>
	<path d="M2963.09-1181.76h56.36v56.36c0,15.85-5.58,29.21-16.73,40.07c-11.16,10.86-24.37,16.29-39.63,16.29V-1181.76z"/>
	<linearGradient id="SVGID_38_" gradientUnits="userSpaceOnUse" x1="1106.4254" y1="-1132.0217" x2="3536.1902" y2="-1028.4271">
		<stop  offset="1.393105e-03" style="stop-color:#F30000"/>
		<stop  offset="0.4126" style="stop-color:#D70208"/>
		<stop  offset="1" style="stop-color:#A90614"/>
	</linearGradient>
	<path class="st43" d="M3075.82-899.94v-169.09h281.82v-56.36h-225.46c-15.56,0-28.92-5.43-40.07-16.29
		c-10.86-10.86-16.29-24.22-16.29-40.07H3414v169.09h-281.82v56.36h225.46c15.26,0,28.47,5.58,39.63,16.73
		c11.15,10.86,16.73,24.07,16.73,39.63H3075.82z"/>
	<linearGradient id="SVGID_39_" gradientUnits="userSpaceOnUse" x1="1106.9368" y1="-1144.0154" x2="3536.7014" y2="-1040.4208">
		<stop  offset="1.393105e-03" style="stop-color:#F30000"/>
		<stop  offset="0.4126" style="stop-color:#D70208"/>
		<stop  offset="1" style="stop-color:#A90614"/>
	</linearGradient>
	<path class="st44" d="M3622.72-939.57c-10.86-11.15-24.07-16.73-39.63-16.73v-169.09v-1.18v-55.18h-112.73
		c0,15.56,5.43,28.92,16.29,40.07c10.86,10.86,24.22,16.29,40.07,16.29v169.09h-56.36v56.36h169.09
		C3639.46-915.2,3633.88-928.41,3622.72-939.57z"/>
</g>
<g>
	<g>
		<path class="st45" d="M508.16,168.11c-3.65-1.65-7.46-2.99-11.4-4.05l-32.17-8.62L202.9,85.33l-0.01,0.03l34.33,62.66
			l158.02,42.34c0,0,0,0,0,0l27.32,7.32l60.84,16.3l0-0.01c0.54,0.15,1.06,0.29,1.58,0.48c12.05,4.1,19.01,16.9,15.67,29.39
			c-3.5,13.05-16.86,20.76-29.88,17.27l-88.17-23.63v0.01l-5-1.34l-85.02-22.79l-18.2,48.28l79.84,21.39l38.77,10.39l10.02,2.69
			l47.84,12.81c0.01,0.01,0.04,0.01,0.06,0.01c0.47,0.18,0.93,0.35,1.4,0.5c1.66,0.59,3.35,1.09,5.09,1.56
			c2.21,0.59,4.44,1.1,6.66,1.47l0.6,0.16l0.01-0.06c38.16,6.36,75.65-17.23,85.86-55.38C560.35,220.6,541.71,183.07,508.16,168.11z
			"/>
		<polygon class="st45" points="377.6,236.17 354.22,283.05 344.1,303.37 335.33,320.99 331.93,327.81 298.45,395.02 265.32,461.52 
			331.93,480.5 171.99,660.79 162.1,671.94 160.33,673.93 149.98,685.59 136.85,700.39 133.04,704.69 127.79,710.6 126.47,712.11 
			130.56,703.15 131.24,701.67 137.37,688.27 148.02,664.98 154.3,651.29 214.4,519.96 180.39,510.85 230.91,376.93 257.01,307.72 
			266.49,282.58 274.38,261.66 292.58,213.38 		"/>
		<linearGradient id="SVGID_40_" gradientUnits="userSpaceOnUse" x1="218.449" y1="209.9437" x2="748.5215" y2="401.0583">
			<stop  offset="1.393105e-03" style="stop-color:#F30000"/>
			<stop  offset="0.4126" style="stop-color:#D70208"/>
			<stop  offset="1" style="stop-color:#A90614"/>
		</linearGradient>
		<path class="st46" d="M526.32,100.3c-3.65-1.3-7.4-2.48-11.22-3.5l0-0.01l-0.29-0.08c0,0-0.01,0-0.01,0c-0.01,0-0.01,0-0.02,0
			L153.86,0l-0.08,0.29l34.6,62.13l205.84,55.16c0,0,0,0,0,0l68.66,18.4l38.66,10.36c50.35,13.52,80.23,65.29,66.75,115.65
			c-12.2,45.49-55.58,74.26-100.95,69.5c-4.84-0.5-9.69-1.38-14.54-2.68c-0.03-0.01-0.06-0.01-0.09-0.02
			c-0.03-0.01-0.06-0.01-0.09-0.02l-34.01-9.11l-34.01-9.11l-21.08-5.65l-0.04-0.01l-7.59,13.74l-2.32,4.22l-14.34,28.7l-3.68,7.36
			l-52.07,95.12l52.22,13.85l55.95-100.28l0.85-1.78l3.34-6.99l0.06-0.13l0,0l0,0l-0.06,0.13l-3.34,6.99l46.46,12.45
			c0.06,0.01,0.12,0.03,0.18,0.05c0.06,0.02,0.13,0.04,0.18,0.05c0.05,0.01,0.1,0.02,0.15,0.04c0.05,0.01,0.1,0.03,0.15,0.04
			l6.9,1.85l0.04-0.18l0,0c14.95,3.21,29.92,3.99,44.46,2.57c58.8-5.65,110.66-46.99,126.86-107.43
			C637.69,201.42,597.07,125.61,526.32,100.3z"/>
		<g>
			<path class="st4" d="M137.02,726.17l-6.83-4.27v0.01l-1.37,2.16l-2.28,3.66l-0.01,0.01l-5.74,9.19c-0.96,1.54-0.49,3.56,1.04,4.5
				l1.29,0.81c0,0,0.01,0,0.01,0.01l1.87,1.16c1.52,0.97,3.55,0.5,4.5-1.04l5.72-9.21l0.01-0.01l2.28-3.65l1.37-2.19L137.02,726.17z
				"/>
			<path class="st4" d="M130.19,721.92l-1.88-1.18l-1.35,2.18l-2.31,3.65v0.01l-5.74,9.21c-0.96,1.53-0.49,3.55,1.04,4.5l1.88,1.16
				l1.29,0.81c0,0,0.01,0,0.01,0.01c1.52,0.96,3.53,0.49,4.49-1.06l5.74-9.21l2.28-3.66l1.37-2.18L130.19,721.92z M122.86,739.16
				c-1.04-0.66-1.35-2.02-0.71-3.06c0.65-1.04,2.02-1.37,3.06-0.71c0.03,0.01,0.06,0.04,0.09,0.06c0.96,0.68,1.24,1.99,0.62,2.99
				c-0.28,0.44-0.68,0.75-1.12,0.91C124.19,739.59,123.47,739.54,122.86,739.16z"/>
		</g>
		<g>
			<path class="st4" d="M118.19,714.43l-3.56-2.22l-3.27-2.04v0.01l-1.37,2.16l-2.28,3.66l-5.75,9.21c-0.96,1.54-0.49,3.56,1.06,4.5
				l1.28,0.81c0,0,0.01,0,0.01,0.01l1.87,1.16c1.53,0.97,3.55,0.5,4.5-1.04l5.75-9.21l2.28-3.66l1.35-2.18L118.19,714.43z"/>
			<path class="st4" d="M114.63,712.21l-3.27-2.03l-1.88-1.18l-1.35,2.18l-2.3,3.66l-5.75,9.21c-0.96,1.53-0.49,3.55,1.06,4.52
				l1.88,1.15l1.28,0.81c0,0,0.01,0,0.01,0.01c1.53,0.96,3.53,0.49,4.49-1.06l5.74-9.21l2.28-3.66v-0.01l1.37-2.16L114.63,712.21z
				 M104.03,727.42c-1.03-0.66-1.35-2.02-0.71-3.06c0.65-1.04,2.02-1.37,3.06-0.71c0.03,0.01,0.06,0.04,0.09,0.06
				c0.01,0,0.01,0,0.01,0c0.96,0.69,1.22,1.99,0.6,2.99c-0.28,0.44-0.68,0.75-1.12,0.91C105.36,727.85,104.64,727.8,104.03,727.42z"
				/>
		</g>
		<path class="st5" d="M110.26,698.46c1.97-3.17,6.14-4.13,9.31-2.16l24.6,15.34c3.17,1.97,4.13,6.14,2.16,9.31l-6.31,10.12
			l-36.06-22.49L110.26,698.46z"/>
		<path class="st6" d="M110.31,698.38c1.95-3.13,6.07-4.08,9.19-2.13l9.6,5.98c-3.28-2.05-7.6-1.05-9.65,2.24l-6.18,9.91l-9.31-5.81
			L110.31,698.38z"/>
		<path class="st7" d="M100.8,711.7l37.8,23.57c0.62,0.38,1.42,0.2,1.81-0.42l3.18-5.1c0.38-0.62,0.2-1.42-0.42-1.81l-37.8-23.57
			c-0.62-0.38-1.42-0.2-1.81,0.42l-3.18,5.1C100,710.51,100.18,711.32,100.8,711.7z"/>
		<circle class="st1" cx="107.24" cy="725.8" r="2.22"/>
		<linearGradient id="SVGID_41_" gradientUnits="userSpaceOnUse" x1="-12.0147" y1="386.3055" x2="229.583" y2="454.8183">
			<stop  offset="1.393105e-03" style="stop-color:#F30000"/>
			<stop  offset="0.4126" style="stop-color:#D70208"/>
			<stop  offset="1" style="stop-color:#A90614"/>
		</linearGradient>
		<path class="st47" d="M267.69,210.91c-29.56-1.85-59.94,1.52-89.92,10.77C44.79,262.68-29.76,403.72,11.26,536.7
			c16.54,53.64,49.36,97.77,91.37,128.62c7.05,5.19,14.34,10,21.88,14.42l10.33-22.42l5.4-11.71c0.06-0.18,0.15-0.35,0.25-0.52
			l0.96-2.07l36.16-78.44c0,0,0,0,0,0l1.96-4.37l3.29-7.33c-0.09-0.07-0.17-0.15-0.26-0.23c-24.09-21.36-39.27-52.54-39.27-87.26
			c0-47.92,28.92-89.09,70.25-107.01h0l1.23-3.14c0.03-0.01,0.05-0.02,0.08-0.03l3.61-9.34c-0.65,0.09-1.3,0.19-1.94,0.3
			c0.71-0.13,1.43-0.26,2.14-0.38L267.69,210.91z M178.29,562.32l1.02-2.3c0,0,0,0,0,0L178.29,562.32z"/>
		<linearGradient id="SVGID_42_" gradientUnits="userSpaceOnUse" x1="187.9632" y1="361.9343" x2="653.1289" y2="661.227">
			<stop  offset="1.393105e-03" style="stop-color:#F30000"/>
			<stop  offset="0.4126" style="stop-color:#D70208"/>
			<stop  offset="1" style="stop-color:#A90614"/>
		</linearGradient>
		<path class="st48" d="M445.35,624.04c1.03-0.49,2-1,2.94-1.56c13.02-7.68,17.45-20.51,17.45-20.51
			c4.52-14.14,20.39-14.37,20.39-14.37l345.53-21.67l-340.02-23.57l-0.65-0.04l-42.06-2.91l44.15-9.97
			c0.75-0.24,1.44-0.52,2.07-0.84c0.4-0.19,0.78-0.4,1.13-0.62c5.97-3.65,6.41-10.24,6.41-10.24l4.63-31.29
			c-0.59-17.73,18.3-12.5,18.3-12.5l347.62-22.14l-365.67-26.07l-6.34-0.46l-29.48-2.09l26.89-12.31c-0.85-4.09-1.82-8.18-2.9-12.27
			c-3.31,0.28-6.65,0.47-10,0.51c-10.83,0.19-21.85-0.87-32.84-3.22c-2.31-0.5-4.62-1.06-6.94-1.68c-0.1-0.01-0.21-0.04-0.31-0.07
			c-0.12-0.03-0.25-0.07-0.37-0.1l-45.37-12.15l-1.88,3.93l-41.33,86.4l-0.07-0.01c-0.38,4.94-1.07,9.81-2.06,14.58
			c-8.47,41.22-38.34,74.62-77.49,88.12l-49.73,56.55l-33.78,38.41l-9.4,10.7l-16.86,19.17c7.58,2.72,15.3,5.08,23.13,7.06
			c43.28,10.95,90.04,10.53,135.82-3.59c23.73-7.31,45.61-17.82,65.28-30.89l311.71-14.61l-268.74-18.51l-2.72-0.19l-31.31-2.15
			l37.31-10.09C440.56,626.07,443.06,625.14,445.35,624.04z"/>
		<g>
			<linearGradient id="SVGID_43_" gradientUnits="userSpaceOnUse" x1="27.6498" y1="459.6299" x2="148.9628" y2="459.6299">
				<stop  offset="0" style="stop-color:#FFFFFF"/>
				<stop  offset="1" style="stop-color:#FFFFFF"/>
			</linearGradient>
			<path class="st49" d="M148.96,261.94C76.79,300.31,27.65,376.28,27.65,463.71c0,81.61,42.8,153.21,107.19,193.61l5.4-11.71
				c0.06-0.18,0.15-0.35,0.25-0.52l0.96-2.07c-59.67-41.19-98.77-110.04-98.77-188.05C42.67,373.75,85.07,302.43,148.96,261.94z"/>
			<linearGradient id="SVGID_44_" gradientUnits="userSpaceOnUse" x1="184.1974" y1="674.4066" x2="378.1273" y2="674.4066">
				<stop  offset="0" style="stop-color:#FFFFFF"/>
				<stop  offset="0.9834" style="stop-color:#FFFFFF"/>
			</linearGradient>
			<path class="st50" d="M271.04,683.34c-27.19,0-53.27-4.75-77.44-13.48l-9.4,10.7c22.58,7.47,46.74,11.52,71.82,11.52
				c44.91,0,86.8-12.96,122.11-35.35C346.19,673.72,309.75,683.34,271.04,683.34z"/>
		</g>
	</g>
	<g>
		<linearGradient id="SVGID_45_" gradientUnits="userSpaceOnUse" x1="1102.6414" y1="400.4286" x2="3532.406" y2="504.0233">
			<stop  offset="1.393105e-03" style="stop-color:#F30000"/>
			<stop  offset="0.4126" style="stop-color:#D70208"/>
			<stop  offset="1" style="stop-color:#A90614"/>
		</linearGradient>
		<path class="st51" d="M990.36,543.76V374.67h253.64c7.63,0,14.24-2.64,19.81-7.93c5.57-5.57,8.37-12.33,8.37-20.26V318.3H990.36
			v-56.36h338.18v112.73c0,15.85-5.58,29.21-16.73,40.07c-11.16,10.86-24.37,16.29-39.63,16.29h-225.46v112.73H990.36z"/>
		<linearGradient id="SVGID_46_" gradientUnits="userSpaceOnUse" x1="1103.407" y1="382.4689" x2="3533.1716" y2="486.0635">
			<stop  offset="1.393105e-03" style="stop-color:#F30000"/>
			<stop  offset="0.4126" style="stop-color:#D70208"/>
			<stop  offset="1" style="stop-color:#A90614"/>
		</linearGradient>
		<path class="st52" d="M1384.9,431.03V261.94h56.36v169.09H1384.9z M1441.27,543.76c-15.85,0-29.21-5.43-40.07-16.29
			c-10.86-11.15-16.29-24.51-16.29-40.07h338.18c0,15.85-5.58,29.21-16.73,40.07c-11.16,10.86-24.37,16.29-39.63,16.29H1441.27z
			 M1666.72,431.03V261.94h56.36v169.09H1666.72z"/>
		<linearGradient id="SVGID_47_" gradientUnits="userSpaceOnUse" x1="1103.8174" y1="372.843" x2="3533.582" y2="476.4377">
			<stop  offset="1.393105e-03" style="stop-color:#F30000"/>
			<stop  offset="0.4126" style="stop-color:#D70208"/>
			<stop  offset="1" style="stop-color:#A90614"/>
		</linearGradient>
		<path class="st53" d="M1779.45,543.76V261.94h56.36V487.4h281.82c0,15.85-5.58,29.21-16.73,40.07
			c-11.16,10.86-24.37,16.29-39.63,16.29H1779.45z"/>
		<linearGradient id="SVGID_48_" gradientUnits="userSpaceOnUse" x1="1104.7891" y1="350.0549" x2="3534.5537" y2="453.6496">
			<stop  offset="1.393105e-03" style="stop-color:#F30000"/>
			<stop  offset="0.4126" style="stop-color:#D70208"/>
			<stop  offset="1" style="stop-color:#A90614"/>
		</linearGradient>
		<path class="st54" d="M2174,543.76c0-15.56,5.43-28.77,16.29-39.63c11.15-11.15,24.51-16.73,40.07-16.73h225.46v-56.36H2174
			V261.94h338.18c0,15.85-5.58,29.21-16.73,40.07c-11.16,10.86-24.37,16.29-39.63,16.29h-225.46v56.36h281.82v169.09H2174z"/>
		<linearGradient id="SVGID_49_" gradientUnits="userSpaceOnUse" x1="1105.5547" y1="332.0952" x2="3535.3193" y2="435.6899">
			<stop  offset="1.393105e-03" style="stop-color:#F30000"/>
			<stop  offset="0.4126" style="stop-color:#D70208"/>
			<stop  offset="1" style="stop-color:#A90614"/>
		</linearGradient>
		<path class="st55" d="M2624.91,318.3c-15.85,0-29.21-5.43-40.07-16.29c-10.86-11.15-16.29-24.51-16.29-40.07h338.18
			c0,15.85-5.58,29.21-16.73,40.07c-11.16,10.86-24.37,16.29-39.63,16.29H2624.91z M2624.91,431.03c-15.85,0-29.21-5.43-40.07-16.29
			c-10.86-11.15-16.29-24.51-16.29-40.07h338.18c0,15.85-5.58,29.21-16.73,40.07c-11.16,10.86-24.37,16.29-39.63,16.29H2624.91z
			 M2624.91,543.76c-15.85,0-29.21-5.43-40.07-16.29c-10.86-11.15-16.29-24.51-16.29-40.07h338.18c0,15.85-5.58,29.21-16.73,40.07
			c-11.16,10.86-24.37,16.29-39.63,16.29H2624.91z"/>
		<path class="st45" d="M2963.09,261.94h56.36v56.36c0,15.85-5.58,29.21-16.73,40.07c-11.16,10.86-24.37,16.29-39.63,16.29V261.94z"
			/>
		<linearGradient id="SVGID_50_" gradientUnits="userSpaceOnUse" x1="1106.4254" y1="311.675" x2="3536.1902" y2="415.2697">
			<stop  offset="1.393105e-03" style="stop-color:#F30000"/>
			<stop  offset="0.4126" style="stop-color:#D70208"/>
			<stop  offset="1" style="stop-color:#A90614"/>
		</linearGradient>
		<path class="st56" d="M3075.82,543.76V374.67h281.82V318.3h-225.46c-15.56,0-28.92-5.43-40.07-16.29
			c-10.86-10.86-16.29-24.22-16.29-40.07H3414v169.09h-281.82v56.36h225.46c15.26,0,28.47,5.58,39.63,16.73
			c11.15,10.86,16.73,24.07,16.73,39.63H3075.82z"/>
		<linearGradient id="SVGID_51_" gradientUnits="userSpaceOnUse" x1="1106.9368" y1="299.6814" x2="3536.7014" y2="403.276">
			<stop  offset="1.393105e-03" style="stop-color:#F30000"/>
			<stop  offset="0.4126" style="stop-color:#D70208"/>
			<stop  offset="1" style="stop-color:#A90614"/>
		</linearGradient>
		<path class="st57" d="M3622.72,504.13c-10.86-11.15-24.07-16.73-39.63-16.73V318.3v-1.18v-55.18h-112.73
			c0,15.56,5.43,28.92,16.29,40.07c10.86,10.86,24.22,16.29,40.07,16.29V487.4h-56.36v56.36h169.09
			C3639.46,528.5,3633.88,515.29,3622.72,504.13z"/>
	</g>
</g>
<g>
	<path class="st45" d="M1961.7,920.48c-3.65-1.65-7.46-2.99-11.4-4.05l-32.17-8.62l-261.69-70.12l-0.01,0.03l34.33,62.66
		l158.02,42.34c0,0,0,0,0,0l27.32,7.32l60.84,16.3l0-0.01c0.54,0.15,1.06,0.29,1.58,0.48c12.05,4.1,19.01,16.9,15.67,29.39
		c-3.5,13.05-16.86,20.76-29.88,17.27l-88.17-23.63v0.01l-5-1.34l-85.02-22.79l-18.2,48.28l79.84,21.39l38.77,10.39l10.02,2.69
		l47.84,12.81c0.01,0.01,0.04,0.01,0.06,0.01c0.47,0.18,0.93,0.35,1.4,0.5c1.66,0.59,3.35,1.09,5.09,1.56
		c2.21,0.59,4.44,1.1,6.66,1.47l0.6,0.16l0.01-0.06c38.16,6.36,75.65-17.23,85.86-55.38
		C2013.89,972.98,1995.25,935.45,1961.7,920.48z"/>
	<polygon class="st45" points="1831.14,988.54 1807.76,1035.43 1797.64,1055.74 1788.87,1073.37 1785.47,1080.18 1751.99,1147.4 
		1718.86,1213.89 1785.47,1232.87 1625.53,1413.17 1615.64,1424.32 1613.87,1426.3 1603.52,1437.97 1590.39,1452.77 
		1586.58,1457.06 1581.33,1462.98 1580.01,1464.48 1584.1,1455.52 1584.78,1454.05 1590.91,1440.65 1601.56,1417.36 
		1607.84,1403.66 1667.94,1272.33 1633.93,1263.22 1684.45,1129.3 1710.55,1060.1 1720.03,1034.96 1727.92,1014.04 1746.12,965.75 	
		"/>
	<linearGradient id="SVGID_52_" gradientUnits="userSpaceOnUse" x1="1671.989" y1="962.3179" x2="2202.0615" y2="1153.4325">
		<stop  offset="1.393105e-03" style="stop-color:#F30000"/>
		<stop  offset="0.4126" style="stop-color:#D70208"/>
		<stop  offset="1" style="stop-color:#A90614"/>
	</linearGradient>
	<path class="st58" d="M1979.86,852.68c-3.65-1.3-7.4-2.48-11.22-3.5l0-0.01l-0.29-0.08c0,0-0.01,0-0.01,0c-0.01,0-0.01,0-0.02,0
		l-360.93-96.71l-0.08,0.29l34.6,62.13l205.84,55.16c0,0,0,0,0,0l68.66,18.4l38.66,10.36c50.35,13.52,80.23,65.29,66.75,115.65
		c-12.2,45.49-55.58,74.26-100.95,69.5c-4.84-0.5-9.69-1.38-14.54-2.68c-0.03-0.01-0.06-0.01-0.09-0.02
		c-0.03-0.01-0.06-0.01-0.09-0.02l-34.01-9.11l-34.01-9.11l-21.08-5.65l-0.04-0.01l-7.59,13.74l-2.32,4.22l-14.34,28.7l-3.68,7.36
		l-52.07,95.12l52.22,13.85l55.95-100.28l0.85-1.78l3.34-6.99l0.06-0.13l0,0l0,0l-0.06,0.13l-3.34,6.99l46.46,12.45
		c0.06,0.01,0.12,0.03,0.18,0.05c0.06,0.02,0.13,0.04,0.18,0.05c0.05,0.01,0.1,0.02,0.15,0.04s0.1,0.03,0.15,0.04l6.9,1.85
		l0.04-0.18l0,0c14.95,3.21,29.92,3.99,44.46,2.57c58.8-5.65,110.66-46.99,126.86-107.43
		C2091.23,953.79,2050.61,877.98,1979.86,852.68z"/>
	<g>
		<path class="st4" d="M1590.56,1478.54l-6.83-4.27v0.01l-1.37,2.16l-2.28,3.66l-0.01,0.01l-5.74,9.19
			c-0.96,1.54-0.49,3.56,1.04,4.5l1.29,0.81c0,0,0.01,0,0.01,0.01l1.87,1.16c1.52,0.97,3.55,0.5,4.5-1.04l5.72-9.21l0.01-0.01
			l2.28-3.65l1.37-2.19L1590.56,1478.54z"/>
		<path class="st4" d="M1583.73,1474.29l-1.88-1.18l-1.35,2.18l-2.31,3.65v0.01l-5.74,9.21c-0.96,1.53-0.49,3.55,1.04,4.5l1.88,1.16
			l1.29,0.81c0,0,0.01,0,0.01,0.01c1.52,0.96,3.53,0.49,4.49-1.06l5.74-9.21l2.28-3.66l1.37-2.18L1583.73,1474.29z M1576.4,1491.53
			c-1.04-0.66-1.35-2.02-0.71-3.06c0.65-1.04,2.02-1.37,3.06-0.71c0.03,0.01,0.06,0.04,0.09,0.06c0.96,0.68,1.24,1.99,0.62,2.99
			c-0.28,0.44-0.68,0.75-1.12,0.91C1577.73,1491.96,1577.01,1491.92,1576.4,1491.53z"/>
	</g>
	<g>
		<path class="st4" d="M1571.73,1466.8l-3.56-2.22l-3.27-2.05v0.01l-1.37,2.16l-2.28,3.66l-5.75,9.21c-0.96,1.54-0.49,3.56,1.06,4.5
			l1.28,0.81c0,0,0.01,0,0.01,0.01l1.87,1.16c1.53,0.97,3.55,0.5,4.5-1.04l5.75-9.21l2.28-3.66l1.35-2.18L1571.73,1466.8z"/>
		<path class="st4" d="M1568.17,1464.58l-3.27-2.03l-1.88-1.18l-1.35,2.18l-2.29,3.66l-5.75,9.21c-0.96,1.53-0.49,3.55,1.06,4.52
			l1.88,1.15l1.28,0.81c0,0,0.01,0,0.01,0.01c1.53,0.96,3.53,0.49,4.49-1.06l5.74-9.21l2.28-3.66v-0.01l1.37-2.16L1568.17,1464.58z
			 M1557.57,1479.79c-1.03-0.66-1.35-2.02-0.71-3.06s2.02-1.37,3.06-0.71c0.03,0.01,0.06,0.04,0.09,0.06c0.01,0,0.01,0,0.01,0
			c0.96,0.69,1.22,1.99,0.6,2.99c-0.28,0.44-0.68,0.75-1.12,0.91C1558.9,1480.22,1558.18,1480.18,1557.57,1479.79z"/>
	</g>
	<path class="st5" d="M1563.8,1450.83c1.97-3.17,6.14-4.13,9.31-2.16l24.6,15.34c3.17,1.97,4.13,6.14,2.16,9.31l-6.31,10.12
		l-36.06-22.49L1563.8,1450.83z"/>
	<path class="st6" d="M1563.85,1450.76c1.95-3.13,6.07-4.08,9.19-2.13l9.6,5.98c-3.28-2.05-7.6-1.05-9.65,2.24l-6.18,9.91
		l-9.31-5.81L1563.85,1450.76z"/>
	<path class="st7" d="M1554.34,1464.07l37.8,23.57c0.61,0.38,1.42,0.2,1.81-0.42l3.18-5.1c0.38-0.62,0.2-1.42-0.42-1.81l-37.8-23.57
		c-0.62-0.38-1.42-0.2-1.81,0.42l-3.18,5.1C1553.54,1462.88,1553.72,1463.69,1554.34,1464.07z"/>
	<circle class="st1" cx="1560.78" cy="1478.17" r="2.22"/>
	<linearGradient id="SVGID_53_" gradientUnits="userSpaceOnUse" x1="1441.5253" y1="1138.6797" x2="1683.1229" y2="1207.1925">
		<stop  offset="1.393105e-03" style="stop-color:#F30000"/>
		<stop  offset="0.4126" style="stop-color:#D70208"/>
		<stop  offset="1" style="stop-color:#A90614"/>
	</linearGradient>
	<path class="st59" d="M1721.23,963.28c-29.56-1.85-59.94,1.52-89.92,10.77c-132.98,41-207.52,182.04-166.51,315.02
		c16.54,53.64,49.36,97.77,91.37,128.62c7.05,5.19,14.34,10,21.88,14.42l10.33-22.42l5.4-11.71c0.06-0.18,0.15-0.35,0.25-0.52
		l0.96-2.07l36.16-78.44c0,0,0,0,0,0l1.96-4.37l3.29-7.33c-0.09-0.07-0.17-0.15-0.26-0.23c-24.09-21.36-39.27-52.54-39.27-87.26
		c0-47.92,28.92-89.09,70.25-107.01h0l1.23-3.14c0.03-0.01,0.05-0.02,0.08-0.03l3.61-9.34c-0.65,0.09-1.3,0.19-1.94,0.3
		c0.71-0.13,1.43-0.26,2.14-0.38L1721.23,963.28z M1631.83,1314.69l1.02-2.3c0,0,0,0,0,0L1631.83,1314.69z"/>
	<linearGradient id="SVGID_54_" gradientUnits="userSpaceOnUse" x1="1641.5032" y1="1114.3085" x2="2106.6689" y2="1413.6012">
		<stop  offset="1.393105e-03" style="stop-color:#F30000"/>
		<stop  offset="0.4126" style="stop-color:#D70208"/>
		<stop  offset="1" style="stop-color:#A90614"/>
	</linearGradient>
	<path class="st60" d="M1898.89,1376.42c1.03-0.49,2-1,2.94-1.56c13.02-7.68,17.45-20.51,17.45-20.51
		c4.52-14.14,20.39-14.37,20.39-14.37l345.53-21.67l-340.02-23.57l-0.65-0.04l-42.06-2.91l44.15-9.97c0.75-0.24,1.44-0.52,2.07-0.84
		c0.4-0.19,0.78-0.4,1.13-0.62c5.97-3.65,6.41-10.24,6.41-10.24l4.63-31.29c-0.59-17.73,18.3-12.5,18.3-12.5l347.62-22.14
		l-365.67-26.07l-6.34-0.46l-29.48-2.09l26.89-12.31c-0.85-4.09-1.82-8.18-2.9-12.27c-3.31,0.28-6.65,0.47-10,0.51
		c-10.83,0.19-21.85-0.87-32.84-3.22c-2.31-0.5-4.62-1.06-6.94-1.68c-0.1-0.01-0.21-0.04-0.31-0.07c-0.12-0.03-0.25-0.07-0.37-0.1
		l-45.37-12.15l-1.88,3.93l-41.33,86.4l-0.07-0.01c-0.38,4.94-1.07,9.81-2.06,14.58c-8.47,41.22-38.34,74.62-77.49,88.12
		l-49.73,56.55l-33.78,38.41l-9.4,10.7l-16.86,19.17c7.58,2.72,15.3,5.08,23.13,7.06c43.28,10.95,90.04,10.53,135.82-3.59
		c23.73-7.31,45.61-17.82,65.28-30.89l311.71-14.61l-268.74-18.51l-2.72-0.19l-31.31-2.15l37.31-10.09
		C1894.1,1378.45,1896.6,1377.52,1898.89,1376.42z"/>
	<g>
		<linearGradient id="SVGID_55_" gradientUnits="userSpaceOnUse" x1="1481.1898" y1="1212.0042" x2="1602.5027" y2="1212.0042">
			<stop  offset="0" style="stop-color:#FFFFFF"/>
			<stop  offset="1" style="stop-color:#FFFFFF"/>
		</linearGradient>
		<path class="st61" d="M1602.5,1014.32c-72.18,38.37-121.31,114.34-121.31,201.77c0,81.61,42.8,153.21,107.19,193.61l5.4-11.71
			c0.06-0.18,0.15-0.35,0.25-0.52l0.96-2.07c-59.67-41.19-98.77-110.04-98.77-188.05C1496.21,1126.12,1538.61,1054.8,1602.5,1014.32
			z"/>
		<linearGradient id="SVGID_56_" gradientUnits="userSpaceOnUse" x1="1637.7373" y1="1426.7808" x2="1831.6672" y2="1426.7808">
			<stop  offset="0" style="stop-color:#FFFFFF"/>
			<stop  offset="0.9834" style="stop-color:#FFFFFF"/>
		</linearGradient>
		<path class="st62" d="M1724.58,1435.72c-27.19,0-53.27-4.75-77.44-13.48l-9.4,10.7c22.58,7.47,46.74,11.52,71.82,11.52
			c44.91,0,86.8-12.96,122.11-35.35C1799.73,1426.1,1763.29,1435.72,1724.58,1435.72z"/>
	</g>
</g>
</svg>
